<?xml version="1.0" standalone="no"?>
<!DOCTYPE svg PUBLIC "-//W3C//DTD SVG 1.1//EN" "http://www.w3.org/Graphics/SVG/1.1/DTD/svg11.dtd">
<svg width="211mm" height="298mm" viewBox="-106 -149 211 298" xmlns="http://www.w3.org/2000/svg" version="1.1">
<title>OpenSCAD Model</title>
<path d="
M -105,-148.5 L -105,-3.84985 L -105.015,-3.68626 L -105.02,-3.5081 L -105.015,-3.32501 L -105,-3.15456
 L -105,1.87318 L -105.01,1.99803 L -105.017,2.15611 L -105.02,2.31834 L -105.015,2.54958 L -105,2.75134
 L -105,148.5 L 105,148.5 L 105,-148.5 z
M 104.65,148.15 L -104.65,148.15 L -104.65,3.99696 L -104.585,4.11624 L -104.483,4.27667 L -104.371,4.42926
 L -104.247,4.57396 L -104.113,4.71082 L -103.97,4.83861 L -103.818,4.95618 L -103.658,5.06352 L -103.49,5.16063
 L -103.313,5.24753 L -103.129,5.3242 L -102.936,5.39066 L -102.735,5.44688 L -102.526,5.49289 L -102.308,5.52867
 L -102.083,5.55423 L -101.849,5.56956 L -101.607,5.57468 L -101.444,5.57239 L -101.285,5.56552 L -101.129,5.55408
 L -100.977,5.53806 L -100.828,5.51746 L -100.682,5.49228 L -100.54,5.46252 L -100.401,5.42819 L -100.266,5.38928
 L -100.134,5.34579 L -100.005,5.29773 L -99.8799,5.24509 L -99.8291,5.22124 L -99.7859,6.5403 L -99.1445,13.0526
 L -98.0785,19.509 L -96.5926,25.8819 L -94.693,32.1439 L -92.3879,38.2683 L -89.6873,44.2289 L -86.6025,50
 L -83.147,55.557 L -79.3353,60.8761 L -75.184,65.9346 L -70.7107,70.7107 L -65.9346,75.184 L -60.8761,79.3353
 L -55.557,83.147 L -50,86.6025 L -44.2289,89.6873 L -38.2683,92.3879 L -32.1439,94.693 L -25.8819,96.5926
 L -21.0957,97.7086 L -21.0588,97.773 L -20.9962,97.8691 L -20.9281,97.9613 L -20.8551,98.0486 L -20.7778,98.1301
 L -20.6963,98.2057 L -20.6105,98.2755 L -20.5205,98.3396 L -20.4262,98.3978 L -20.3276,98.4502 L -20.2247,98.4968
 L -20.1176,98.5375 L -20.0062,98.5725 L -19.8905,98.6016 L -19.7706,98.625 L -19.6464,98.6425 L -19.6011,98.0571
 L -19.509,98.0785 L -16.3329,98.6029 L -16.3188,98.7564 L -16.1834,98.736 L -16.0532,98.7097 L -15.9282,98.6777
 L -15.9117,98.6725 L -13.0526,99.1445 L -6.5403,99.7859 L 0,100 L 4.24101,99.8612 L 4.98848,116.898
 L 4.86807,116.91 L 4.67438,116.942 L 4.4832,116.987 L 4.29533,117.044 L 4.1116,117.113 L 3.93279,117.194
 L 3.75964,117.287 L 3.59294,117.39 L 3.43336,117.505 L 3.28162,117.629 L 3.13834,117.763 L 3.00414,117.907
 L 2.87959,118.058 L 2.76524,118.218 L 2.66158,118.385 L 2.56903,118.558 L 2.48801,118.737 L 2.41885,118.92
 L 2.36188,119.108 L 2.31729,119.299 L 2.28532,119.493 L 2.26607,119.688 L 2.25964,119.885 L 2.26607,120.081
 L 2.28532,120.276 L 2.31729,120.47 L 2.36188,120.661 L 2.41885,120.849 L 2.48801,121.033 L 2.56903,121.212
 L 2.66158,121.385 L 2.76524,121.551 L 2.87959,121.711 L 3.00414,121.863 L 3.13834,122.006 L 3.28162,122.14
 L 3.43336,122.265 L 3.59294,122.379 L 3.75964,122.483 L 3.93279,122.575 L 4.1116,122.656 L 4.29533,122.725
 L 4.4832,122.782 L 4.67438,122.827 L 4.86807,122.859 L 5.06345,122.878 L 5.25964,122.885 L 5.45584,122.878
 L 5.65121,122.859 L 5.84491,122.827 L 6.03609,122.782 L 6.22395,122.725 L 6.40768,122.656 L 6.5865,122.575
 L 6.75964,122.483 L 6.92635,122.379 L 7.08592,122.265 L 7.23767,122.14 L 7.38095,122.006 L 7.51515,121.863
 L 7.63969,121.711 L 7.75404,121.551 L 7.85771,121.385 L 7.95026,121.212 L 8.03128,121.033 L 8.10043,120.849
 L 8.15741,120.661 L 8.202,120.47 L 8.23396,120.276 L 8.25322,120.081 L 8.25964,119.885 L 8.25322,119.688
 L 8.23396,119.493 L 8.202,119.299 L 8.15741,119.108 L 8.10043,118.92 L 8.03128,118.737 L 7.95026,118.558
 L 7.85771,118.385 L 7.75404,118.218 L 7.63969,118.058 L 7.51515,117.907 L 7.38095,117.763 L 7.23767,117.629
 L 7.08592,117.505 L 6.92635,117.39 L 6.75964,117.287 L 6.5865,117.194 L 6.40768,117.113 L 6.22395,117.044
 L 6.03609,116.987 L 5.84491,116.942 L 5.65121,116.91 L 5.45584,116.891 L 5.26817,116.885 L 4.52089,99.852
 L 6.5403,99.7859 L 13.0526,99.1445 L 19.509,98.0785 L 25.8819,96.5926 L 32.1439,94.693 L 38.2683,92.3879
 L 44.2289,89.6873 L 50,86.6025 L 55.557,83.147 L 59.3607,80.4213 L 69.5045,94.1238 L 69.4211,94.1922
 L 69.2778,94.3264 L 69.1436,94.4697 L 69.019,94.6215 L 68.9047,94.781 L 68.801,94.9477 L 68.7085,95.1209
 L 68.6275,95.2997 L 68.5583,95.4834 L 68.5013,95.6713 L 68.4567,95.8625 L 68.4248,96.0562 L 68.4055,96.2515
 L 68.3991,96.4477 L 68.4055,96.6439 L 68.4248,96.8393 L 68.4567,97.033 L 68.5013,97.2242 L 68.5583,97.412
 L 68.6275,97.5958 L 68.7085,97.7746 L 68.801,97.9477 L 68.9047,98.1144 L 69.019,98.274 L 69.1436,98.4258
 L 69.2778,98.569 L 69.4211,98.7032 L 69.5728,98.8278 L 69.7324,98.9421 L 69.8991,99.0458 L 70.0722,99.1384
 L 70.2511,99.2194 L 70.4348,99.2885 L 70.6227,99.3455 L 70.8138,99.3901 L 71.0075,99.4221 L 71.2029,99.4413
 L 71.3991,99.4477 L 71.5953,99.4413 L 71.7907,99.4221 L 71.9844,99.3901 L 72.1755,99.3455 L 72.3634,99.2885
 L 72.5471,99.2194 L 72.726,99.1384 L 72.8991,99.0458 L 73.0658,98.9421 L 73.2254,98.8278 L 73.3771,98.7032
 L 73.5204,98.569 L 73.6546,98.4258 L 73.7791,98.274 L 73.8935,98.1144 L 73.9972,97.9477 L 74.0897,97.7746
 L 74.1707,97.5958 L 74.2399,97.412 L 74.2969,97.2242 L 74.3414,97.033 L 74.3734,96.8393 L 74.3927,96.6439
 L 74.3991,96.4477 L 74.3927,96.2515 L 74.3734,96.0562 L 74.3414,95.8625 L 74.2969,95.6713 L 74.2399,95.4834
 L 74.1707,95.2997 L 74.0897,95.1209 L 73.9972,94.9477 L 73.8935,94.781 L 73.7791,94.6215 L 73.6546,94.4697
 L 73.5204,94.3264 L 73.3771,94.1922 L 73.2254,94.0677 L 73.0658,93.9533 L 72.8991,93.8497 L 72.726,93.7571
 L 72.5471,93.6761 L 72.3634,93.6069 L 72.1755,93.55 L 71.9844,93.5054 L 71.7907,93.4734 L 71.5953,93.4542
 L 71.3991,93.4477 L 71.2029,93.4542 L 71.0075,93.4734 L 70.8138,93.5054 L 70.6227,93.55 L 70.4348,93.6069
 L 70.2511,93.6761 L 70.0722,93.7571 L 69.8991,93.8497 L 69.7324,93.9533 L 69.7287,93.956 L 59.5883,80.2582
 L 60.8761,79.3353 L 65.9346,75.184 L 70.7107,70.7107 L 75.184,65.9346 L 79.3353,60.8761 L 83.147,55.557
 L 86.6025,50 L 89.2838,44.9837 L 89.31,45.0688 L 89.3797,45.2529 L 89.4602,45.429 L 89.5514,45.5974
 L 89.6533,45.7578 L 89.766,45.9104 L 89.8893,46.0551 L 90.0235,46.1919 L 90.1671,46.3197 L 90.3188,46.4373
 L 90.4788,46.5446 L 90.647,46.6417 L 90.8234,46.7286 L 91.008,46.8053 L 91.2008,46.8718 L 91.4018,46.928
 L 91.611,46.974 L 91.8284,47.0098 L 92.054,47.0353 L 92.2878,47.0507 L 92.5298,47.0558 L 92.6924,47.0535
 L 92.8516,47.0466 L 93.0075,47.0352 L 93.1599,47.0192 L 93.3089,46.9986 L 93.4545,46.9734 L 93.5967,46.9436
 L 93.7356,46.9093 L 93.871,46.8704 L 94.003,46.8269 L 94.1317,46.7788 L 94.2569,46.7262 L 94.3787,46.669
 L 94.4967,46.6074 L 94.6104,46.5416 L 94.7199,46.4717 L 94.8251,46.3976 L 94.926,46.3194 L 95.0227,46.237
 L 95.115,46.1505 L 95.2032,46.0598 L 95.287,45.9649 L 95.3666,45.8659 L 95.4419,45.7627 L 95.5129,45.6554
 L 95.5797,45.5439 L 95.6418,45.4288 L 95.699,45.3103 L 95.7512,45.1887 L 95.7984,45.0638 L 95.8407,44.9357
 L 95.878,44.8044 L 95.9103,44.6699 L 95.9376,44.5321 L 95.96,44.3911 L 95.9774,44.2468 L 95.9898,44.0993
 L 95.9973,43.9486 L 95.9998,43.7947 L 95.9971,43.6442 L 95.9891,43.4966 L 95.9758,43.3518 L 95.9571,43.2098
 L 95.9331,43.0707 L 95.9037,42.9344 L 95.869,42.8009 L 95.829,42.6703 L 95.7836,42.5425 L 95.7329,42.4176
 L 95.6769,42.2955 L 95.6155,42.1762 L 95.5488,42.0598 L 95.477,41.9467 L 95.4003,41.8376 L 95.3187,41.7325
 L 95.2322,41.6313 L 95.1409,41.5341 L 95.0446,41.4409 L 94.9435,41.3516 L 94.8374,41.2663 L 94.7265,41.185
 L 94.6107,41.1076 L 94.49,41.0341 L 94.3644,40.9647 L 94.2339,40.8992 L 93.8637,41.6396 L 94.0695,41.7525
 L 94.2587,41.8737 L 94.4316,42.0032 L 94.5879,42.1409 L 94.7278,42.2869 L 94.8513,42.4411 L 94.9583,42.6036
 L 95.0488,42.7744 L 95.1229,42.9534 L 95.1805,43.1407 L 95.2216,43.3362 L 95.2463,43.54 L 95.2545,43.752
 L 95.2501,43.918 L 95.2369,44.0787 L 95.2147,44.234 L 95.1838,44.3839 L 95.144,44.5284 L 95.0953,44.6676
 L 95.0378,44.8015 L 94.9714,44.9299 L 94.8962,45.053 L 94.8122,45.1708 L 94.7193,45.2831 L 94.6175,45.3901
 L 94.507,45.4918 L 94.3891,45.5869 L 94.2655,45.6745 L 94.1362,45.7544 L 94.0012,45.8267 L 93.8605,45.8914
 L 93.7142,45.9485 L 93.5621,45.9979 L 93.4043,46.0398 L 93.2408,46.0741 L 93.0716,46.1007 L 92.8967,46.1197
 L 92.7161,46.1311 L 92.5298,46.1349 L 92.3416,46.1313 L 92.1597,46.1203 L 91.984,46.1021 L 91.8146,46.0765
 L 91.6514,46.0437 L 91.4946,46.0035 L 91.3439,45.956 L 91.1996,45.9013 L 91.0615,45.8392 L 90.9297,45.7698
 L 90.8041,45.6931 L 90.6848,45.6092 L 90.5718,45.5179 L 90.4661,45.42 L 90.3689,45.3163 L 90.2801,45.2068
 L 90.1998,45.0914 L 90.1279,44.9702 L 90.0645,44.8431 L 90.0095,44.7102 L 89.963,44.5714 L 89.925,44.4268
 L 89.8954,44.2763 L 89.8743,44.1201 L 89.8616,43.9579 L 89.8589,43.8501 L 90.6914,42.0126 L 90.725,41.9899
 L 90.8035,41.9424 L 90.8851,41.8983 L 90.9701,41.8575 L 91.0583,41.82 L 90.9402,41.4637 L 92.3879,38.2683
 L 92.5919,37.7265 L 92.5974,37.7328 L 92.6427,37.7852 L 92.6879,37.8384 L 92.7332,37.8926 L 92.7785,37.9476
 L 92.8238,38.0035 L 92.869,38.0602 L 92.9143,38.1178 L 92.9599,38.1759 L 93.006,38.2341 L 93.0528,38.2924
 L 93.1001,38.3507 L 93.1481,38.4092 L 93.1966,38.4677 L 93.2457,38.5263 L 93.2954,38.585 L 93.3457,38.6438
 L 93.3966,38.7026 L 93.4481,38.7616 L 93.5001,38.8206 L 93.5528,38.8797 L 93.6062,38.9387 L 93.6606,38.9972
 L 93.7159,39.0553 L 93.7722,39.1129 L 93.8294,39.1702 L 93.8876,39.227 L 93.9468,39.2834 L 94.0069,39.3394
 L 94.068,39.395 L 94.13,39.4502 L 94.193,39.5049 L 94.2569,39.5592 L 94.3218,39.6131 L 94.3879,39.6662
 L 94.4556,39.7179 L 94.5248,39.7684 L 94.5956,39.8177 L 94.6679,39.8657 L 94.7418,39.9124 L 94.8172,39.9579
 L 94.8941,40.002 L 94.9726,40.045 L 95.0526,40.0866 L 95.1342,40.127 L 95.2173,40.1662 L 95.302,40.2041
 L 95.9048,40.2041 L 95.9048,35.7752 L 95.1786,35.7752 L 95.1786,39.2642 L 95.1273,39.2412 L 95.0757,39.2161
 L 95.0238,39.1888 L 94.9716,39.1595 L 94.9191,39.128 L 94.8663,39.0943 L 94.8132,39.0585 L 94.7597,39.0206
 L 94.706,38.9806 L 94.6519,38.9384 L 94.5976,38.8941 L 94.5429,38.8476 L 94.4879,38.799 L 94.4323,38.748
 L 94.3755,38.6944 L 94.3178,38.6382 L 94.259,38.5793 L 94.1992,38.5177 L 94.1384,38.4535 L 94.0765,38.3867
 L 94.0136,38.3172 L 93.9496,38.2451 L 93.8846,38.1704 L 93.8185,38.093 L 93.7514,38.013 L 93.6833,37.9303
 L 93.5617,37.7815 L 93.445,37.6402 L 93.3334,37.5065 L 93.2267,37.3804 L 93.1251,37.2619 L 93.0284,37.151
 L 92.9368,37.0477 L 92.8736,36.9779 L 94.693,32.1439 L 96.5926,25.8819 L 98.0785,19.509 L 99.1445,13.0526
 L 99.7859,6.5403 L 100,-0 L 99.7859,-6.5403 L 99.1445,-13.0526 L 98.0785,-19.509 L 96.5926,-25.8819
 L 94.693,-32.1439 L 92.3879,-38.2683 L 89.6873,-44.2289 L 86.6025,-50 L 83.147,-55.557 L 79.3353,-60.8761
 L 75.184,-65.9346 L 70.7107,-70.7107 L 65.9346,-75.184 L 60.8761,-79.3353 L 55.557,-83.147 L 50,-86.6025
 L 44.2289,-89.6873 L 38.2683,-92.3879 L 32.1439,-94.693 L 25.8819,-96.5926 L 19.509,-98.0785 L 13.0526,-99.1445
 L 6.5403,-99.7859 L 0,-100 L -0.195389,-99.9936 L -0.228561,-100.121 L -0.268585,-100.252 L -0.313934,-100.38
 L -0.364639,-100.505 L -0.42067,-100.627 L -0.48204,-100.746 L -0.548752,-100.862 L -0.620575,-100.975 L -0.697281,-101.084
 L -0.77887,-101.19 L -0.865356,-101.291 L -0.956726,-101.388 L -1.05298,-101.481 L -1.15413,-101.57 L -1.26015,-101.656
 L -1.37108,-101.737 L -1.48688,-101.815 L -1.60757,-101.888 L -1.73315,-101.957 L -1.86363,-102.023 L -2.23386,-101.282
 L -2.02812,-101.17 L -1.83884,-101.048 L -1.666,-100.919 L -1.50964,-100.781 L -1.36974,-100.635 L -1.24629,-100.481
 L -1.1393,-100.318 L -1.04877,-100.148 L -0.974701,-99.9687 L -0.974518,-99.9681 L -6.1608,-99.7983 L -6.15076,-99.8381
 L -6.12337,-99.9298 L -6.09233,-100.019 L -6.05765,-100.106 L -6.0193,-100.191 L -5.97731,-100.274 L -5.93166,-100.354
 L -5.88257,-100.432 L -5.83023,-100.506 L -5.77461,-100.577 L -5.71576,-100.645 L -5.65363,-100.709 L -5.58824,-100.77
 L -5.51959,-100.827 L -5.44769,-100.881 L -5.37254,-100.932 L -5.29411,-100.98 L -5.21243,-101.024 L -5.1275,-101.065
 L -5.03931,-101.102 L -5.32407,-101.961 L -5.44801,-101.907 L -5.5672,-101.849 L -5.68161,-101.785 L -5.79123,-101.718
 L -5.89609,-101.646 L -5.99617,-101.569 L -6.09148,-101.488 L -6.18199,-101.403 L -6.26775,-101.313 L -6.34872,-101.218
 L -6.42493,-101.119 L -6.49634,-101.015 L -6.56299,-100.907 L -6.62479,-100.795 L -6.68164,-100.679 L -6.73355,-100.558
 L -6.78052,-100.433 L -6.82256,-100.304 L -6.85963,-100.171 L -6.89177,-100.034 L -6.91896,-99.8922 L -6.94124,-99.7464
 L -13.0526,-99.1445 L -19.509,-98.0785 L -25.8819,-96.5926 L -32.1439,-94.693 L -38.2683,-92.3879 L -44.2289,-89.6873
 L -50,-86.6025 L -55.557,-83.147 L -60.8761,-79.3353 L -65.9346,-75.184 L -70.7107,-70.7107 L -75.184,-65.9346
 L -79.3353,-60.8761 L -83.147,-55.557 L -86.6025,-50 L -89.6873,-44.2289 L -92.3879,-38.2683 L -94.693,-32.1439
 L -96.5926,-25.8819 L -98.0785,-19.509 L -99.1445,-13.0526 L -99.7859,-6.5403 L -99.817,-5.59138 L -100.004,-5.64366
 L -100.201,-5.68912 L -100.407,-5.72758 L -100.622,-5.75906 L -100.847,-5.78354 L -101.082,-5.80103 L -101.325,-5.81152
 L -101.578,-5.81502 L -101.836,-5.81169 L -102.083,-5.8017 L -102.32,-5.78506 L -102.548,-5.76176 L -102.766,-5.73181
 L -102.974,-5.69519 L -103.171,-5.65192 L -103.359,-5.60199 L -103.538,-5.54541 L -103.706,-5.48216 L -103.864,-5.41226
 L -104.013,-5.33571 L -104.151,-5.2525 L -104.28,-5.16231 L -104.398,-5.06477 L -104.506,-4.95992 L -104.604,-4.84772
 L -104.65,-4.78419 L -104.65,-148.15 L 104.65,-148.15 z
M -14.5082,102.078 L -14.5162,101.93 L -14.5296,101.785 L -14.5483,101.643 L -14.5723,101.504 L -14.6016,101.368
 L -14.6363,101.235 L -14.6763,101.104 L -14.7217,100.976 L -14.7724,100.851 L -14.8284,100.729 L -14.8898,100.61
 L -14.9565,100.493 L -15.0283,100.38 L -15.105,100.271 L -15.1866,100.166 L -15.2731,100.065 L -15.3645,99.9678
 L -15.4607,99.8746 L -15.5619,99.7853 L -15.6679,99.7 L -15.7788,99.6186 L -15.8946,99.5412 L -16.0153,99.4678
 L -16.1409,99.3983 L -16.2714,99.3328 L -16.6416,100.073 L -16.4359,100.186 L -16.2466,100.307 L -16.0738,100.437
 L -15.9174,100.575 L -15.7775,100.721 L -15.6541,100.875 L -15.5471,101.037 L -15.4565,101.208 L -15.3825,101.387
 L -15.3249,101.574 L -15.2837,101.77 L -15.259,101.974 L -15.2508,102.186 L -15.2552,102.352 L -15.2685,102.512
 L -15.2906,102.668 L -15.3216,102.818 L -15.3614,102.962 L -15.41,103.101 L -15.4675,103.235 L -15.5339,103.364
 L -15.6091,103.487 L -15.6932,103.604 L -15.7861,103.717 L -15.8878,103.824 L -15.9984,103.925 L -16.1163,104.021
 L -16.2399,104.108 L -16.3691,104.188 L -16.5041,104.26 L -16.6448,104.325 L -16.7912,104.382 L -16.9433,104.432
 L -17.1011,104.473 L -17.2646,104.508 L -17.4337,104.534 L -17.6086,104.553 L -17.7892,104.565 L -17.9755,104.569
 L -18.1637,104.565 L -18.3457,104.554 L -18.5213,104.536 L -18.6908,104.51 L -18.8539,104.477 L -19.0108,104.437
 L -19.1614,104.39 L -19.3058,104.335 L -19.4438,104.273 L -19.5757,104.203 L -19.7012,104.127 L -19.8205,104.043
 L -19.9336,103.952 L -20.0392,103.854 L -20.1365,103.75 L -20.2253,103.64 L -20.3056,103.525 L -20.3774,103.404
 L -20.4408,103.277 L -20.4958,103.144 L -20.5423,103.005 L -20.5804,102.86 L -20.6099,102.71 L -20.6311,102.554
 L -20.6438,102.392 L -20.648,102.224 L -20.6462,102.116 L -20.6407,102.011 L -20.6315,101.907 L -20.6188,101.807
 L -20.6023,101.708 L -20.5823,101.612 L -20.5585,101.518 L -20.5311,101.426 L -20.5001,101.336 L -20.4654,101.249
 L -20.4271,101.164 L -20.3851,101.082 L -20.3394,101.001 L -20.2903,100.924 L -20.238,100.85 L -20.1824,100.779
 L -20.1235,100.711 L -20.0614,100.647 L -19.996,100.586 L -19.9274,100.529 L -19.8555,100.474 L -19.7803,100.424
 L -19.7019,100.376 L -19.6202,100.332 L -19.5353,100.291 L -19.4471,100.254 L -19.7318,99.3945 L -19.8558,99.4486
 L -19.975,99.5072 L -20.0894,99.5703 L -20.199,99.6379 L -20.3038,99.7099 L -20.4039,99.7865 L -20.4992,99.8676
 L -20.5898,99.9531 L -20.6755,100.043 L -20.7565,100.138 L -20.8327,100.237 L -20.9041,100.34 L -20.9707,100.448
 L -21.0325,100.561 L -21.0894,100.677 L -21.1413,100.798 L -21.1883,100.923 L -21.2303,101.052 L -21.2674,101.185
 L -21.2995,101.322 L -21.3267,101.464 L -21.349,101.609 L -21.3663,101.759 L -21.3786,101.913 L -21.386,102.071
 L -21.3885,102.233 L -21.3831,102.464 L -21.3671,102.688 L -21.3402,102.903 L -21.3027,103.111 L -21.2544,103.311
 L -21.1954,103.502 L -21.1256,103.687 L -21.0452,103.863 L -20.954,104.031 L -20.852,104.191 L -20.7394,104.344
 L -20.616,104.489 L -20.4819,104.626 L -20.3383,104.753 L -20.1865,104.871 L -20.0265,104.978 L -19.8583,105.075
 L -19.6819,105.162 L -19.4973,105.239 L -19.3046,105.305 L -19.1035,105.362 L -18.8943,105.408 L -18.6769,105.443
 L -18.4513,105.469 L -18.2175,105.484 L -17.9755,105.489 L -17.8129,105.487 L -17.6537,105.48 L -17.4979,105.469
 L -17.3455,105.453 L -17.1964,105.432 L -17.0508,105.407 L -16.9086,105.377 L -16.7698,105.343 L -16.6343,105.304
 L -16.5023,105.261 L -16.3737,105.212 L -16.2485,105.16 L -16.1266,105.103 L -16.0086,105.041 L -15.8949,104.975
 L -15.7854,104.905 L -15.6803,104.831 L -15.5793,104.753 L -15.4827,104.671 L -15.3903,104.584 L -15.3022,104.493
 L -15.2183,104.399 L -15.1388,104.3 L -15.0634,104.196 L -14.9924,104.089 L -14.9256,103.978 L -14.8635,103.862
 L -14.8063,103.744 L -14.7541,103.622 L -14.7069,103.497 L -14.6646,103.369 L -14.6274,103.238 L -14.595,103.104
 L -14.5677,102.966 L -14.5453,102.825 L -14.5279,102.68 L -14.5155,102.533 L -14.5081,102.382 L -14.5056,102.228
 z
M -0.918976,-107.161 L -0.918976,-105.533 L -6.88107,-105.533 L -6.88107,-104.745 L -5.79404,-103.164 L -4.98708,-103.164
 L -6.06459,-104.674 L -0.918976,-104.674 L -0.918976,-102.97 L -0.192734,-102.97 L -0.192734,-107.161 z
M 86.9747,127.603 L 86.9747,128.091 L 91,128.091 L 91,127.603 z
M 89.2695,133.627 L 89.2083,133.625 L 89.149,133.622 L 89.0917,133.616 L 89.0364,133.607 L 88.983,133.596
 L 88.9316,133.582 L 88.8822,133.566 L 88.8347,133.548 L 88.7892,133.527 L 88.7456,133.504 L 88.704,133.478
 L 88.6643,133.45 L 88.6266,133.419 L 88.5913,133.386 L 88.5588,133.352 L 88.5291,133.316 L 88.5023,133.278
 L 88.4783,133.239 L 88.4571,133.198 L 88.4387,133.156 L 88.4232,133.112 L 88.4105,133.066 L 88.4006,133.019
 L 88.3935,132.97 L 88.3893,132.919 L 88.3879,132.867 L 88.3883,132.832 L 88.3896,132.799 L 88.3916,132.766
 L 88.3946,132.735 L 88.3983,132.705 L 88.4029,132.676 L 88.4083,132.648 L 88.4146,132.621 L 88.4217,132.596
 L 88.4296,132.572 L 88.4384,132.549 L 88.448,132.527 L 88.4584,132.506 L 88.4697,132.487 L 88.482,132.468
 L 88.4952,132.45 L 88.5094,132.433 L 88.5245,132.417 L 88.5406,132.402 L 88.5576,132.387 L 88.5755,132.374
 L 88.5944,132.361 L 88.6143,132.349 L 88.6351,132.338 L 88.6568,132.328 L 88.6795,132.319 L 88.7036,132.311
 L 88.7296,132.303 L 88.7574,132.296 L 88.7871,132.29 L 88.8188,132.284 L 88.8522,132.279 L 88.8876,132.274
 L 88.9249,132.271 L 88.964,132.268 L 89.005,132.265 L 89.0479,132.264 L 89.0926,132.263 L 89.1393,132.262
 L 91,132.262 L 91,131.771 L 89.0443,131.771 L 88.9602,131.773 L 88.88,131.777 L 88.8035,131.783
 L 88.7309,131.793 L 88.662,131.805 L 88.597,131.819 L 88.5358,131.837 L 88.4783,131.857 L 88.4247,131.88
 L 88.3749,131.905 L 88.3288,131.933 L 88.2866,131.964 L 88.2482,131.998 L 88.2131,132.034 L 88.1808,132.073
 L 88.1513,132.116 L 88.1246,132.161 L 88.1007,132.209 L 88.0797,132.26 L 88.0614,132.314 L 88.046,132.371
 L 88.0333,132.432 L 88.0235,132.495 L 88.0165,132.561 L 88.0123,132.63 L 88.0108,132.702 L 88.0116,132.753
 L 88.014,132.803 L 88.018,132.852 L 88.0236,132.899 L 88.0307,132.945 L 88.0395,132.989 L 88.0498,133.033
 L 88.0617,133.074 L 88.0752,133.115 L 88.0903,133.153 L 88.107,133.191 L 88.1253,133.227 L 88.1451,133.262
 L 88.1667,133.295 L 88.1901,133.328 L 88.2152,133.36 L 88.2422,133.392 L 88.2711,133.422 L 88.3017,133.452
 L 88.3341,133.481 L 88.3684,133.51 L 88.4045,133.537 L 88.4424,133.564 L 88.482,133.59 L 88.5236,133.616
 L 88.5669,133.64 L 88.5669,133.648 L 88.5618,133.648 L 88.5464,133.647 L 88.524,133.645 L 88.5101,133.644
 L 88.477,133.642 L 88.4142,133.639 L 88.3634,133.636 L 88.3364,133.635 L 88.3094,133.633 L 88.2827,133.632
 L 88.256,133.631 L 88.2294,133.63 L 88.203,133.629 L 88.1767,133.629 L 88.1506,133.628 L 88.1245,133.627
 L 88.0986,133.627 L 88.0728,133.627 L 88.0472,133.627 L 88.0217,133.627 L 86.9747,133.627 L 86.9747,134.115
 L 91,134.115 L 91,133.627 z
M 91.0513,121.098 L 91.0423,121.002 L 91.0274,120.91 L 91.0065,120.822 L 90.9796,120.738 L 90.9468,120.657
 L 90.908,120.581 L 90.8632,120.508 L 90.8124,120.439 L 90.7557,120.374 L 90.693,120.312 L 90.6244,120.254
 L 90.5497,120.201 L 90.4694,120.151 L 90.3838,120.105 L 90.2928,120.063 L 90.1964,120.025 L 90.0946,119.991
 L 89.9875,119.961 L 89.8751,119.935 L 89.7572,119.913 L 89.634,119.895 L 89.5055,119.881 L 89.3716,119.871
 L 89.2323,119.865 L 89.0877,119.863 L 88.9407,119.865 L 88.7994,119.87 L 88.6637,119.88 L 88.5336,119.893
 L 88.4092,119.91 L 88.2905,119.931 L 88.1774,119.956 L 88.07,119.985 L 87.9682,120.017 L 87.872,120.053
 L 87.7816,120.093 L 87.6967,120.137 L 87.6175,120.184 L 87.5441,120.236 L 87.4765,120.292 L 87.4149,120.352
 L 87.3591,120.416 L 87.3091,120.484 L 87.2651,120.556 L 87.2269,120.633 L 87.1946,120.714 L 87.1681,120.799
 L 87.1476,120.888 L 87.1329,120.982 L 87.1241,121.079 L 87.1211,121.181 L 87.124,121.286 L 87.1328,121.386
 L 87.1473,121.482 L 87.1676,121.573 L 87.1938,121.66 L 87.2257,121.743 L 87.2635,121.821 L 87.3071,121.895
 L 87.3564,121.964 L 87.4116,122.029 L 87.4726,122.089 L 87.5395,122.145 L 87.6121,122.197 L 87.6905,122.245
 L 87.7748,122.288 L 87.865,122.328 L 87.961,122.364 L 88.0628,122.397 L 88.1704,122.425 L 88.284,122.45
 L 88.4033,122.471 L 88.5285,122.488 L 88.6595,122.501 L 88.7964,122.511 L 88.9391,122.516 L 89.0877,122.518
 L 89.2331,122.516 L 89.3731,122.511 L 89.5076,122.501 L 89.6366,122.487 L 89.7602,122.469 L 89.8783,122.448
 L 89.991,122.422 L 90.0982,122.393 L 90.2,122.36 L 90.2963,122.323 L 90.3871,122.281 L 90.4725,122.236
 L 90.5524,122.187 L 90.6267,122.135 L 90.695,122.078 L 90.7573,122.017 L 90.8137,121.953 L 90.8642,121.884
 L 90.9088,121.812 L 90.9474,121.736 L 90.98,121.656 L 91.0067,121.572 L 91.0275,121.484 L 91.0424,121.392
 L 91.0513,121.297 L 91.0542,121.197 z
M 90.6533,121.257 L 90.6466,121.32 L 90.6355,121.38 L 90.6198,121.437 L 90.5997,121.491 L 90.5752,121.543
 L 90.5462,121.591 L 90.5127,121.637 L 90.4748,121.68 L 90.4324,121.721 L 90.3856,121.758 L 90.3343,121.793
 L 90.2785,121.825 L 90.2179,121.855 L 90.1521,121.882 L 90.0812,121.907 L 90.0051,121.929 L 89.9239,121.949
 L 89.8374,121.967 L 89.7458,121.982 L 89.649,121.995 L 89.5471,122.006 L 89.44,122.014 L 89.3277,122.02
 L 89.2103,122.024 L 89.0877,122.025 L 88.9615,122.024 L 88.841,122.02 L 88.726,122.014 L 88.6166,122.006
 L 88.5128,121.996 L 88.4146,121.983 L 88.3219,121.968 L 88.2348,121.95 L 88.1534,121.93 L 88.0775,121.908
 L 88.0072,121.884 L 87.9425,121.857 L 87.8834,121.828 L 87.8292,121.796 L 87.7794,121.762 L 87.7339,121.724
 L 87.6927,121.683 L 87.6559,121.639 L 87.6233,121.592 L 87.5952,121.543 L 87.5713,121.49 L 87.5518,121.434
 L 87.5367,121.375 L 87.5258,121.314 L 87.5193,121.249 L 87.5172,121.181 L 87.5194,121.115 L 87.526,121.052
 L 87.537,120.992 L 87.5524,120.934 L 87.5721,120.88 L 87.5963,120.828 L 87.6249,120.78 L 87.6579,120.734
 L 87.6953,120.692 L 87.737,120.652 L 87.7832,120.615 L 87.8338,120.581 L 87.8888,120.55 L 87.9486,120.522
 L 88.0139,120.496 L 88.0845,120.472 L 88.1606,120.451 L 88.242,120.432 L 88.3289,120.415 L 88.4211,120.4
 L 88.5187,120.388 L 88.6217,120.377 L 88.7301,120.369 L 88.8439,120.364 L 88.9631,120.36 L 89.0877,120.359
 L 89.2079,120.36 L 89.3233,120.364 L 89.4338,120.37 L 89.5394,120.378 L 89.6402,120.389 L 89.736,120.402
 L 89.827,120.417 L 89.9131,120.435 L 89.9943,120.455 L 90.0706,120.478 L 90.1421,120.503 L 90.2087,120.53
 L 90.2704,120.56 L 90.3273,120.592 L 90.3798,120.627 L 90.4276,120.665 L 90.4709,120.705 L 90.5097,120.748
 L 90.5439,120.794 L 90.5735,120.843 L 90.5986,120.894 L 90.6191,120.948 L 90.635,121.005 L 90.6464,121.065
 L 90.6532,121.127 L 90.6555,121.192 z
M 91.0501,125.553 L 91.0378,125.421 L 91.0173,125.297 L 90.9885,125.181 L 90.9515,125.074 L 90.9063,124.974
 L 90.8529,124.882 L 90.7913,124.798 L 90.7214,124.721 L 90.6434,124.653 L 90.5571,124.593 L 90.4626,124.54
 L 90.3598,124.496 L 90.2378,124.925 L 90.2675,124.936 L 90.2963,124.948 L 90.3243,124.962 L 90.3516,124.978
 L 90.378,124.995 L 90.4036,125.013 L 90.4285,125.033 L 90.4525,125.055 L 90.4757,125.078 L 90.4981,125.102
 L 90.5198,125.128 L 90.5406,125.155 L 90.5606,125.184 L 90.5795,125.214 L 90.5968,125.245 L 90.6127,125.279
 L 90.627,125.313 L 90.6398,125.349 L 90.6511,125.387 L 90.6609,125.426 L 90.6692,125.467 L 90.676,125.509
 L 90.6813,125.552 L 90.6851,125.598 L 90.6873,125.644 L 90.6881,125.692 L 90.6865,125.753 L 90.6816,125.811
 L 90.6735,125.867 L 90.6622,125.921 L 90.6476,125.973 L 90.6297,126.022 L 90.6087,126.069 L 90.5843,126.113
 L 90.5568,126.156 L 90.526,126.196 L 90.4919,126.234 L 90.4547,126.269 L 90.4141,126.303 L 90.3706,126.333
 L 90.3244,126.362 L 90.2754,126.388 L 90.2237,126.411 L 90.1693,126.432 L 90.1121,126.451 L 90.0522,126.467
 L 89.9896,126.481 L 89.9243,126.492 L 89.8562,126.5 L 89.7854,126.506 L 89.7119,126.51 L 89.6356,126.511
 L 89.6356,124.417 L 89.5705,124.417 L 89.3398,124.425 L 89.1275,124.448 L 88.9337,124.486 L 88.7584,124.54
 L 88.6015,124.609 L 88.4631,124.693 L 88.3431,124.792 L 88.2416,124.907 L 88.1585,125.037 L 88.0939,125.183
 L 88.0478,125.344 L 88.0201,125.52 L 88.0108,125.711 L 88.0131,125.807 L 88.02,125.899 L 88.0315,125.987
 L 88.0476,126.073 L 88.0682,126.154 L 88.0935,126.232 L 88.1233,126.307 L 88.1577,126.379 L 88.1968,126.447
 L 88.2404,126.511 L 88.2886,126.572 L 88.3414,126.63 L 88.3987,126.684 L 88.4604,126.734 L 88.5261,126.78
 L 88.5958,126.823 L 88.6695,126.861 L 88.7473,126.895 L 88.829,126.925 L 88.9148,126.952 L 89.0045,126.974
 L 89.0983,126.992 L 89.1961,127.006 L 89.2979,127.016 L 89.4037,127.022 L 89.5136,127.024 L 89.629,127.022
 L 89.74,127.016 L 89.8465,127.006 L 89.9486,126.992 L 90.0462,126.974 L 90.1393,126.952 L 90.228,126.925
 L 90.3122,126.895 L 90.392,126.861 L 90.4673,126.823 L 90.5381,126.78 L 90.6045,126.734 L 90.6664,126.684
 L 90.7237,126.629 L 90.7765,126.572 L 90.8247,126.51 L 90.8683,126.445 L 90.9074,126.376 L 90.9418,126.303
 L 90.9716,126.227 L 90.9969,126.147 L 91.0175,126.063 L 91.0336,125.976 L 91.0451,125.885 L 91.0519,125.791
 L 91.0542,125.692 z
M 89.2613,126.506 L 89.1985,126.502 L 89.1378,126.496 L 89.0792,126.488 L 89.0227,126.478 L 88.9683,126.465
 L 88.9161,126.45 L 88.8659,126.433 L 88.8178,126.414 L 88.7718,126.392 L 88.728,126.368 L 88.6862,126.342
 L 88.6465,126.313 L 88.609,126.282 L 88.5739,126.249 L 88.5415,126.215 L 88.5121,126.179 L 88.4854,126.141
 L 88.4615,126.101 L 88.4404,126.059 L 88.4222,126.016 L 88.4067,125.971 L 88.3941,125.924 L 88.3842,125.875
 L 88.3772,125.825 L 88.373,125.773 L 88.3716,125.719 L 88.3729,125.664 L 88.3766,125.611 L 88.3829,125.559
 L 88.3918,125.51 L 88.4031,125.463 L 88.417,125.418 L 88.4333,125.375 L 88.4522,125.333 L 88.4737,125.294
 L 88.4976,125.257 L 88.524,125.222 L 88.553,125.189 L 88.5845,125.158 L 88.6188,125.129 L 88.656,125.101
 L 88.6962,125.076 L 88.7393,125.052 L 88.7854,125.031 L 88.8345,125.011 L 88.8866,124.992 L 88.9416,124.976
 L 88.9996,124.962 L 89.0606,124.949 L 89.1245,124.938 L 89.1914,124.929 L 89.2613,124.922 z
M 91.052,129.853 L 91.0453,129.759 L 91.0341,129.669 L 91.0185,129.582 L 90.9985,129.499 L 90.9739,129.42
 L 90.9449,129.344 L 90.9115,129.272 L 90.8735,129.203 L 90.8311,129.138 L 90.7843,129.077 L 90.733,129.019
 L 90.6772,128.965 L 90.6169,128.915 L 90.5519,128.869 L 90.4822,128.827 L 90.4079,128.789 L 90.329,128.755
 L 90.2454,128.725 L 90.1571,128.699 L 90.0642,128.677 L 89.9667,128.659 L 89.8644,128.644 L 89.7576,128.634
 L 89.646,128.628 L 89.5298,128.626 L 89.4125,128.628 L 89.3,128.634 L 89.1923,128.643 L 89.0894,128.656
 L 88.9914,128.673 L 88.8982,128.694 L 88.8098,128.718 L 88.7263,128.747 L 88.6476,128.779 L 88.5737,128.814
 L 88.5047,128.854 L 88.4405,128.897 L 88.3811,128.944 L 88.3263,128.995 L 88.2759,129.05 L 88.2299,129.109
 L 88.1883,129.173 L 88.1511,129.241 L 88.1182,129.312 L 88.0897,129.389 L 88.0656,129.469 L 88.0459,129.554
 L 88.0306,129.642 L 88.0196,129.735 L 88.013,129.832 L 88.0108,129.934 L 88.0198,130.128 L 88.0468,130.308
 L 88.0917,130.471 L 88.1547,130.619 L 88.2355,130.751 L 88.3344,130.868 L 88.4513,130.969 L 88.5861,131.055
 L 88.7389,131.125 L 88.9097,131.179 L 89.0984,131.218 L 89.3051,131.242 L 89.5298,131.249 L 89.6417,131.247
 L 89.7494,131.242 L 89.853,131.232 L 89.9525,131.218 L 90.0479,131.201 L 90.1391,131.18 L 90.2262,131.154
 L 90.3092,131.125 L 90.3881,131.092 L 90.4628,131.055 L 90.5334,131.014 L 90.5999,130.97 L 90.6623,130.921
 L 90.7203,130.869 L 90.7736,130.813 L 90.8223,130.753 L 90.8664,130.689 L 90.9058,130.622 L 90.9406,130.551
 L 90.9707,130.477 L 90.9963,130.398 L 91.0171,130.316 L 91.0334,130.23 L 91.045,130.14 L 91.0519,130.047
 L 91.0542,129.95 z
M 90.6918,130.016 L 90.6866,130.075 L 90.678,130.131 L 90.6659,130.184 L 90.6503,130.235 L 90.6314,130.283
 L 90.6089,130.328 L 90.5831,130.371 L 90.5537,130.412 L 90.521,130.45 L 90.4847,130.485 L 90.445,130.518
 L 90.4019,130.548 L 90.3553,130.576 L 90.3053,130.602 L 90.2519,130.625 L 90.1951,130.646 L 90.1349,130.665
 L 90.0712,130.682 L 90.0041,130.697 L 89.9336,130.709 L 89.8597,130.719 L 89.7824,130.727 L 89.7016,130.732
 L 89.6174,130.736 L 89.5298,130.737 L 89.4399,130.736 L 89.3537,130.732 L 89.2713,130.727 L 89.1925,130.719
 L 89.1176,130.708 L 89.0463,130.696 L 88.9788,130.681 L 88.9151,130.664 L 88.855,130.645 L 88.7988,130.624
 L 88.7462,130.6 L 88.6974,130.574 L 88.6524,130.546 L 88.6108,130.515 L 88.5726,130.481 L 88.5377,130.445
 L 88.5062,130.405 L 88.4779,130.363 L 88.453,130.318 L 88.4314,130.271 L 88.4131,130.22 L 88.3982,130.167
 L 88.3866,130.111 L 88.3783,130.052 L 88.3733,129.99 L 88.3716,129.926 L 88.3732,129.862 L 88.3781,129.801
 L 88.3863,129.742 L 88.3977,129.687 L 88.4123,129.634 L 88.4303,129.585 L 88.4514,129.538 L 88.4759,129.495
 L 88.5036,129.454 L 88.5345,129.416 L 88.5687,129.381 L 88.6062,129.349 L 88.6469,129.32 L 88.6913,129.293
 L 88.7395,129.268 L 88.7917,129.246 L 88.8478,129.226 L 88.9079,129.207 L 88.9718,129.191 L 89.0398,129.178
 L 89.1116,129.166 L 89.1874,129.156 L 89.2671,129.149 L 89.3508,129.143 L 89.4383,129.14 L 89.5298,129.139
 L 89.6202,129.14 L 89.7068,129.144 L 89.7896,129.149 L 89.8687,129.157 L 89.944,129.167 L 90.0156,129.179
 L 90.0834,129.194 L 90.1474,129.21 L 90.2077,129.229 L 90.2643,129.251 L 90.3171,129.274 L 90.3661,129.3
 L 90.4114,129.328 L 90.4531,129.358 L 90.4915,129.392 L 90.5266,129.428 L 90.5583,129.467 L 90.5867,129.51
 L 90.6117,129.555 L 90.6334,129.603 L 90.6518,129.655 L 90.6668,129.709 L 90.6785,129.766 L 90.6868,129.826
 L 90.6918,129.889 L 90.6935,129.956 z
M -99.8712,4.19334 L -100.001,4.27327 L -100.135,4.34557 L -100.276,4.41026 L -100.423,4.46735 L -100.575,4.51683
 L -100.732,4.55869 L -100.896,4.59294 L -101.065,4.61958 L -101.24,4.63861 L -101.421,4.65002 L -101.607,4.65382
 L -101.795,4.65018 L -101.977,4.63922 L -102.153,4.62097 L -102.322,4.59541 L -102.485,4.56255 L -102.642,4.52238
 L -102.793,4.47493 L -102.937,4.42015 L -103.075,4.35808 L -103.207,4.28871 L -103.333,4.21204 L -103.452,4.12807
 L -103.565,4.03677 L -103.671,3.93892 L -103.768,3.83521 L -103.857,3.72566 L -103.937,3.61028 L -104.009,3.48904
 L -104.072,3.36197 L -104.127,3.22905 L -104.174,3.09029 L -104.212,2.94568 L -104.241,2.79523 L -104.262,2.63895
 L -104.275,2.47681 L -104.279,2.30884 L -104.278,2.20116 L -104.272,2.09576 L -104.263,1.99263 L -104.25,1.89178
 L -104.234,1.79321 L -104.214,1.69691 L -104.19,1.60289 L -104.163,1.51115 L -104.131,1.42168 L -104.097,1.33449
 L -104.058,1.24957 L -104.016,1.16693 L -103.971,1.08656 L -103.922,1.00899 L -103.869,0.934769 L -103.814,0.863876
 L -103.755,0.796341 L -103.693,0.732147 L -103.627,0.671295 L -103.559,0.61377 L -103.487,0.559601 L -103.412,0.508774
 L -103.333,0.461288 L -103.252,0.417145 L -103.167,0.376343 L -103.078,0.338898 L -103.363,-0.520279 L -103.487,-0.466171
 L -103.606,-0.407578 L -103.721,-0.344482 L -103.83,-0.276901 L -103.935,-0.204834 L -104.035,-0.12825 L -104.131,-0.0471954
 L -104.221,0.0383453 L -104.307,0.128403 L -104.388,0.222946 L -104.464,0.321991 L -104.535,0.425537 L -104.602,0.533554
 L -104.65,0.620544 L -104.65,-2.19711 L -104.608,-2.13834 L -104.512,-2.02477 L -104.405,-1.91891 L -104.288,-1.82079
 L -104.161,-1.73038 L -104.023,-1.64717 L -103.876,-1.5706 L -103.718,-1.50072 L -103.55,-1.43747 L -103.372,-1.38089
 L -103.184,-1.33095 L -102.985,-1.28769 L -102.776,-1.25107 L -102.557,-1.22112 L -102.328,-1.19781 L -102.088,-1.18117
 L -101.838,-1.17119 L -101.578,-1.16786 L -101.324,-1.17128 L -101.079,-1.18156 L -100.844,-1.1987 L -100.618,-1.22269
 L -100.402,-1.25352 L -100.195,-1.29121 L -99.9976,-1.33577 L -99.9559,-1.3472 L -99.9864,-0.414658 L -100.273,0.158508
 L -100.067,0.271439 L -99.9895,0.321243 L -99.8629,4.18744 z
M -99.9276,-2.21237 L -99.9729,-2.19901 L -100.115,-2.16393 L -100.266,-2.13295 L -100.427,-2.10611 L -100.596,-2.0834
 L -100.774,-2.06483 L -100.962,-2.05038 L -101.158,-2.04005 L -101.364,-2.03386 L -101.578,-2.0318 L -101.799,-2.03383
 L -102.01,-2.03995 L -102.211,-2.05013 L -102.403,-2.06438 L -102.585,-2.0827 L -102.756,-2.1051 L -102.919,-2.13158
 L -103.071,-2.16211 L -103.213,-2.19673 L -103.346,-2.23541 L -103.469,-2.27818 L -103.583,-2.32501 L -103.686,-2.37592
 L -103.781,-2.4315 L -103.868,-2.49232 L -103.948,-2.55841 L -104.02,-2.62975 L -104.084,-2.70633 L -104.141,-2.78816
 L -104.19,-2.87526 L -104.232,-2.96761 L -104.266,-3.0652 L -104.293,-3.16805 L -104.312,-3.27614 L -104.323,-3.3895
 L -104.327,-3.5081 L -104.323,-3.62383 L -104.311,-3.73442 L -104.292,-3.83987 L -104.265,-3.94019 L -104.231,-4.03535
 L -104.188,-4.12538 L -104.138,-4.21028 L -104.081,-4.29004 L -104.015,-4.36465 L -103.942,-4.43413 L -103.861,-4.49846
 L -103.773,-4.55766 L -103.677,-4.61172 L -103.572,-4.66122 L -103.458,-4.70677 L -103.334,-4.74835 L -103.201,-4.78598
 L -103.058,-4.81964 L -102.906,-4.84935 L -102.745,-4.87509 L -102.574,-4.89688 L -102.394,-4.9147 L -102.204,-4.92856
 L -102.005,-4.93846 L -101.796,-4.94441 L -101.578,-4.94638 L -101.368,-4.94431 L -101.166,-4.93808 L -100.973,-4.92769
 L -100.788,-4.91313 L -100.612,-4.89442 L -100.444,-4.87157 L -100.285,-4.84454 L -100.134,-4.81337 L -99.9919,-4.77803
 L -99.8583,-4.73854 L -99.845,-4.73392 z
M 99.4366,6.51741 L 98.7975,13.0069 L 97.7352,19.4408 L 96.2545,25.7913 L 94.3616,32.0314 L 92.6059,36.6962
 L 92.5535,36.6448 L 92.4919,36.5869 L 92.4327,36.5339 L 92.3736,36.483 L 92.3144,36.4341 L 92.2552,36.3872
 L 92.1961,36.3424 L 92.1369,36.2996 L 92.0778,36.2589 L 92.0186,36.2202 L 91.9595,36.1836 L 91.9003,36.1491
 L 91.8412,36.1165 L 91.782,36.0861 L 91.7229,36.0577 L 91.6637,36.0313 L 91.6044,36.0071 L 91.5451,35.985
 L 91.4858,35.965 L 91.4264,35.9471 L 91.3669,35.9313 L 91.3074,35.9176 L 91.2478,35.906 L 91.1882,35.8965
 L 91.1285,35.8891 L 91.0688,35.8839 L 91.009,35.8807 L 90.9491,35.8797 L 90.8164,35.8829 L 90.6884,35.8925
 L 90.5652,35.9086 L 90.4467,35.9311 L 90.3329,35.9601 L 90.2239,35.9955 L 90.1197,36.0373 L 90.0202,36.0855
 L 89.9254,36.1402 L 89.8354,36.2013 L 89.7502,36.2688 L 89.6696,36.3428 L 89.5939,36.4232 L 89.5233,36.5096
 L 89.4584,36.6015 L 89.3991,36.6989 L 89.3455,36.8019 L 89.2975,36.9104 L 89.2551,37.0245 L 89.2184,37.1441
 L 89.1874,37.2692 L 89.162,37.3998 L 89.1422,37.536 L 89.1281,37.6777 L 89.1196,37.825 L 89.1168,37.9778
 L 89.1196,38.1175 L 89.1281,38.2532 L 89.1421,38.385 L 89.1618,38.5128 L 89.1871,38.6367 L 89.218,38.7566
 L 89.2545,38.8725 L 89.2966,38.9845 L 89.3444,39.0925 L 89.3977,39.1965 L 89.4567,39.2966 L 89.5213,39.3928
 L 89.5916,39.4849 L 89.6665,39.5722 L 89.7454,39.6537 L 89.8281,39.7294 L 89.9147,39.7992 L 90.0051,39.8632
 L 90.0995,39.9214 L 90.1977,39.9738 L 90.2998,40.0204 L 90.4058,40.0612 L 90.5156,40.0961 L 90.6294,40.1253
 L 90.747,40.1486 L 90.8684,40.1661 L 90.9491,39.2926 L 90.868,39.2814 L 90.7898,39.2668 L 90.7143,39.2486
 L 90.6417,39.2271 L 90.572,39.202 L 90.5051,39.1735 L 90.441,39.1416 L 90.3797,39.1062 L 90.3213,39.0673
 L 90.2658,39.025 L 90.213,38.9792 L 90.1631,38.93 L 90.1161,38.8773 L 90.0722,38.8218 L 90.0318,38.764
 L 89.9949,38.7039 L 89.9616,38.6415 L 89.9317,38.5769 L 89.9054,38.5099 L 89.8826,38.4408 L 89.8632,38.3693
 L 89.8474,38.2955 L 89.8351,38.2195 L 89.8264,38.1412 L 89.8211,38.0606 L 89.8194,37.9778 L 89.8212,37.8909
 L 89.8265,37.807 L 89.8355,37.7261 L 89.8481,37.6481 L 89.8643,37.5732 L 89.8841,37.5012 L 89.9074,37.4322
 L 89.9344,37.3661 L 89.965,37.3031 L 89.9991,37.243 L 90.0369,37.1859 L 90.0782,37.1318 L 90.1232,37.0807
 L 90.1713,37.0329 L 90.2225,36.989 L 90.2765,36.9488 L 90.3335,36.9126 L 90.3934,36.8801 L 90.4562,36.8514
 L 90.5219,36.8266 L 90.5905,36.8056 L 90.6621,36.7884 L 90.7366,36.775 L 90.814,36.7655 L 90.8944,36.7597
 L 90.9776,36.7578 L 91.0399,36.7589 L 91.1012,36.7623 L 91.1615,36.7678 L 91.2207,36.7756 L 91.279,36.7856
 L 91.3362,36.7978 L 91.3925,36.8122 L 91.4477,36.8288 L 91.5019,36.8477 L 91.5551,36.8688 L 91.6073,36.8921
 L 91.6585,36.9176 L 91.7086,36.9453 L 91.7581,36.9749 L 91.8073,37.0058 L 91.8561,37.0381 L 91.9046,37.0717
 L 91.9527,37.1068 L 92.0005,37.1432 L 92.048,37.181 L 92.0951,37.2202 L 92.1419,37.2607 L 92.1884,37.3026
 L 92.2345,37.3459 L 92.2803,37.3906 L 92.3258,37.4367 L 92.3268,37.4377 L 92.0646,38.1344 L 90.7779,40.9741
 L 90.7735,40.9608 L 90.6496,41.0149 L 90.5304,41.0735 L 90.416,41.1366 L 90.3064,41.2042 L 90.2015,41.2763
 L 90.1014,41.3529 L 90.0061,41.4339 L 89.9156,41.5195 L 89.8298,41.6095 L 89.7489,41.7041 L 89.6727,41.8031
 L 89.6012,41.9066 L 89.5346,42.0147 L 89.4728,42.127 L 89.4159,42.2435 L 89.364,42.3642 L 89.3171,42.489
 L 89.275,42.618 L 89.2379,42.7511 L 89.2058,42.8884 L 89.1786,43.0298 L 89.1564,43.1755 L 89.1391,43.3252
 L 89.1267,43.4791 L 89.1193,43.6372 L 89.1168,43.7995 L 89.1222,44.0307 L 89.1383,44.254 L 89.1645,44.4648
 L 86.2994,49.825 L 82.8559,55.3626 L 79.0576,60.6631 L 74.9208,65.7038 L 70.4632,70.4632 L 65.7038,74.9208
 L 60.6631,79.0576 L 59.3802,79.977 L 50.6671,68.2072 L 51.7447,67.435 L 56.0444,63.9064 L 60.1041,60.1041
 L 63.9064,56.0444 L 67.435,51.7447 L 70.6749,47.2235 L 73.6122,42.5 L 76.2342,37.5945 L 78.5298,32.5281
 L 80.4891,27.3223 L 82.1037,21.9996 L 83.3667,16.5827 L 84.2728,11.0947 L 84.818,5.55927 L 85,-0
 L 84.818,-5.55927 L 84.2728,-11.0947 L 83.3667,-16.5827 L 82.1037,-21.9996 L 80.4891,-27.3223 L 78.5298,-32.5281
 L 76.2342,-37.5945 L 73.6122,-42.5 L 70.6749,-47.2235 L 67.435,-51.7447 L 63.9064,-56.0444 L 60.1041,-60.1041
 L 56.0444,-63.9064 L 51.7447,-67.435 L 47.2235,-70.6749 L 42.5,-73.6122 L 37.5945,-76.2342 L 32.5281,-78.5298
 L 27.3223,-80.4891 L 21.9996,-82.1037 L 16.5827,-83.3667 L 11.0947,-84.2728 L 5.55927,-84.818 L 0,-85
 L -5.55927,-84.818 L -11.0947,-84.2728 L -16.5827,-83.3667 L -21.9996,-82.1037 L -27.3223,-80.4891 L -32.5281,-78.5298
 L -37.5945,-76.2342 L -42.5,-73.6122 L -47.2235,-70.6749 L -51.7447,-67.435 L -56.0444,-63.9064 L -60.1041,-60.1041
 L -63.9064,-56.0444 L -67.435,-51.7447 L -70.6749,-47.2235 L -73.6122,-42.5 L -76.2342,-37.5945 L -78.5298,-32.5281
 L -80.4891,-27.3223 L -82.1037,-21.9996 L -83.3667,-16.5827 L -84.2728,-11.0947 L -84.818,-5.55927 L -85,-0
 L -84.818,5.55927 L -84.2728,11.0947 L -83.3667,16.5827 L -82.1037,21.9996 L -80.4891,27.3223 L -78.5298,32.5281
 L -76.2342,37.5945 L -73.6122,42.5 L -70.6749,47.2235 L -67.435,51.7447 L -63.9064,56.0444 L -60.1041,60.1041
 L -56.0444,63.9064 L -55.0915,64.6884 L -55.112,64.7126 L -54.7381,65.0292 L -54.7127,64.9993 L -51.7447,67.435
 L -51.573,67.558 L -51.573,68.1576 L -50.7364,68.1576 L -47.2235,70.6749 L -42.5,73.6122 L -37.5945,76.2342
 L -32.5281,78.5298 L -27.3223,80.4891 L -21.9996,82.1037 L -16.5827,83.3667 L -11.0947,84.2728 L -5.55927,84.818
 L 0,85 L 3.58388,84.8827 L 4.22568,99.5117 L 0,99.65 L -6.51741,99.4366 L -13.0069,98.7975
 L -15.353,98.4101 L -15.2871,98.3632 L -15.1985,98.2904 L -15.115,98.2118 L -15.0367,98.1275 L -14.9637,98.0372
 L -14.8959,97.9417 L -14.8335,97.8413 L -14.7766,97.7361 L -14.7251,97.6259 L -14.679,97.511 L -14.6384,97.3911
 L -14.6031,97.2664 L -14.5733,97.1369 L -14.5489,97.0024 L -14.53,96.8632 L -14.5164,96.719 L -14.5083,96.57
 L -14.5056,96.4162 L -14.5086,96.2512 L -14.5176,96.0922 L -14.5326,95.9391 L -14.5536,95.792 L -14.5807,95.6508
 L -14.6138,95.5156 L -14.6528,95.3863 L -14.6979,95.263 L -14.749,95.1457 L -14.8061,95.0343 L -14.8692,94.9288
 L -14.9384,94.8294 L -15.0135,94.7358 L -15.0941,94.6488 L -15.1797,94.5686 L -15.2702,94.4955 L -15.3656,94.4293
 L -15.466,94.3701 L -15.5713,94.3179 L -15.6816,94.2726 L -15.7968,94.2343 L -15.917,94.2029 L -16.0421,94.1786
 L -16.1721,94.1611 L -16.3071,94.1507 L -16.447,94.1472 L -16.5443,94.1497 L -16.639,94.1571 L -16.7312,94.1694
 L -16.8207,94.1868 L -16.9077,94.209 L -16.9921,94.2362 L -17.0738,94.2683 L -17.153,94.3054 L -17.2297,94.3474
 L -17.3037,94.3944 L -17.3752,94.4463 L -17.444,94.5032 L -17.5103,94.565 L -17.5733,94.6312 L -17.6322,94.7014
 L -17.6871,94.7754 L -17.7379,94.8535 L -17.7847,94.9354 L -17.8275,95.0213 L -17.8662,95.1111 L -17.9008,95.2049
 L -17.9314,95.3026 L -17.958,95.4042 L -17.9805,95.5097 L -17.999,95.6192 L -18.0135,95.7326 L -18.0324,95.7326
 L -18.0559,95.6294 L -18.0824,95.53 L -18.112,95.4345 L -18.1446,95.3428 L -18.1803,95.2549 L -18.219,95.1709
 L -18.2608,95.0908 L -18.3057,95.0145 L -18.3536,94.942 L -18.4046,94.8734 L -18.4587,94.8087 L -18.5158,94.7477
 L -18.576,94.6907 L -18.6391,94.6377 L -18.7051,94.5889 L -18.7739,94.5444 L -18.8455,94.5041 L -18.92,94.468
 L -18.9973,94.4362 L -19.0775,94.4086 L -19.1604,94.3853 L -19.2463,94.3662 L -19.3349,94.3514 L -19.4264,94.3408
 L -19.5208,94.3344 L -19.6179,94.3323 L -19.7443,94.3356 L -19.8663,94.3455 L -19.9839,94.362 L -20.0972,94.3851
 L -20.2062,94.4148 L -20.3107,94.4511 L -20.411,94.494 L -20.5069,94.5435 L -20.5984,94.5996 L -20.6855,94.6623
 L -20.7684,94.7316 L -20.8468,94.8075 L -20.9209,94.89 L -20.9901,94.9785 L -21.0537,95.0723 L -21.1118,95.1714
 L -21.1644,95.2758 L -21.2114,95.3855 L -21.2529,95.5005 L -21.2889,95.6208 L -21.3193,95.7464 L -21.3442,95.8773
 L -21.3636,96.0136 L -21.3774,96.1552 L -21.3857,96.302 L -21.3885,96.4542 L -21.3858,96.5939 L -21.3776,96.7296
 L -21.364,96.8614 L -21.3449,96.9892 L -21.3204,97.1131 L -21.2904,97.2329 L -21.2671,97.3094 L -25.7913,96.2545
 L -32.0314,94.3616 L -38.1344,92.0646 L -44.0741,89.3734 L -49.825,86.2994 L -55.3626,82.8559 L -60.6631,79.0576
 L -65.7038,74.9208 L -70.4632,70.4632 L -74.9208,65.7038 L -79.0576,60.6631 L -82.8559,55.3626 L -86.2994,49.825
 L -89.3734,44.0741 L -92.0646,38.1344 L -94.3616,32.0314 L -96.2545,25.7913 L -97.7352,19.4408 L -98.7975,13.0069
 L -99.4366,6.51741 L -99.4852,5.03424 L -99.4168,4.99059 L -99.3116,4.91652 L -99.2107,4.83829 L -99.1141,4.75591
 L -99.0217,4.66937 L -98.9336,4.57867 L -98.8497,4.48381 L -98.7702,4.3848 L -98.6948,4.28163 L -98.6238,4.1743
 L -98.557,4.06282 L -98.4949,3.94765 L -98.4377,3.82924 L -98.3855,3.7076 L -98.3383,3.58273 L -98.296,3.45464
 L -98.2588,3.32332 L -98.2264,3.18875 L -98.1991,3.05096 L -98.1767,2.90996 L -98.1593,2.7657 L -98.1469,2.61823
 L -98.1395,2.46753 L -98.137,2.31358 L -98.1396,2.16312 L -98.1476,2.01547 L -98.161,1.87065 L -98.1797,1.72868
 L -98.2037,1.58955 L -98.233,1.45326 L -98.2677,1.31981 L -98.3077,1.18918 L -98.3531,1.0614 L -98.4038,0.936447
 L -98.4598,0.814346 L -98.5212,0.695068 L -98.5879,0.578644 L -98.6597,0.465591 L -98.7364,0.356506 L -98.818,0.251389
 L -98.9045,0.150223 L -98.9959,0.0530243 L -99.0921,-0.0401917 L -99.1933,-0.129471 L -99.2993,-0.214783 L -99.4102,-0.296143
 L -99.526,-0.373535 L -99.6356,-0.440186 L -99.6023,-1.45686 L -99.4634,-1.51053 L -99.3044,-1.58249 L -99.155,-1.6613
 L -99.0151,-1.74696 L -98.8852,-1.83946 L -98.7657,-1.93875 L -98.6566,-2.04485 L -98.5578,-2.15773 L -98.4695,-2.2774
 L -98.3916,-2.40388 L -98.324,-2.53717 L -98.2669,-2.67725 L -98.2201,-2.82413 L -98.1837,-2.9778 L -98.1577,-3.13828
 L -98.1422,-3.30554 L -98.137,-3.47961 L -98.1422,-3.65373 L -98.1579,-3.8212 L -98.184,-3.98201 L -98.2206,-4.13617
 L -98.2676,-4.28368 L -98.325,-4.42451 L -98.393,-4.5587 L -98.4713,-4.68622 L -98.5601,-4.8071 L -98.6594,-4.92131
 L -98.7691,-5.02887 L -98.8893,-5.12976 L -99.0199,-5.22401 L -99.1604,-5.31143 L -99.3103,-5.39186 L -99.4696,-5.4653
 L -99.4711,-5.46588 L -99.4366,-6.51741 L -98.7975,-13.0069 L -97.7352,-19.4408 L -96.2545,-25.7913 L -94.3616,-32.0314
 L -92.0646,-38.1344 L -89.3734,-44.0741 L -86.2994,-49.825 L -82.8559,-55.3626 L -79.0576,-60.6631 L -74.9208,-65.7038
 L -70.4632,-70.4632 L -65.7038,-74.9208 L -60.6631,-79.0576 L -55.3626,-82.8559 L -49.825,-86.2994 L -44.0741,-89.3734
 L -38.1344,-92.0646 L -32.0314,-94.3616 L -25.7913,-96.2545 L -19.4408,-97.7352 L -13.0069,-98.7975 L -6.97327,-99.3917
 L -6.97829,-99.2849 L -6.98076,-99.1226 L -6.97539,-98.8914 L -6.95929,-98.668 L -6.93246,-98.4525 L -6.89491,-98.2449
 L -6.84663,-98.0452 L -6.78763,-97.8533 L -6.71788,-97.6692 L -6.63741,-97.493 L -6.5462,-97.3247 L -6.44427,-97.1643
 L -6.33162,-97.0117 L -6.20824,-96.867 L -6.07411,-96.7302 L -5.93053,-96.6024 L -5.77875,-96.4848 L -5.61876,-96.3775
 L -5.45056,-96.2803 L -5.27417,-96.1935 L -5.08958,-96.1168 L -4.89679,-96.0503 L -4.69579,-95.9941 L -4.48659,-95.9481
 L -4.26918,-95.9123 L -4.04358,-95.8867 L -3.80977,-95.8714 L -3.56776,-95.8663 L -3.40517,-95.8686 L -3.24594,-95.8755
 L -3.09012,-95.8869 L -2.9377,-95.9029 L -2.78868,-95.9235 L -2.64305,-95.9487 L -2.50084,-95.9785 L -2.36201,-96.0128
 L -2.22658,-96.0517 L -2.09456,-96.0952 L -1.96593,-96.1432 L -1.8407,-96.1959 L -1.71887,-96.2531 L -1.60088,-96.3147
 L -1.48715,-96.3805 L -1.37769,-96.4504 L -1.27249,-96.5245 L -1.17157,-96.6027 L -1.07492,-96.6851 L -0.982544,-96.7716
 L -0.894424,-96.8623 L -0.810577,-96.9572 L -0.731003,-97.0562 L -0.655685,-97.1593 L -0.584656,-97.2667 L -0.517883,-97.3782
 L -0.455734,-97.4933 L -0.398575,-97.6117 L -0.346375,-97.7334 L -0.299149,-97.8582 L -0.256882,-97.9863 L -0.219604,-98.1177
 L -0.187286,-98.2522 L -0.159943,-98.39 L -0.137573,-98.531 L -0.120178,-98.6753 L -0.107758,-98.8228 L -0.100296,-98.9734
 L -0.0978088,-99.1274 L -0.100479,-99.2779 L -0.108475,-99.4255 L -0.121826,-99.5703 L -0.131744,-99.6457 L 0,-99.65
 L 6.51741,-99.4366 L 13.0069,-98.7975 L 19.4408,-97.7352 L 25.7913,-96.2545 L 32.0314,-94.3616 L 38.1344,-92.0646
 L 44.0741,-89.3734 L 49.825,-86.2994 L 55.3626,-82.8559 L 60.6631,-79.0576 L 65.7038,-74.9208 L 70.4632,-70.4632
 L 74.9208,-65.7038 L 79.0576,-60.6631 L 82.8559,-55.3626 L 86.2994,-49.825 L 89.3734,-44.0741 L 92.0646,-38.1344
 L 94.3616,-32.0314 L 96.2545,-25.7913 L 97.7352,-19.4408 L 98.7975,-13.0069 L 99.4366,-6.51741 L 99.65,-0
 z
M -90.5043,-0.130798 L -90.5171,-0.261047 L -90.5384,-0.390167 L -90.5682,-0.517624 L -90.6061,-0.642868 L -90.6523,-0.765366
 L -90.7063,-0.884567 L -90.768,-1 L -90.8371,-1.11113 L -90.9133,-1.21751 L -90.9963,-1.31868 L -91.0858,-1.4142
 L -91.1813,-1.50368 L -91.2825,-1.5867 L -91.3889,-1.66293 L -91.5,-1.73204 L -91.6154,-1.79373 L -91.7346,-1.84775
 L -91.8571,-1.89386 L -91.9824,-1.93184 L -92.1098,-1.96156 L -92.239,-1.98288 L -92.3692,-1.99571 L -92.5,-2
 L -92.6308,-1.99571 L -92.761,-1.98288 L -92.8902,-1.96156 L -93.0176,-1.93184 L -93.1429,-1.89386 L -93.2654,-1.84775
 L -93.3846,-1.79373 L -93.5,-1.73204 L -93.6111,-1.66293 L -93.7175,-1.5867 L -93.8187,-1.50368 L -93.9142,-1.4142
 L -94.0037,-1.31868 L -94.0867,-1.21751 L -94.1629,-1.11113 L -94.232,-1 L -94.2937,-0.884567 L -94.3477,-0.765366
 L -94.3939,-0.642868 L -94.4318,-0.517624 L -94.4616,-0.390167 L -94.4829,-0.261047 L -94.4957,-0.130798 L -94.5,-0
 L -94.4957,0.130798 L -94.4829,0.261047 L -94.4616,0.390167 L -94.4318,0.517624 L -94.3939,0.642868 L -94.3477,0.765366
 L -94.2937,0.884567 L -94.232,1 L -94.1629,1.11113 L -94.0867,1.21751 L -94.0037,1.31868 L -93.9142,1.4142
 L -93.8187,1.50368 L -93.7175,1.5867 L -93.6111,1.66293 L -93.5,1.73204 L -93.3846,1.79373 L -93.2654,1.84775
 L -93.1429,1.89386 L -93.0176,1.93184 L -92.8902,1.96156 L -92.761,1.98288 L -92.6308,1.99571 L -92.5,2
 L -92.3692,1.99571 L -92.239,1.98288 L -92.1098,1.96156 L -91.9824,1.93184 L -91.8571,1.89386 L -91.7346,1.84775
 L -91.6154,1.79373 L -91.5,1.73204 L -91.3889,1.66293 L -91.2825,1.5867 L -91.1813,1.50368 L -91.0858,1.4142
 L -90.9963,1.31868 L -90.9133,1.21751 L -90.8371,1.11113 L -90.768,1 L -90.7063,0.884567 L -90.6523,0.765366
 L -90.6061,0.642868 L -90.5682,0.517624 L -90.5384,0.390167 L -90.5171,0.261047 L -90.5043,0.130798 L -90.5,-0
 z
M -90.8535,0.10791 L -90.8641,0.215363 L -90.8817,0.321884 L -90.9062,0.427048 L -90.9376,0.530365 L -90.9756,0.631424
 L -91.0202,0.729767 L -91.0711,0.824997 L -91.1281,0.916687 L -91.191,1.00446 L -91.2595,1.08791 L -91.3333,1.16672
 L -91.4121,1.24052 L -91.4955,1.30902 L -91.5833,1.37192 L -91.675,1.42894 L -91.7702,1.47983 L -91.8686,1.5244
 L -91.9696,1.56242 L -92.073,1.59377 L -92.1781,1.61829 L -92.2846,1.63588 L -92.3921,1.64645 L -92.5,1.64999
 L -92.6079,1.64645 L -92.7154,1.63588 L -92.8219,1.61829 L -92.927,1.59377 L -93.0304,1.56242 L -93.1314,1.5244
 L -93.2298,1.47983 L -93.325,1.42894 L -93.4167,1.37192 L -93.5045,1.30902 L -93.5879,1.24052 L -93.6667,1.16672
 L -93.7405,1.08791 L -93.809,1.00446 L -93.8719,0.916687 L -93.9289,0.824997 L -93.9798,0.729767 L -94.0244,0.631424
 L -94.0624,0.530365 L -94.0938,0.427048 L -94.1183,0.321884 L -94.1359,0.215363 L -94.1465,0.10791 L -94.15,-0
 L -94.1465,-0.10791 L -94.1359,-0.215363 L -94.1183,-0.321884 L -94.0938,-0.427048 L -94.0624,-0.530365 L -94.0244,-0.631424
 L -93.9798,-0.729767 L -93.9289,-0.824997 L -93.8719,-0.916687 L -93.809,-1.00446 L -93.7405,-1.08791 L -93.6667,-1.16672
 L -93.5879,-1.24052 L -93.5045,-1.30902 L -93.4167,-1.37192 L -93.325,-1.42894 L -93.2298,-1.47983 L -93.1314,-1.5244
 L -93.0304,-1.56242 L -92.927,-1.59377 L -92.8219,-1.61829 L -92.7154,-1.63588 L -92.6079,-1.64645 L -92.5,-1.64999
 L -92.3921,-1.64645 L -92.2846,-1.63588 L -92.1781,-1.61829 L -92.073,-1.59377 L -91.9696,-1.56242 L -91.8686,-1.5244
 L -91.7702,-1.47983 L -91.675,-1.42894 L -91.5833,-1.37192 L -91.4955,-1.30902 L -91.4121,-1.24052 L -91.3333,-1.16672
 L -91.2595,-1.08791 L -91.191,-1.00446 L -91.1281,-0.916687 L -91.0711,-0.824997 L -91.0202,-0.729767 L -90.9756,-0.631424
 L -90.9376,-0.530365 L -90.9062,-0.427048 L -90.8817,-0.321884 L -90.8641,-0.215363 L -90.8535,-0.10791 L -90.85,-0
 z
M -14.2885,90.9245 L -14.3013,90.7943 L -14.3226,90.6652 L -14.3524,90.5377 L -14.3903,90.4125 L -14.4364,90.29
 L -14.4905,90.1708 L -14.5522,90.0553 L -14.6213,89.9442 L -14.6975,89.8378 L -14.7805,89.7366 L -14.87,89.6411
 L -14.9655,89.5517 L -15.0667,89.4686 L -15.1731,89.3924 L -15.2842,89.3233 L -15.3996,89.2616 L -15.5188,89.2076
 L -15.6413,89.1615 L -15.7666,89.1235 L -15.894,89.0938 L -16.0231,89.0724 L -16.1534,89.0596 L -16.2842,89.0553
 L -16.415,89.0596 L -16.5452,89.0724 L -16.6744,89.0938 L -16.8018,89.1235 L -16.9271,89.1615 L -17.0496,89.2076
 L -17.1688,89.2616 L -17.2842,89.3233 L -17.3953,89.3924 L -17.5017,89.4686 L -17.6029,89.5517 L -17.6984,89.6411
 L -17.7879,89.7366 L -17.8709,89.8378 L -17.9471,89.9442 L -18.0162,90.0553 L -18.0779,90.1708 L -18.1319,90.29
 L -18.1781,90.4125 L -18.216,90.5377 L -18.2458,90.6652 L -18.2671,90.7943 L -18.2799,90.9245 L -18.2842,91.0553
 L -18.2799,91.1861 L -18.2671,91.3164 L -18.2458,91.4455 L -18.216,91.573 L -18.1781,91.6982 L -18.1319,91.8207
 L -18.0779,91.9399 L -18.0162,92.0553 L -17.9471,92.1665 L -17.8709,92.2728 L -17.7879,92.374 L -17.6984,92.4695
 L -17.6029,92.559 L -17.5017,92.642 L -17.3953,92.7183 L -17.2842,92.7874 L -17.1688,92.8491 L -17.0496,92.9031
 L -16.9271,92.9492 L -16.8018,92.9872 L -16.6744,93.0169 L -16.5452,93.0382 L -16.415,93.051 L -16.2842,93.0553
 L -16.1534,93.051 L -16.0231,93.0382 L -15.894,93.0169 L -15.7666,92.9872 L -15.6413,92.9492 L -15.5188,92.9031
 L -15.3996,92.8491 L -15.2842,92.7874 L -15.1731,92.7183 L -15.0667,92.642 L -14.9655,92.559 L -14.87,92.4695
 L -14.7805,92.374 L -14.6975,92.2728 L -14.6213,92.1665 L -14.5522,92.0553 L -14.4905,91.9399 L -14.4364,91.8207
 L -14.3903,91.6982 L -14.3524,91.573 L -14.3226,91.4455 L -14.3013,91.3164 L -14.2885,91.1861 L -14.2842,91.0553
 z
M -14.6377,91.1632 L -14.6483,91.2707 L -14.6659,91.3772 L -14.6904,91.4824 L -14.7218,91.5857 L -14.7598,91.6868
 L -14.8044,91.7851 L -14.8553,91.8803 L -14.9123,91.972 L -14.9752,92.0598 L -15.0437,92.1432 L -15.1175,92.222
 L -15.1963,92.2959 L -15.2797,92.3643 L -15.3675,92.4272 L -15.4592,92.4843 L -15.5544,92.5352 L -15.6528,92.5797
 L -15.7538,92.6178 L -15.8571,92.6491 L -15.9623,92.6736 L -16.0688,92.6912 L -16.1763,92.7018 L -16.2842,92.7053
 L -16.3921,92.7018 L -16.4996,92.6912 L -16.6061,92.6736 L -16.7112,92.6491 L -16.8146,92.6178 L -16.9156,92.5797
 L -17.014,92.5352 L -17.1092,92.4843 L -17.2009,92.4272 L -17.2887,92.3643 L -17.3721,92.2959 L -17.4509,92.222
 L -17.5247,92.1432 L -17.5932,92.0598 L -17.6561,91.972 L -17.7131,91.8803 L -17.764,91.7851 L -17.8086,91.6868
 L -17.8466,91.5857 L -17.878,91.4824 L -17.9025,91.3772 L -17.9201,91.2707 L -17.9306,91.1632 L -17.9342,91.0553
 L -17.9306,90.9474 L -17.9201,90.84 L -17.9025,90.7334 L -17.878,90.6283 L -17.8466,90.525 L -17.8086,90.4239
 L -17.764,90.3256 L -17.7131,90.2303 L -17.6561,90.1386 L -17.5932,90.0509 L -17.5247,89.9674 L -17.4509,89.8886
 L -17.3721,89.8148 L -17.2887,89.7463 L -17.2009,89.6834 L -17.1092,89.6264 L -17.014,89.5755 L -16.9156,89.5309
 L -16.8146,89.4929 L -16.7112,89.4616 L -16.6061,89.437 L -16.4996,89.4194 L -16.3921,89.4089 L -16.2842,89.4053
 L -16.1763,89.4089 L -16.0688,89.4194 L -15.9623,89.437 L -15.8571,89.4616 L -15.7538,89.4929 L -15.6528,89.5309
 L -15.5544,89.5755 L -15.4592,89.6264 L -15.3675,89.6834 L -15.2797,89.7463 L -15.1963,89.8148 L -15.1175,89.8886
 L -15.0437,89.9674 L -14.9752,90.0509 L -14.9123,90.1386 L -14.8553,90.2303 L -14.8044,90.3256 L -14.7598,90.4239
 L -14.7218,90.525 L -14.6904,90.6283 L -14.6659,90.7334 L -14.6483,90.84 L -14.6377,90.9474 L -14.6342,91.0553
 z
M -1.15826,-92.577 L -1.1711,-92.7073 L -1.19241,-92.8364 L -1.22214,-92.9638 L -1.26012,-93.0891 L -1.30623,-93.2116
 L -1.36024,-93.3308 L -1.42194,-93.4462 L -1.49104,-93.5573 L -1.56728,-93.6637 L -1.6503,-93.7649 L -1.73978,-93.8604
 L -1.8353,-93.9499 L -1.93646,-94.0329 L -2.04285,-94.1091 L -2.15398,-94.1783 L -2.26941,-94.2399 L -2.38861,-94.294
 L -2.51111,-94.3401 L -2.63635,-94.3781 L -2.76381,-94.4078 L -2.89293,-94.4291 L -3.02318,-94.4419 L -3.15398,-94.4462
 L -3.28477,-94.4419 L -3.41502,-94.4291 L -3.54414,-94.4078 L -3.6716,-94.3781 L -3.79684,-94.3401 L -3.91934,-94.294
 L -4.03854,-94.2399 L -4.15398,-94.1783 L -4.26511,-94.1091 L -4.37149,-94.0329 L -4.47266,-93.9499 L -4.56818,-93.8604
 L -4.65765,-93.7649 L -4.74068,-93.6637 L -4.81691,-93.5573 L -4.88602,-93.4462 L -4.94771,-93.3308 L -5.00172,-93.2116
 L -5.04784,-93.0891 L -5.08582,-92.9638 L -5.11554,-92.8364 L -5.13686,-92.7073 L -5.14969,-92.577 L -5.15398,-92.4462
 L -5.14969,-92.3154 L -5.13686,-92.1852 L -5.11554,-92.056 L -5.08582,-91.9286 L -5.04784,-91.8033 L -5.00172,-91.6808
 L -4.94771,-91.5616 L -4.88602,-91.4462 L -4.81691,-91.3351 L -4.74068,-91.2287 L -4.65765,-91.1275 L -4.56818,-91.032
 L -4.47266,-90.9425 L -4.37149,-90.8595 L -4.26511,-90.7833 L -4.15398,-90.7142 L -4.03854,-90.6525 L -3.91934,-90.5985
 L -3.79684,-90.5524 L -3.6716,-90.5144 L -3.54414,-90.4846 L -3.41502,-90.4633 L -3.28477,-90.4505 L -3.15398,-90.4462
 L -3.02318,-90.4505 L -2.89293,-90.4633 L -2.76381,-90.4846 L -2.63635,-90.5144 L -2.51111,-90.5524 L -2.38861,-90.5985
 L -2.26941,-90.6525 L -2.15398,-90.7142 L -2.04285,-90.7833 L -1.93646,-90.8595 L -1.8353,-90.9425 L -1.73978,-91.032
 L -1.6503,-91.1275 L -1.56728,-91.2287 L -1.49104,-91.3351 L -1.42194,-91.4462 L -1.36024,-91.5616 L -1.30623,-91.6808
 L -1.26012,-91.8033 L -1.22214,-91.9286 L -1.19241,-92.056 L -1.1711,-92.1852 L -1.15826,-92.3154 L -1.15398,-92.4462
 z
M -1.50752,-92.3383 L -1.5181,-92.2309 L -1.53569,-92.1243 L -1.56021,-92.0192 L -1.59155,-91.9158 L -1.62958,-91.8148
 L -1.67415,-91.7164 L -1.72504,-91.6212 L -1.78206,-91.5295 L -1.84496,-91.4418 L -1.91345,-91.3583 L -1.98726,-91.2795
 L -2.06607,-91.2057 L -2.14952,-91.1372 L -2.23729,-91.0743 L -2.32898,-91.0173 L -2.42421,-90.9664 L -2.52255,-90.9218
 L -2.62361,-90.8838 L -2.72693,-90.8524 L -2.83209,-90.8279 L -2.93861,-90.8103 L -3.04607,-90.7998 L -3.15398,-90.7962
 L -3.26189,-90.7998 L -3.36934,-90.8103 L -3.47586,-90.8279 L -3.58102,-90.8524 L -3.68434,-90.8838 L -3.7854,-90.9218
 L -3.88374,-90.9664 L -3.97897,-91.0173 L -4.07066,-91.0743 L -4.15843,-91.1372 L -4.24188,-91.2057 L -4.32069,-91.2795
 L -4.3945,-91.3583 L -4.463,-91.4418 L -4.52589,-91.5295 L -4.58292,-91.6212 L -4.6338,-91.7164 L -4.67838,-91.8148
 L -4.7164,-91.9158 L -4.74774,-92.0192 L -4.77226,-92.1243 L -4.78986,-92.2309 L -4.80043,-92.3383 L -4.80397,-92.4462
 L -4.80043,-92.5541 L -4.78986,-92.6616 L -4.77226,-92.7681 L -4.74774,-92.8733 L -4.7164,-92.9766 L -4.67838,-93.0776
 L -4.6338,-93.176 L -4.58292,-93.2712 L -4.52589,-93.3629 L -4.463,-93.4507 L -4.3945,-93.5341 L -4.32069,-93.6129
 L -4.24188,-93.6867 L -4.15843,-93.7552 L -4.07066,-93.8181 L -3.97897,-93.8752 L -3.88374,-93.926 L -3.7854,-93.9706
 L -3.68434,-94.0086 L -3.58102,-94.04 L -3.47586,-94.0645 L -3.36934,-94.0821 L -3.26189,-94.0927 L -3.15398,-94.0962
 L -3.04607,-94.0927 L -2.93861,-94.0821 L -2.83209,-94.0645 L -2.72693,-94.04 L -2.62361,-94.0086 L -2.52255,-93.9706
 L -2.42421,-93.926 L -2.32898,-93.8752 L -2.23729,-93.8181 L -2.14952,-93.7552 L -2.06607,-93.6867 L -1.98726,-93.6129
 L -1.91345,-93.5341 L -1.84496,-93.4507 L -1.78206,-93.3629 L -1.72504,-93.2712 L -1.67415,-93.176 L -1.62958,-93.0776
 L -1.59155,-92.9766 L -1.56021,-92.8733 L -1.53569,-92.7681 L -1.5181,-92.6616 L -1.50752,-92.5541 L -1.50398,-92.4462
 z
M 86.4184,37.6722 L 86.4055,37.5419 L 86.3842,37.4128 L 86.3545,37.2854 L 86.3165,37.1601 L 86.2704,37.0376
 L 86.2164,36.9184 L 86.1547,36.803 L 86.0856,36.6918 L 86.0093,36.5855 L 85.9263,36.4843 L 85.8368,36.3888
 L 85.7413,36.2993 L 85.6402,36.2163 L 85.5338,36.14 L 85.4226,36.0709 L 85.3072,36.0092 L 85.188,35.9552
 L 85.0655,35.9091 L 84.9403,35.8711 L 84.8128,35.8414 L 84.6837,35.8201 L 84.5534,35.8073 L 84.4226,35.803
 L 84.2918,35.8073 L 84.1616,35.8201 L 84.0325,35.8414 L 83.905,35.8711 L 83.7798,35.9091 L 83.6573,35.9552
 L 83.5381,36.0092 L 83.4226,36.0709 L 83.3115,36.14 L 83.2051,36.2163 L 83.104,36.2993 L 83.0084,36.3888
 L 82.919,36.4843 L 82.8359,36.5855 L 82.7597,36.6918 L 82.6906,36.803 L 82.6289,36.9184 L 82.5749,37.0376
 L 82.5288,37.1601 L 82.4908,37.2854 L 82.4611,37.4128 L 82.4398,37.5419 L 82.4269,37.6722 L 82.4226,37.803
 L 82.4269,37.9338 L 82.4398,38.064 L 82.4611,38.1931 L 82.4908,38.3206 L 82.5288,38.4458 L 82.5749,38.5683
 L 82.6289,38.6875 L 82.6906,38.803 L 82.7597,38.9141 L 82.8359,39.0205 L 82.919,39.1217 L 83.0084,39.2172
 L 83.104,39.3067 L 83.2051,39.3897 L 83.3115,39.4659 L 83.4226,39.535 L 83.5381,39.5967 L 83.6573,39.6507
 L 83.7798,39.6968 L 83.905,39.7348 L 84.0325,39.7645 L 84.1616,39.7859 L 84.2918,39.7987 L 84.4226,39.803
 L 84.5534,39.7987 L 84.6837,39.7859 L 84.8128,39.7645 L 84.9403,39.7348 L 85.0655,39.6968 L 85.188,39.6507
 L 85.3072,39.5967 L 85.4226,39.535 L 85.5338,39.4659 L 85.6402,39.3897 L 85.7413,39.3067 L 85.8368,39.2172
 L 85.9263,39.1217 L 86.0093,39.0205 L 86.0856,38.9141 L 86.1547,38.803 L 86.2164,38.6875 L 86.2704,38.5683
 L 86.3165,38.4458 L 86.3545,38.3206 L 86.3842,38.1931 L 86.4055,38.064 L 86.4184,37.9338 L 86.4226,37.803
 z
M 86.0691,37.9109 L 86.0585,38.0183 L 86.0409,38.1249 L 86.0164,38.23 L 85.9851,38.3333 L 85.947,38.4344
 L 85.9025,38.5327 L 85.8516,38.628 L 85.7946,38.7197 L 85.7317,38.8074 L 85.6632,38.8909 L 85.5894,38.9697
 L 85.5105,39.0435 L 85.4271,39.112 L 85.3393,39.1749 L 85.2476,39.2319 L 85.1524,39.2828 L 85.0541,39.3274
 L 84.953,39.3654 L 84.8497,39.3967 L 84.7445,39.4213 L 84.638,39.4389 L 84.5305,39.4494 L 84.4226,39.453
 L 84.3147,39.4494 L 84.2073,39.4389 L 84.1008,39.4213 L 83.9956,39.3967 L 83.8923,39.3654 L 83.7912,39.3274
 L 83.6929,39.2828 L 83.5976,39.2319 L 83.506,39.1749 L 83.4182,39.112 L 83.3347,39.0435 L 83.2559,38.9697
 L 83.1821,38.8909 L 83.1136,38.8074 L 83.0507,38.7197 L 82.9937,38.628 L 82.9428,38.5327 L 82.8982,38.4344
 L 82.8602,38.3333 L 82.8289,38.23 L 82.8044,38.1249 L 82.7868,38.0183 L 82.7762,37.9109 L 82.7726,37.803
 L 82.7762,37.6951 L 82.7868,37.5876 L 82.8044,37.4811 L 82.8289,37.3759 L 82.8602,37.2726 L 82.8982,37.1716
 L 82.9428,37.0732 L 82.9937,36.978 L 83.0507,36.8863 L 83.1136,36.7985 L 83.1821,36.7151 L 83.2559,36.6363
 L 83.3347,36.5625 L 83.4182,36.494 L 83.506,36.4311 L 83.5976,36.374 L 83.6929,36.3232 L 83.7912,36.2786
 L 83.8923,36.2406 L 83.9956,36.2092 L 84.1008,36.1847 L 84.2073,36.1671 L 84.3147,36.1565 L 84.4226,36.153
 L 84.5305,36.1565 L 84.638,36.1671 L 84.7445,36.1847 L 84.8497,36.2092 L 84.953,36.2406 L 85.0541,36.2786
 L 85.1524,36.3232 L 85.2476,36.374 L 85.3393,36.4311 L 85.4271,36.494 L 85.5105,36.5625 L 85.5894,36.6363
 L 85.6632,36.7151 L 85.7317,36.7985 L 85.7946,36.8863 L 85.8516,36.978 L 85.9025,37.0732 L 85.947,37.1716
 L 85.9851,37.2726 L 86.0164,37.3759 L 86.0409,37.4811 L 86.0585,37.5876 L 86.0691,37.6951 L 86.0726,37.803
 z
M -98.8866,2.4369 L -98.8999,2.59756 L -98.922,2.75285 L -98.953,2.90277 L -98.9928,3.04733 L -99.0414,3.18652
 L -99.0989,3.32036 L -99.1653,3.44882 L -99.2405,3.57191 L -99.3246,3.68965 L -99.4174,3.80202 L -99.5192,3.90903
 L -99.5219,3.91154 L -99.6308,0.587631 L -99.5488,0.659821 L -99.4089,0.805786 L -99.2854,0.960022 L -99.1785,1.12251
 L -99.0879,1.29326 L -99.0139,1.47227 L -98.9563,1.65955 L -98.9151,1.85507 L -98.8904,2.05885 L -98.8822,2.27089
 z
M -98.8386,-3.37463 L -98.8503,-3.26509 L -98.8699,-3.16039 L -98.8972,-3.06055 L -98.9323,-2.96558 L -98.9753,-2.87544
 L -99.026,-2.79019 L -99.0846,-2.70979 L -99.151,-2.63425 L -99.2251,-2.56357 L -99.3071,-2.49774 L -99.3969,-2.43678
 L -99.4945,-2.38068 L -99.5733,-2.34233 L -99.4997,-4.59001 L -99.409,-4.5387 L -99.3173,-4.47749 L -99.2336,-4.41151
 L -99.1578,-4.34076 L -99.09,-4.26523 L -99.0302,-4.18492 L -98.9783,-4.09984 L -98.9344,-4.00998 L -98.8985,-3.91534
 L -98.8706,-3.81593 L -98.8507,-3.71176 L -98.8387,-3.6028 L -98.8347,-3.48906 z
M 84.4688,5.53636 L 83.9258,11.049 L 83.0235,16.5144 L 81.7656,21.909 L 80.1576,27.2098 L 78.2064,32.3941
 L 75.9203,37.4397 L 73.309,42.325 L 70.3839,47.029 L 67.1573,51.5316 L 63.6432,55.8136 L 59.8566,59.8566
 L 55.8136,63.6432 L 51.5316,67.1573 L 50.459,67.926 L 2.25185,2.80656 L 2.37364,2.70662 L 2.54558,2.54558
 L 2.70662,2.37364 L 2.85606,2.19153 L 2.99329,2.00005 L 3.11769,1.79999 L 3.22873,1.59222 L 3.32596,1.37766
 L 3.40894,1.15718 L 3.47733,0.931747 L 3.53082,0.702316 L 3.5692,0.469879 L 3.59229,0.235443 L 3.59427,0.174988
 L 8,0.174988 L 8,-0.174988 L 3.59427,-0.174988 L 3.59229,-0.235443 L 3.5692,-0.469879 L 3.53082,-0.702316
 L 3.47733,-0.931747 L 3.40894,-1.15718 L 3.32596,-1.37766 L 3.22873,-1.59222 L 3.11769,-1.79999 L 2.99329,-2.00005
 L 2.85606,-2.19153 L 2.70662,-2.37364 L 2.54558,-2.54558 L 2.37364,-2.70662 L 2.19153,-2.85606 L 2.00005,-2.99329
 L 1.79999,-3.11769 L 1.59222,-3.22873 L 1.37766,-3.32596 L 1.15718,-3.40894 L 0.931747,-3.47733 L 0.702316,-3.53082
 L 0.469879,-3.5692 L 0.235443,-3.59229 L 0.174988,-3.59427 L 0.174988,-8 L -0.174988,-8 L -0.174988,-3.59427
 L -0.235443,-3.59229 L -0.469879,-3.5692 L -0.702316,-3.53082 L -0.931747,-3.47733 L -1.15718,-3.40894 L -1.37766,-3.32596
 L -1.59222,-3.22873 L -1.79999,-3.11769 L -2.00005,-2.99329 L -2.19153,-2.85606 L -2.37364,-2.70662 L -2.54558,-2.54558
 L -2.70662,-2.37364 L -2.85606,-2.19153 L -2.99329,-2.00005 L -3.11769,-1.79999 L -3.22873,-1.59222 L -3.32596,-1.37766
 L -3.40894,-1.15718 L -3.47733,-0.931747 L -3.53082,-0.702316 L -3.5692,-0.469879 L -3.59229,-0.235443 L -3.59427,-0.174988
 L -8,-0.174988 L -8,0.174988 L -3.59427,0.174988 L -3.59229,0.235443 L -3.5692,0.469879 L -3.53082,0.702316
 L -3.47733,0.931747 L -3.40894,1.15718 L -3.32596,1.37766 L -3.22873,1.59222 L -3.11769,1.79999 L -2.99329,2.00005
 L -2.85606,2.19153 L -2.70662,2.37364 L -2.54558,2.54558 L -2.50694,2.58177 L -44.7268,52.4468 L -44.7459,52.4366
 L -44.8115,52.4068 L -44.8788,52.3815 L -44.9477,52.3606 L -45.0178,52.3443 L -45.0888,52.3325 L -45.1605,52.3255
 L -45.2324,52.3231 L -45.3043,52.3255 L -45.376,52.3325 L -45.447,52.3443 L -45.5171,52.3606 L -45.586,52.3815
 L -45.6534,52.4068 L -45.7189,52.4366 L -45.7824,52.4705 L -45.8435,52.5085 L -45.902,52.5504 L -45.9577,52.5961
 L -46.0102,52.6453 L -46.0594,52.6978 L -46.1051,52.7535 L -46.147,52.812 L -46.185,52.8731 L -46.219,52.9366
 L -46.2487,53.0022 L -46.274,53.0695 L -46.2949,53.1384 L -46.3113,53.2085 L -46.323,53.2795 L -46.33,53.3512
 L -46.3324,53.4231 L -46.33,53.495 L -46.323,53.5667 L -46.3113,53.6377 L -46.2949,53.7078 L -46.274,53.7767
 L -46.2487,53.8441 L -46.219,53.9096 L -46.185,53.9731 L -46.147,54.0342 L -46.1121,54.0829 L -50.11,58.8047
 L -50.2352,58.838 L -50.3879,58.8865 L -50.5321,58.9407 L -50.6678,59.0006 L -50.7951,59.0662 L -50.9139,59.1376
 L -51.024,59.2149 L -51.1254,59.2985 L -51.2179,59.3883 L -51.3016,59.4845 L -51.3765,59.5869 L -51.4426,59.6957
 L -51.4999,59.8107 L -51.5483,59.932 L -51.588,60.0596 L -51.6188,60.1935 L -51.6409,60.3336 L -51.6541,60.48
 L -51.6585,60.6328 L -51.6584,60.6336 L -54.8655,64.4214 L -55.8136,63.6432 L -59.8566,59.8566 L -63.6432,55.8136
 L -67.1573,51.5316 L -70.3839,47.029 L -73.309,42.325 L -75.9203,37.4397 L -78.2064,32.3941 L -80.1576,27.2098
 L -81.7656,21.909 L -83.0235,16.5144 L -83.9258,11.049 L -84.4688,5.53636 L -84.65,-0 L -84.4688,-5.53636
 L -83.9258,-11.049 L -83.0235,-16.5144 L -81.7656,-21.909 L -80.1576,-27.2098 L -78.2064,-32.3941 L -75.9203,-37.4397
 L -73.309,-42.325 L -70.3839,-47.029 L -67.1573,-51.5316 L -63.6432,-55.8136 L -59.8566,-59.8566 L -55.8136,-63.6432
 L -51.5316,-67.1573 L -47.029,-70.3839 L -42.325,-73.309 L -37.4397,-75.9203 L -32.3941,-78.2064 L -27.2098,-80.1576
 L -21.909,-81.7656 L -16.5144,-83.0235 L -11.049,-83.9258 L -5.53636,-84.4688 L 0,-84.65 L 5.53636,-84.4688
 L 11.049,-83.9258 L 16.5144,-83.0235 L 21.909,-81.7656 L 27.2098,-80.1576 L 32.3941,-78.2064 L 37.4397,-75.9203
 L 42.325,-73.309 L 47.029,-70.3839 L 51.5316,-67.1573 L 55.8136,-63.6432 L 59.8566,-59.8566 L 63.6432,-55.8136
 L 67.1573,-51.5316 L 70.3839,-47.029 L 73.309,-42.325 L 75.9203,-37.4397 L 78.2064,-32.3941 L 80.1576,-27.2098
 L 81.7656,-21.909 L 83.0235,-16.5144 L 83.9258,-11.049 L 84.4688,-5.53636 L 84.65,-0 z
M 0,84.65 L -5.53636,84.4688 L -11.049,83.9258 L -16.5144,83.0235 L -21.909,81.7656 L -27.2098,80.1576
 L -32.3941,78.2064 L -37.4397,75.9203 L -42.325,73.309 L -47.029,70.3839 L -50.1358,68.1576 L -45.8402,68.1576
 L -45.8402,67.4659 L -49.6485,67.4659 L -50.328,67.4863 L -50.7227,67.5066 L -45.8402,64.4388 L -45.8402,63.503
 L -51.573,63.503 L -51.573,64.2028 L -47.8135,64.2028 L -47.7558,64.2025 L -47.6929,64.2017 L -47.6249,64.2002
 L -47.5516,64.1982 L -47.4731,64.1956 L -47.3894,64.1924 L -47.3005,64.1886 L -47.2064,64.1843 L -47.1071,64.1794
 L -47.0027,64.1739 L -46.893,64.1678 L -46.7781,64.1612 L -46.658,64.154 L -51.479,67.1951 L -51.5316,67.1573
 L -54.4866,64.7323 L -51.569,61.2863 L -51.5495,61.3512 L -51.5016,61.4751 L -51.445,61.5923 L -51.3796,61.7029
 L -51.3055,61.8068 L -51.2227,61.9042 L -51.1312,61.9949 L -51.031,62.079 L -50.922,62.1565 L -50.8044,62.2278
 L -50.6779,62.2935 L -50.5427,62.3534 L -50.3987,62.4076 L -50.246,62.4561 L -50.0845,62.4989 L -49.9142,62.536
 L -49.7352,62.5674 L -49.5474,62.593 L -49.3509,62.613 L -49.1456,62.6273 L -48.9315,62.6358 L -48.7086,62.6387
 L -48.4905,62.6357 L -48.2806,62.6269 L -48.0788,62.6122 L -47.8853,62.5917 L -47.6999,62.5652 L -47.5227,62.5329
 L -47.3537,62.4948 L -47.1928,62.4507 L -47.0402,62.4008 L -46.8958,62.345 L -46.7595,62.2833 L -46.6314,62.2157
 L -46.5115,62.1423 L -46.4002,62.063 L -46.2977,61.9779 L -46.2042,61.887 L -46.1196,61.7902 L -46.0439,61.6876
 L -45.9771,61.5792 L -45.9192,61.465 L -45.8702,61.3449 L -45.8301,61.219 L -45.7989,61.0873 L -45.7766,60.9498
 L -45.7633,60.8064 L -45.7588,60.6572 L -45.7633,60.5079 L -45.7767,60.3644 L -45.7991,60.2265 L -45.8305,60.0944
 L -45.8708,59.968 L -45.92,59.8473 L -45.9782,59.7322 L -46.0454,59.6229 L -46.1215,59.5193 L -46.2066,59.4214
 L -46.3007,59.3292 L -46.4036,59.2428 L -46.5156,59.162 L -46.636,59.087 L -46.7645,59.0181 L -46.9011,58.9551
 L -47.0456,58.8982 L -47.1983,58.8472 L -47.3589,58.8023 L -47.5276,58.7633 L -47.7043,58.7303 L -47.8891,58.7034
 L -48.0819,58.6824 L -48.2828,58.6674 L -48.4917,58.6584 L -48.7086,58.6554 L -48.9291,58.6582 L -49.1411,58.6668
 L -49.3447,58.6811 L -49.365,58.6832 L -45.738,54.3994 L -45.7189,54.4097 L -45.6534,54.4394 L -45.586,54.4647
 L -45.5171,54.4856 L -45.447,54.502 L -45.376,54.5137 L -45.3043,54.5208 L -45.2324,54.5231 L -45.1605,54.5208
 L -45.0888,54.5137 L -45.0178,54.502 L -44.9477,54.4856 L -44.8788,54.4647 L -44.8115,54.4394 L -44.7459,54.4097
 L -44.6824,54.3757 L -44.6213,54.3377 L -44.5628,54.2958 L -44.5071,54.2501 L -44.4546,54.2009 L -44.4054,54.1484
 L -44.3597,54.0927 L -44.3178,54.0342 L -44.2798,53.9731 L -44.2458,53.9096 L -44.2161,53.8441 L -44.1908,53.7767
 L -44.1699,53.7078 L -44.1535,53.6377 L -44.1418,53.5667 L -44.1348,53.495 L -44.1324,53.4231 L -44.1348,53.3512
 L -44.1418,53.2795 L -44.1535,53.2085 L -44.1699,53.1384 L -44.1908,53.0695 L -44.2161,53.0022 L -44.2458,52.9366
 L -44.2798,52.8731 L -44.3178,52.812 L -44.3527,52.7633 L -2.1328,2.89815 L -2.00005,2.99329 L -1.79999,3.11769
 L -1.59222,3.22873 L -1.37766,3.32596 L -1.15718,3.40894 L -0.931747,3.47733 L -0.702316,3.53082 L -0.469879,3.5692
 L -0.235443,3.59229 L -0.174988,3.59427 L -0.174988,8 L 0.174988,8 L 0.174988,7.18262 L 3.56854,84.5332
 z
M -46.3602,60.7471 L -46.3703,60.841 L -46.387,60.9308 L -46.4104,61.0164 L -46.4406,61.0978 L -46.4774,61.175
 L -46.5209,61.2481 L -46.5711,61.317 L -46.628,61.3818 L -46.6915,61.4424 L -46.7618,61.4988 L -46.8388,61.551
 L -46.9225,61.5991 L -47.0133,61.6434 L -47.112,61.6841 L -47.2184,61.7212 L -47.3325,61.7548 L -47.4544,61.7849
 L -47.5841,61.8114 L -47.7215,61.8345 L -47.8666,61.8539 L -48.0195,61.8698 L -48.1802,61.8822 L -48.3486,61.8911
 L -48.5247,61.8964 L -48.7086,61.8981 L -48.8979,61.8964 L -49.0787,61.8912 L -49.2512,61.8824 L -49.4153,61.8702
 L -49.571,61.8545 L -49.7184,61.8353 L -49.8573,61.8126 L -49.9879,61.7865 L -50.1101,61.7568 L -50.2239,61.7236
 L -50.3294,61.687 L -50.4264,61.6468 L -50.5151,61.6032 L -50.5964,61.5556 L -50.6711,61.5034 L -50.7394,61.4468
 L -50.8011,61.3856 L -50.8564,61.32 L -50.9052,61.2498 L -50.9474,61.1752 L -50.9832,61.096 L -51.0124,61.0124
 L -51.0352,60.9242 L -51.0514,60.8316 L -51.0612,60.7344 L -51.0627,60.6882 L -50.0855,59.5342 L -49.9771,59.5086
 L -49.8469,59.4831 L -49.7085,59.461 L -49.5621,59.4424 L -49.4076,59.4271 L -49.245,59.4152 L -49.0743,59.4067
 L -48.8955,59.4016 L -48.7086,59.3999 L -48.5283,59.4017 L -48.3552,59.4071 L -48.1895,59.416 L -48.0311,59.4284
 L -47.88,59.4445 L -47.7362,59.4641 L -47.5997,59.4872 L -47.4706,59.5139 L -47.3488,59.5442 L -47.2343,59.5781
 L -47.1271,59.6155 L -47.0272,59.6565 L -46.9346,59.701 L -46.8492,59.7494 L -46.7705,59.8018 L -46.6988,59.8584
 L -46.6338,59.919 L -46.5757,59.9838 L -46.5244,60.0526 L -46.48,60.1255 L -46.4424,60.2026 L -46.4116,60.2837
 L -46.3877,60.3689 L -46.3706,60.4582 L -46.3603,60.5516 L -46.3569,60.6491 z
M -45.8773,53.8056 L -45.8819,53.7981 L -45.9051,53.7548 L -45.9253,53.7101 L -45.9426,53.6642 L -45.9568,53.6172
 L -45.968,53.5694 L -45.976,53.521 L -45.9808,53.4722 L -45.9824,53.4231 L -45.9808,53.3741 L -45.976,53.3252
 L -45.968,53.2768 L -45.9568,53.229 L -45.9426,53.182 L -45.9253,53.1361 L -45.9051,53.0914 L -45.8819,53.0481
 L -45.856,53.0064 L -45.8274,52.9666 L -45.7963,52.9286 L -45.7627,52.8928 L -45.7269,52.8592 L -45.689,52.8281
 L -45.6491,52.7995 L -45.6074,52.7736 L -45.5641,52.7505 L -45.5194,52.7302 L -45.4735,52.7129 L -45.4265,52.6987
 L -45.3787,52.6875 L -45.3303,52.6795 L -45.2814,52.6747 L -45.2324,52.6731 L -45.1834,52.6747 L -45.1345,52.6795
 L -45.0861,52.6875 L -45.0383,52.6987 L -44.9913,52.7129 L -44.9616,52.7241 z
M -44.484,53.4722 L -44.4888,53.521 L -44.4968,53.5694 L -44.508,53.6172 L -44.5222,53.6642 L -44.5395,53.7101
 L -44.5598,53.7548 L -44.5829,53.7981 L -44.6088,53.8398 L -44.6374,53.8797 L -44.6685,53.9176 L -44.7021,53.9534
 L -44.7379,53.987 L -44.7758,54.0181 L -44.8157,54.0467 L -44.8574,54.0726 L -44.9007,54.0958 L -44.9454,54.116
 L -44.9913,54.1333 L -45.0383,54.1476 L -45.0861,54.1587 L -45.1345,54.1667 L -45.1834,54.1715 L -45.2324,54.1731
 L -45.2814,54.1715 L -45.3303,54.1667 L -45.3787,54.1587 L -45.4265,54.1476 L -45.4735,54.1333 L -45.5032,54.1221
 L -44.5876,53.0406 L -44.5829,53.0481 L -44.5598,53.0914 L -44.5395,53.1361 L -44.5222,53.182 L -44.508,53.229
 L -44.4968,53.2768 L -44.4888,53.3252 L -44.484,53.3741 L -44.4824,53.4231 z
M -15.2199,96.6075 L -15.2409,96.7856 L -15.276,96.9505 L -15.3252,97.1022 L -15.3884,97.2407 L -15.4656,97.366
 L -15.5569,97.4781 L -15.6622,97.577 L -15.7816,97.6627 L -15.915,97.7352 L -16.0625,97.7945 L -16.224,97.8406
 L -16.3996,97.8734 L -16.3658,98.2429 L -19.4408,97.7352 L -20.2057,97.5569 L -20.2501,97.5229 L -20.3017,97.4779
 L -20.3505,97.4294 L -20.3964,97.3774 L -20.4392,97.3225 L -20.4787,97.265 L -20.5146,97.2049 L -20.5472,97.1423
 L -20.5763,97.0771 L -20.602,97.0094 L -20.6243,96.9391 L -20.6432,96.8662 L -20.6586,96.7908 L -20.6706,96.7129
 L -20.6791,96.6324 L -20.6843,96.5493 L -20.686,96.4637 L -20.6842,96.3698 L -20.6786,96.2796 L -20.6694,96.193
 L -20.6566,96.11 L -20.64,96.0306 L -20.6198,95.9549 L -20.5958,95.8828 L -20.5682,95.8143 L -20.537,95.7494
 L -20.502,95.6882 L -20.4634,95.6306 L -20.4211,95.5766 L -20.3751,95.5262 L -20.3259,95.4795 L -20.274,95.4365
 L -20.2195,95.3973 L -20.1624,95.3618 L -20.1025,95.3301 L -20.04,95.302 L -19.9748,95.2778 L -19.907,95.2572
 L -19.8365,95.2404 L -19.7633,95.2273 L -19.6874,95.218 L -19.6089,95.2124 L -19.5277,95.2105 L -19.4458,95.2128
 L -19.3668,95.2197 L -19.2905,95.2311 L -19.217,95.2471 L -19.1462,95.2677 L -19.0783,95.2929 L -19.0131,95.3227
 L -18.9507,95.357 L -18.8911,95.3959 L -18.8342,95.4394 L -18.7802,95.4875 L -18.7289,95.5402 L -18.6804,95.5974
 L -18.6351,95.6588 L -18.5935,95.7239 L -18.5554,95.7927 L -18.521,95.8653 L -18.4902,95.9417 L -18.463,96.0217
 L -18.4395,96.1055 L -18.4195,96.193 L -18.4032,96.2843 L -18.3905,96.3793 L -18.3815,96.478 L -18.3761,96.5805
 L -18.3742,96.6867 L -18.3742,97.152 L -17.6337,97.152 L -17.6337,96.6678 L -17.6319,96.548 L -17.6265,96.4327
 L -17.6174,96.3217 L -17.6047,96.2152 L -17.5884,96.1131 L -17.5685,96.0154 L -17.545,95.9221 L -17.5178,95.8332
 L -17.487,95.7487 L -17.4526,95.6687 L -17.4145,95.593 L -17.3728,95.5218 L -17.3275,95.4549 L -17.279,95.3928
 L -17.2277,95.3356 L -17.1735,95.2834 L -17.1164,95.2362 L -17.0566,95.194 L -16.9939,95.1567 L -16.9283,95.1244
 L -16.8599,95.097 L -16.7887,95.0746 L -16.7147,95.0573 L -16.6378,95.0448 L -16.5581,95.0374 L -16.4755,95.0349
 L -16.3809,95.037 L -16.29,95.0436 L -16.2028,95.0545 L -16.1191,95.0697 L -16.0392,95.0893 L -15.9628,95.1133
 L -15.8902,95.1416 L -15.8212,95.1742 L -15.7558,95.2112 L -15.6941,95.2526 L -15.636,95.2983 L -15.5816,95.3484
 L -15.5309,95.4028 L -15.4838,95.461 L -15.4405,95.5226 L -15.401,95.5874 L -15.3653,95.6555 L -15.3333,95.7268
 L -15.3051,95.8015 L -15.2806,95.8795 L -15.2599,95.9607 L -15.243,96.0452 L -15.2298,96.133 L -15.2204,96.2241
 L -15.2147,96.3185 L -15.2128,96.4162 z
M -0.847458,-99.0041 L -0.860718,-98.8434 L -0.882843,-98.6881 L -0.913803,-98.5382 L -0.953613,-98.3936 L -1.00227,-98.2545
 L -1.05978,-98.1206 L -1.12614,-97.9922 L -1.20134,-97.8691 L -1.2854,-97.7513 L -1.3783,-97.639 L -1.48004,-97.532
 L -1.59062,-97.4303 L -1.70851,-97.3352 L -1.83209,-97.2476 L -1.96136,-97.1677 L -2.09634,-97.0954 L -2.23703,-97.0307
 L -2.38342,-96.9736 L -2.53551,-96.9241 L -2.6933,-96.8823 L -2.8568,-96.848 L -3.02599,-96.8214 L -3.20088,-96.8024
 L -3.38148,-96.791 L -3.56776,-96.7872 L -3.75597,-96.7908 L -3.93791,-96.8018 L -4.11359,-96.82 L -4.28299,-96.8456
 L -4.44614,-96.8784 L -4.60303,-96.9186 L -4.75365,-96.966 L -4.89799,-97.0208 L -5.03609,-97.0829 L -5.16791,-97.1523
 L -5.29347,-97.2289 L -5.41277,-97.3129 L -5.5258,-97.4042 L -5.63148,-97.5021 L -5.72871,-97.6058 L -5.81749,-97.7153
 L -5.89781,-97.8307 L -5.96968,-97.9519 L -6.03308,-98.079 L -6.08804,-98.2119 L -6.13454,-98.3507 L -6.17259,-98.4953
 L -6.20218,-98.6458 L -6.22331,-98.802 L -6.23599,-98.9642 L -6.24022,-99.1321 L -6.2384,-99.2398 L -6.23293,-99.3452
 L -6.22397,-99.4462 L -0.883347,-99.6211 L -0.875946,-99.5859 L -0.851257,-99.3821 L -0.843033,-99.1701 z
M -2.28062,2.31447 L -2.2981,2.2981 L -2.44347,2.14287 L -2.57838,1.97847 L -2.70227,1.8056 L -2.81458,1.625
 L -2.91483,1.43742 L -3.00259,1.24371 L -3.07751,1.04468 L -3.13925,0.841156 L -3.18755,0.634033 L -3.22218,0.42421
 L -3.24303,0.212555 L -3.24426,0.174988 L -0.469162,0.174988 z
M -0.174988,-0.174988 L -3.24426,-0.174988 L -3.24303,-0.212555 L -3.22218,-0.42421 L -3.18755,-0.634033 L -3.13925,-0.841156
 L -3.07751,-1.04468 L -3.00259,-1.24371 L -2.91483,-1.43742 L -2.81458,-1.625 L -2.70227,-1.8056 L -2.57838,-1.97847
 L -2.44347,-2.14287 L -2.2981,-2.2981 L -2.14287,-2.44347 L -1.97847,-2.57838 L -1.8056,-2.70227 L -1.625,-2.81458
 L -1.43742,-2.91483 L -1.24371,-3.00259 L -1.04468,-3.07751 L -0.841156,-3.13925 L -0.634033,-3.18755 L -0.42421,-3.22218
 L -0.212555,-3.24303 L -0.174988,-3.24426 z
M -0.174988,3.24426 L -0.212555,3.24303 L -0.42421,3.22218 L -0.634033,3.18755 L -0.841156,3.13925 L -1.04468,3.07751
 L -1.24371,3.00259 L -1.43742,2.91483 L -1.625,2.81458 L -1.8056,2.70227 L -1.90602,2.63029 L -0.174988,0.5858
 z
M 1.8056,2.70227 L 1.625,2.81458 L 1.43742,2.91483 L 1.24371,3.00259 L 1.04468,3.07751 L 0.841156,3.13925
 L 0.634033,3.18755 L 0.42421,3.22218 L 0.282104,3.23618 L 0.174988,0.794495 L 0.174988,0.471664 L 1.81911,2.6926
 z
M 0.174988,-0.174988 L 0.174988,-3.24426 L 0.212555,-3.24303 L 0.42421,-3.22218 L 0.634033,-3.18755 L 0.841156,-3.13925
 L 1.04468,-3.07751 L 1.24371,-3.00259 L 1.43742,-2.91483 L 1.625,-2.81458 L 1.8056,-2.70227 L 1.97847,-2.57838
 L 2.14287,-2.44347 L 2.2981,-2.2981 L 2.44347,-2.14287 L 2.57838,-1.97847 L 2.70227,-1.8056 L 2.81458,-1.625
 L 2.91483,-1.43742 L 3.00259,-1.24371 L 3.07751,-1.04468 L 3.13925,-0.841156 L 3.18755,-0.634033 L 3.22218,-0.42421
 L 3.24303,-0.212555 L 3.24426,-0.174988 z
M 47.029,70.3839 L 42.325,73.309 L 37.4397,75.9203 L 32.3941,78.2064 L 27.2098,80.1576 L 21.909,81.7656
 L 16.5144,83.0235 L 11.049,83.9258 L 5.53636,84.4688 L 3.84842,84.524 L 0.29747,3.58618 L 0.469879,3.5692
 L 0.702316,3.53082 L 0.931747,3.47733 L 1.15718,3.40894 L 1.37766,3.32596 L 1.59222,3.22873 L 1.79999,3.11769
 L 2.00005,2.99329 L 2.02727,2.97377 L 50.2314,68.0891 z
M 3.24303,0.212555 L 3.22218,0.42421 L 3.18755,0.634033 L 3.13925,0.841156 L 3.07751,1.04468 L 3.00259,1.24371
 L 2.91483,1.43742 L 2.81458,1.625 L 2.70227,1.8056 L 2.57838,1.97847 L 2.44347,2.14287 L 2.2981,2.2981
 L 2.14287,2.44347 L 2.04346,2.52505 L 0.303726,0.174988 L 3.24426,0.174988 z
M 7.90396,120.058 L 7.88696,120.231 L 7.85872,120.402 L 7.81934,120.571 L 7.769,120.736 L 7.70792,120.899
 L 7.63635,121.057 L 7.5546,121.21 L 7.46303,121.357 L 7.36201,121.498 L 7.25201,121.632 L 7.13347,121.758
 L 7.0069,121.877 L 6.87285,121.987 L 6.7319,122.088 L 6.58464,122.18 L 6.4317,122.261 L 6.27374,122.333
 L 6.11145,122.394 L 5.94551,122.444 L 5.77663,122.484 L 5.60553,122.512 L 5.43295,122.529 L 5.25964,122.535
 L 5.08633,122.529 L 4.91376,122.512 L 4.74266,122.484 L 4.57378,122.444 L 4.40784,122.394 L 4.24554,122.333
 L 4.08759,122.261 L 3.93465,122.18 L 3.78738,122.088 L 3.64644,121.987 L 3.51239,121.877 L 3.38582,121.758
 L 3.26727,121.632 L 3.15727,121.498 L 3.05626,121.357 L 2.96469,121.21 L 2.88293,121.057 L 2.81137,120.899
 L 2.75029,120.736 L 2.69995,120.571 L 2.66057,120.402 L 2.63232,120.231 L 2.61533,120.058 L 2.60965,119.885
 L 2.61533,119.711 L 2.63232,119.539 L 2.66057,119.368 L 2.69995,119.199 L 2.75029,119.033 L 2.81137,118.871
 L 2.88293,118.713 L 2.96469,118.56 L 3.05626,118.412 L 3.15727,118.271 L 3.26727,118.137 L 3.38582,118.011
 L 3.51239,117.892 L 3.64644,117.782 L 3.78738,117.681 L 3.93465,117.59 L 4.08759,117.508 L 4.24554,117.436
 L 4.40784,117.375 L 4.57378,117.325 L 4.74266,117.286 L 4.91376,117.257 L 5.00385,117.248 L 5.11977,119.891
 L 5.39951,119.879 L 5.28355,117.235 L 5.43295,117.24 L 5.60553,117.257 L 5.77663,117.286 L 5.94551,117.325
 L 6.11145,117.375 L 6.27374,117.436 L 6.4317,117.508 L 6.58464,117.59 L 6.7319,117.681 L 6.87285,117.782
 L 7.0069,117.892 L 7.13347,118.011 L 7.25201,118.137 L 7.36201,118.271 L 7.46303,118.412 L 7.5546,118.56
 L 7.63635,118.713 L 7.70792,118.871 L 7.769,119.033 L 7.81934,119.199 L 7.85872,119.368 L 7.88696,119.539
 L 7.90396,119.711 L 7.90964,119.885 z
M 55.3626,82.8559 L 49.825,86.2994 L 44.0741,89.3734 L 38.1344,92.0646 L 32.0314,94.3616 L 25.7913,96.2545
 L 19.4408,97.7352 L 13.0069,98.7975 L 6.51741,99.4366 L 4.50555,99.5025 L 3.86375,84.8735 L 5.55927,84.818
 L 11.0947,84.2728 L 16.5827,83.3667 L 21.9996,82.1037 L 27.3223,80.4891 L 32.5281,78.5298 L 37.5945,76.2342
 L 42.5,73.6122 L 47.2235,70.6749 L 50.4395,68.3703 L 59.1525,80.1401 z
M 74.0434,96.621 L 74.0264,96.7936 L 73.9982,96.9647 L 73.9588,97.1336 L 73.9084,97.2995 L 73.8474,97.4618
 L 73.7758,97.6198 L 73.694,97.7727 L 73.6025,97.92 L 73.5015,98.0609 L 73.3915,98.195 L 73.2729,98.3216
 L 73.1463,98.4401 L 73.0123,98.5501 L 72.8714,98.6511 L 72.7241,98.7427 L 72.5712,98.8244 L 72.4132,98.896
 L 72.2509,98.9571 L 72.085,99.0074 L 71.9161,99.0468 L 71.745,99.0751 L 71.5724,99.0921 L 71.3991,99.0977
 L 71.2258,99.0921 L 71.0532,99.0751 L 70.8821,99.0468 L 70.7132,99.0074 L 70.5473,98.9571 L 70.385,98.896
 L 70.227,98.8244 L 70.0741,98.7427 L 69.9268,98.6511 L 69.7859,98.5501 L 69.6518,98.4401 L 69.5253,98.3216
 L 69.4067,98.195 L 69.2967,98.0609 L 69.1957,97.92 L 69.1041,97.7727 L 69.0224,97.6198 L 68.9508,97.4618
 L 68.8897,97.2995 L 68.8394,97.1336 L 68.8,96.9647 L 68.7718,96.7936 L 68.7548,96.621 L 68.7491,96.4477
 L 68.7548,96.2744 L 68.7718,96.1019 L 68.8,95.9308 L 68.8394,95.7619 L 68.8897,95.5959 L 68.9508,95.4336
 L 69.0224,95.2757 L 69.1041,95.1227 L 69.1957,94.9755 L 69.2967,94.8345 L 69.4067,94.7005 L 69.5253,94.5739
 L 69.6518,94.4554 L 69.7129,94.4053 L 71.2866,96.531 L 71.5116,96.3644 L 69.9373,94.2378 L 70.0741,94.1528
 L 70.227,94.071 L 70.385,93.9995 L 70.5473,93.9384 L 70.7132,93.888 L 70.8821,93.8487 L 71.0532,93.8204
 L 71.2258,93.8034 L 71.3991,93.7977 L 71.5724,93.8034 L 71.745,93.8204 L 71.9161,93.8487 L 72.085,93.888
 L 72.2509,93.9384 L 72.4132,93.9995 L 72.5712,94.071 L 72.7241,94.1528 L 72.8714,94.2444 L 73.0123,94.3454
 L 73.1463,94.4554 L 73.2729,94.5739 L 73.3915,94.7005 L 73.5015,94.8345 L 73.6025,94.9755 L 73.694,95.1227
 L 73.7758,95.2757 L 73.8474,95.4336 L 73.9084,95.5959 L 73.9588,95.7619 L 73.9982,95.9308 L 74.0264,96.1019
 L 74.0434,96.2744 L 74.0491,96.4477 z
" stroke="black" fill="lightgray" stroke-width="0.5"/>
</svg>
