<?xml version="1.0" standalone="no"?>
<!DOCTYPE svg PUBLIC "-//W3C//DTD SVG 1.1//EN" "http://www.w3.org/Graphics/SVG/1.1/DTD/svg11.dtd">
<svg width="211mm" height="298mm" viewBox="-106 -149 211 298" xmlns="http://www.w3.org/2000/svg" version="1.1">
<title>OpenSCAD Model</title>
<path d="
M -105,-148.5 L -105,-3.85008 L -105.009,-3.75961 L -105.017,-3.61275 L -105.02,-3.46057 L -105.017,-3.32088
 L -105.009,-3.18515 L -105,-3.09799 L -105,1.87318 L -105.01,1.99803 L -105.017,2.15611 L -105.02,2.31834
 L -105.015,2.54958 L -105,2.75134 L -105,148.5 L 105,148.5 L 105,-148.5 z
M 104.65,148.15 L -104.65,148.15 L -104.65,3.99696 L -104.585,4.11624 L -104.483,4.27667 L -104.371,4.42926
 L -104.247,4.57396 L -104.113,4.71082 L -103.97,4.83861 L -103.818,4.95618 L -103.658,5.06352 L -103.49,5.16063
 L -103.313,5.24753 L -103.129,5.3242 L -102.936,5.39066 L -102.735,5.44688 L -102.526,5.49289 L -102.308,5.52867
 L -102.083,5.55423 L -101.849,5.56956 L -101.607,5.57468 L -101.444,5.57239 L -101.285,5.56552 L -101.129,5.55408
 L -100.977,5.53806 L -100.828,5.51746 L -100.682,5.49228 L -100.54,5.46252 L -100.401,5.42819 L -100.266,5.38928
 L -100.134,5.34579 L -100.005,5.29773 L -99.8799,5.24509 L -99.8291,5.22124 L -99.7859,6.5403 L -99.1445,13.0526
 L -98.0785,19.509 L -96.5926,25.8819 L -94.693,32.1439 L -92.3879,38.2683 L -89.6873,44.2289 L -86.6025,50
 L -83.147,55.557 L -79.3353,60.8761 L -75.184,65.9346 L -70.7107,70.7107 L -65.9346,75.184 L -60.8761,79.3353
 L -55.557,83.147 L -50,86.6025 L -44.2289,89.6873 L -38.2683,92.3879 L -32.1439,94.693 L -27.8672,95.9903
 L -27.8651,95.9959 L -27.8174,96.1039 L -27.764,96.2079 L -27.705,96.308 L -27.6404,96.4042 L -27.5701,96.4963
 L -27.4952,96.5836 L -27.4163,96.6651 L -27.3336,96.7408 L -27.247,96.8106 L -27.1566,96.8746 L -27.0622,96.9328
 L -26.964,96.9852 L -26.8619,97.0318 L -26.7559,97.0726 L -26.6461,97.1075 L -26.5323,97.1367 L -26.4147,97.16
 L -26.2933,97.1775 L -26.2295,96.4871 L -25.8819,96.5926 L -19.509,98.0785 L -13.0526,99.1445 L -6.5403,99.7859
 L 0,100 L 6.5403,99.7859 L 13.0526,99.1445 L 19.509,98.0785 L 25.8819,96.5926 L 32.1439,94.693
 L 38.2683,92.3879 L 44.2289,89.6873 L 50,86.6025 L 55.557,83.147 L 60.8761,79.3353 L 65.9346,75.184
 L 70.7107,70.7107 L 75.184,65.9346 L 79.3353,60.8761 L 83.147,55.557 L 86.6025,50 L 89.6873,44.2289
 L 92.3879,38.2683 L 94.693,32.1439 L 96.5926,25.8819 L 98.0785,19.509 L 99.1445,13.0526 L 99.7859,6.5403
 L 100,-0 L 99.7859,-6.5403 L 99.1445,-13.0526 L 98.7061,-15.7081 L 98.8985,-15.6954 L 99.1405,-15.6903
 L 99.3031,-15.6926 L 99.4623,-15.6995 L 99.6181,-15.7109 L 99.7706,-15.727 L 99.9196,-15.7476 L 100.065,-15.7727
 L 100.207,-15.8025 L 100.346,-15.8368 L 100.482,-15.8757 L 100.614,-15.9192 L 100.742,-15.9673 L 100.868,-16.0199
 L 100.989,-16.0771 L 101.107,-16.1387 L 101.221,-16.2045 L 101.331,-16.2744 L 101.436,-16.3485 L 101.537,-16.4267
 L 101.633,-16.5091 L 101.726,-16.5956 L 101.814,-16.6863 L 101.898,-16.7812 L 101.977,-16.8802 L 102.053,-16.9834
 L 102.124,-17.0907 L 102.19,-17.2022 L 102.253,-17.3174 L 102.31,-17.4358 L 102.362,-17.5574 L 102.409,-17.6823
 L 102.451,-17.8104 L 102.489,-17.9417 L 102.521,-18.0763 L 102.548,-18.2141 L 102.571,-18.3551 L 102.588,-18.4993
 L 102.6,-18.6468 L 102.608,-18.7975 L 102.61,-18.9514 L 102.608,-19.1019 L 102.6,-19.2495 L 102.586,-19.3944
 L 102.568,-19.5363 L 102.544,-19.6755 L 102.514,-19.8118 L 102.48,-19.9452 L 102.44,-20.0758 L 102.394,-20.2036
 L 102.344,-20.3286 L 102.288,-20.4507 L 102.226,-20.5699 L 102.16,-20.6864 L 102.088,-20.7994 L 102.011,-20.9085
 L 101.929,-21.0136 L 101.843,-21.1148 L 101.752,-21.212 L 101.655,-21.3052 L 101.554,-21.3945 L 101.448,-21.4798
 L 101.337,-21.5612 L 101.221,-21.6385 L 101.101,-21.712 L 100.975,-21.7814 L 100.845,-21.847 L 100.474,-21.1065
 L 100.68,-20.9936 L 100.869,-20.8724 L 101.042,-20.7429 L 101.199,-20.6052 L 101.339,-20.4592 L 101.462,-20.305
 L 101.569,-20.1425 L 101.659,-19.9718 L 101.734,-19.7927 L 101.791,-19.6055 L 101.832,-19.4099 L 101.857,-19.2062
 L 101.865,-18.9941 L 101.861,-18.8281 L 101.848,-18.6674 L 101.825,-18.5122 L 101.794,-18.3622 L 101.755,-18.2177
 L 101.706,-18.0785 L 101.648,-17.9447 L 101.582,-17.8162 L 101.507,-17.6931 L 101.423,-17.5754 L 101.33,-17.463
 L 101.228,-17.356 L 101.118,-17.2543 L 101,-17.1592 L 100.876,-17.0717 L 100.747,-16.9917 L 100.612,-16.9194
 L 100.471,-16.8548 L 100.325,-16.7977 L 100.173,-16.7482 L 100.015,-16.7063 L 99.8515,-16.6721 L 99.6823,-16.6454
 L 99.5074,-16.6264 L 99.3268,-16.615 L 99.1405,-16.6112 L 98.9523,-16.6148 L 98.7703,-16.6258 L 98.5947,-16.644
 L 98.5504,-16.6507 L 98.0785,-19.509 L 97.2673,-22.9883 L 97.7212,-22.9883 L 97.0471,-23.9326 L 96.9153,-24.4977
 L 101.789,-24.4977 L 101.789,-22.7937 L 102.516,-22.7937 L 102.516,-26.9851 L 101.789,-26.9851 L 101.789,-25.357
 L 96.715,-25.357 L 96.5926,-25.8819 L 94.693,-32.1439 L 92.3879,-38.2683 L 89.6873,-44.2289 L 86.6025,-50
 L 83.147,-55.557 L 79.3353,-60.8761 L 75.184,-65.9346 L 74.7528,-66.3949 L 87.4645,-77.7172 L 87.4871,-77.693
 L 87.6304,-77.5588 L 87.7821,-77.4343 L 87.9417,-77.3199 L 88.1084,-77.2163 L 88.2816,-77.1237 L 88.4604,-77.0427
 L 88.6441,-76.9736 L 88.832,-76.9166 L 89.0231,-76.872 L 89.2168,-76.84 L 89.4122,-76.8208 L 89.6084,-76.8143
 L 89.8046,-76.8208 L 90,-76.84 L 90.1937,-76.872 L 90.3849,-76.9166 L 90.5727,-76.9736 L 90.7565,-77.0427
 L 90.9353,-77.1237 L 91.1084,-77.2163 L 91.2751,-77.3199 L 91.4347,-77.4343 L 91.5864,-77.5588 L 91.7297,-77.693
 L 91.8639,-77.8363 L 91.9885,-77.9881 L 92.1028,-78.1476 L 92.2065,-78.3143 L 92.299,-78.4875 L 92.3801,-78.6663
 L 92.4492,-78.85 L 92.5062,-79.0379 L 92.5508,-79.2291 L 92.5827,-79.4228 L 92.602,-79.6181 L 92.6084,-79.8143
 L 92.602,-80.0105 L 92.5827,-80.2059 L 92.5508,-80.3996 L 92.5062,-80.5908 L 92.4492,-80.7787 L 92.3801,-80.9624
 L 92.299,-81.1412 L 92.2065,-81.3143 L 92.1028,-81.481 L 91.9885,-81.6406 L 91.8639,-81.7924 L 91.7297,-81.9357
 L 91.5864,-82.0699 L 91.4347,-82.1944 L 91.2751,-82.3087 L 91.1084,-82.4124 L 90.9353,-82.505 L 90.7565,-82.586
 L 90.5727,-82.6551 L 90.3849,-82.7121 L 90.1937,-82.7567 L 90,-82.7887 L 89.8046,-82.8079 L 89.6084,-82.8143
 L 89.4122,-82.8079 L 89.2168,-82.7887 L 89.0231,-82.7567 L 88.832,-82.7121 L 88.6441,-82.6551 L 88.4604,-82.586
 L 88.2816,-82.505 L 88.1084,-82.4124 L 87.9417,-82.3087 L 87.7821,-82.1944 L 87.6304,-82.0699 L 87.4871,-81.9357
 L 87.3529,-81.7924 L 87.2284,-81.6406 L 87.114,-81.481 L 87.0103,-81.3143 L 86.9178,-81.1412 L 86.8368,-80.9624
 L 86.7676,-80.7787 L 86.7106,-80.5908 L 86.6661,-80.3996 L 86.6341,-80.2059 L 86.6148,-80.0105 L 86.6084,-79.8143
 L 86.6148,-79.6181 L 86.6341,-79.4228 L 86.6661,-79.2291 L 86.7106,-79.0379 L 86.7676,-78.85 L 86.8368,-78.6663
 L 86.9178,-78.4875 L 87.0103,-78.3143 L 87.114,-78.1476 L 87.2284,-77.9881 L 87.2787,-77.9267 L 74.5613,-66.5994
 L 70.7107,-70.7107 L 65.9346,-75.184 L 60.8761,-79.3353 L 55.557,-83.147 L 50,-86.6025 L 44.2289,-89.6873
 L 38.2683,-92.3879 L 32.1439,-94.693 L 25.8819,-96.5926 L 24.8427,-96.8349 L 29.0523,-113.34 L 29.0719,-113.335
 L 29.2655,-113.303 L 29.4609,-113.284 L 29.6571,-113.277 L 29.8533,-113.284 L 30.0487,-113.303 L 30.2424,-113.335
 L 30.4336,-113.38 L 30.6214,-113.437 L 30.8052,-113.506 L 30.984,-113.587 L 31.1571,-113.679 L 31.3238,-113.783
 L 31.4834,-113.897 L 31.6351,-114.022 L 31.7784,-114.156 L 31.9126,-114.299 L 32.0372,-114.451 L 32.1515,-114.611
 L 32.2552,-114.777 L 32.3477,-114.951 L 32.4288,-115.129 L 32.4979,-115.313 L 32.5549,-115.501 L 32.5995,-115.692
 L 32.6314,-115.886 L 32.6507,-116.081 L 32.6571,-116.277 L 32.6507,-116.474 L 32.6314,-116.669 L 32.5995,-116.863
 L 32.5549,-117.054 L 32.4979,-117.242 L 32.4288,-117.426 L 32.3477,-117.604 L 32.2552,-117.777 L 32.1515,-117.944
 L 32.0372,-118.104 L 31.9126,-118.256 L 31.7784,-118.399 L 31.6351,-118.533 L 31.4834,-118.658 L 31.3238,-118.772
 L 31.1571,-118.876 L 30.984,-118.968 L 30.8052,-119.049 L 30.6214,-119.118 L 30.4336,-119.175 L 30.2424,-119.22
 L 30.0487,-119.252 L 29.8533,-119.271 L 29.6571,-119.277 L 29.4609,-119.271 L 29.2655,-119.252 L 29.0719,-119.22
 L 28.8807,-119.175 L 28.6928,-119.118 L 28.5091,-119.049 L 28.3303,-118.968 L 28.1571,-118.876 L 27.9904,-118.772
 L 27.8308,-118.658 L 27.6791,-118.533 L 27.5358,-118.399 L 27.4016,-118.256 L 27.2771,-118.104 L 27.1627,-117.944
 L 27.0591,-117.777 L 26.9665,-117.604 L 26.8855,-117.426 L 26.8163,-117.242 L 26.7594,-117.054 L 26.7148,-116.863
 L 26.6828,-116.669 L 26.6635,-116.474 L 26.6571,-116.277 L 26.6635,-116.081 L 26.6828,-115.886 L 26.7148,-115.692
 L 26.7594,-115.501 L 26.8163,-115.313 L 26.8855,-115.129 L 26.9665,-114.951 L 27.0591,-114.777 L 27.1627,-114.611
 L 27.2771,-114.451 L 27.4016,-114.299 L 27.5358,-114.156 L 27.6791,-114.022 L 27.8308,-113.897 L 27.9904,-113.783
 L 28.1571,-113.679 L 28.3303,-113.587 L 28.5091,-113.506 L 28.6928,-113.437 L 28.7812,-113.41 L 24.5699,-96.8985
 L 19.509,-98.0785 L 13.0526,-99.1445 L 6.5403,-99.7859 L 0,-100 L -6.5403,-99.7859 L -13.0526,-99.1445
 L -14.7276,-98.8679 L -14.7724,-98.9783 L -14.8284,-99.1004 L -14.8898,-99.2197 L -14.9565,-99.3361 L -15.0283,-99.4492
 L -15.105,-99.5583 L -15.1866,-99.6634 L -15.2731,-99.7645 L -15.3645,-99.8617 L -15.4607,-99.955 L -15.5619,-100.044
 L -15.6679,-100.13 L -15.7788,-100.211 L -15.8946,-100.288 L -16.0153,-100.362 L -16.1409,-100.431 L -16.2714,-100.497
 L -16.6416,-99.7563 L -16.4359,-99.6433 L -16.2466,-99.5221 L -16.0738,-99.3927 L -15.9174,-99.2549 L -15.7775,-99.109
 L -15.6541,-98.9547 L -15.5471,-98.7923 L -15.518,-98.7374 L -19.509,-98.0785 L -20.6409,-97.8146 L -20.6407,-97.819
 L -20.6315,-97.9221 L -20.6188,-98.023 L -20.6023,-98.1216 L -20.5823,-98.2178 L -20.5585,-98.3119 L -20.5311,-98.4036
 L -20.5001,-98.4931 L -20.4654,-98.5803 L -20.4271,-98.6652 L -20.3851,-98.7478 L -20.3394,-98.8282 L -20.2903,-98.9058
 L -20.238,-98.98 L -20.1824,-99.0509 L -20.1235,-99.1184 L -20.0614,-99.1826 L -19.996,-99.2435 L -19.9274,-99.301
 L -19.8555,-99.3552 L -19.7803,-99.406 L -19.7019,-99.4535 L -19.6202,-99.4976 L -19.5353,-99.5384 L -19.4471,-99.5759
 L -19.7318,-100.435 L -19.8558,-100.381 L -19.975,-100.322 L -20.0894,-100.259 L -20.199,-100.192 L -20.3038,-100.12
 L -20.4039,-100.043 L -20.4992,-99.962 L -20.5898,-99.8764 L -20.6755,-99.7864 L -20.7565,-99.6918 L -20.8327,-99.5928
 L -20.9041,-99.4892 L -20.9707,-99.3812 L -21.0325,-99.2689 L -21.0894,-99.1524 L -21.1413,-99.0317 L -21.1883,-98.9069
 L -21.2303,-98.7779 L -21.2674,-98.6448 L -21.2995,-98.5075 L -21.3267,-98.366 L -21.349,-98.2204 L -21.3663,-98.0706
 L -21.3786,-97.9167 L -21.386,-97.7587 L -21.3878,-97.6404 L -25.8819,-96.5926 L -32.1439,-94.693 L -38.2683,-92.3879
 L -44.2289,-89.6873 L -50,-86.6025 L -55.557,-83.147 L -60.8761,-79.3353 L -65.9346,-75.184 L -70.7107,-70.7107
 L -75.184,-65.9346 L -79.3353,-60.8761 L -83.147,-55.557 L -86.6025,-50 L -89.6873,-44.2289 L -92.3879,-38.2683
 L -94.693,-32.1439 L -96.5926,-25.8819 L -98.0785,-19.509 L -99.1445,-13.0526 L -99.7859,-6.5403 L -99.8116,-5.75426
 L -99.9385,-5.76407 L -100.078,-5.76756 L -100.176,-5.76509 L -100.27,-5.75768 L -100.363,-5.74532 L -100.452,-5.72801
 L -100.539,-5.70576 L -100.623,-5.67857 L -100.705,-5.64644 L -100.784,-5.60936 L -100.861,-5.56734 L -100.935,-5.52036
 L -101.007,-5.46844 L -101.075,-5.41159 L -101.142,-5.34979 L -101.205,-5.28357 L -101.264,-5.21341 L -101.318,-5.13933
 L -101.369,-5.06129 L -101.416,-4.97934 L -101.459,-4.89345 L -101.498,-4.80363 L -101.532,-4.70988 L -101.563,-4.6122
 L -101.589,-4.51057 L -101.612,-4.40503 L -101.63,-4.29555 L -101.645,-4.18213 L -101.664,-4.18213 L -101.687,-4.28537
 L -101.714,-4.38475 L -101.743,-4.4803 L -101.776,-4.57199 L -101.812,-4.65984 L -101.85,-4.74384 L -101.892,-4.82399
 L -101.937,-4.90028 L -101.985,-4.97275 L -102.036,-5.04135 L -102.09,-5.10611 L -102.147,-5.16702 L -102.207,-5.22408
 L -102.271,-5.2771 L -102.336,-5.32587 L -102.405,-5.37041 L -102.477,-5.41071 L -102.551,-5.44675 L -102.629,-5.47856
 L -102.709,-5.50613 L -102.792,-5.52946 L -102.878,-5.54855 L -102.966,-5.56339 L -103.058,-5.57399 L -103.152,-5.58035
 L -103.249,-5.58247 L -103.376,-5.57918 L -103.498,-5.56927 L -103.615,-5.55278 L -103.729,-5.52968 L -103.838,-5.49997
 L -103.942,-5.46367 L -104.042,-5.42076 L -104.138,-5.37126 L -104.23,-5.31516 L -104.317,-5.25244 L -104.4,-5.18314
 L -104.478,-5.10722 L -104.552,-5.02472 L -104.621,-4.93625 L -104.65,-4.89423 L -104.65,-148.15 L 104.65,-148.15
 z
M -21.1646,100.656 L -21.1726,100.508 L -21.186,100.363 L -21.2046,100.221 L -21.2287,100.082 L -21.258,99.9458
 L -21.2927,99.8123 L -21.3327,99.6817 L -21.3781,99.5539 L -21.4288,99.429 L -21.4848,99.3069 L -21.5462,99.1876
 L -21.6129,99.0712 L -21.6847,98.9581 L -21.7614,98.849 L -21.843,98.7439 L -21.9295,98.6427 L -22.0209,98.5455
 L -22.1171,98.4523 L -22.2183,98.363 L -22.3243,98.2777 L -22.4352,98.1964 L -22.551,98.119 L -22.6717,98.0455
 L -22.7973,97.9761 L -22.9278,97.9106 L -23.298,98.651 L -23.0923,98.7639 L -22.903,98.8851 L -22.7301,99.0146
 L -22.5738,99.1523 L -22.4339,99.2983 L -22.3104,99.4525 L -22.2034,99.615 L -22.1129,99.7858 L -22.0388,99.9648
 L -21.9812,100.152 L -21.9401,100.348 L -21.9154,100.551 L -21.9072,100.763 L -21.9116,100.929 L -21.9249,101.09
 L -21.947,101.245 L -21.9779,101.395 L -22.0177,101.54 L -22.0664,101.679 L -22.1239,101.813 L -22.1903,101.941
 L -22.2655,102.064 L -22.3495,102.182 L -22.4424,102.295 L -22.5442,102.402 L -22.6548,102.503 L -22.7726,102.598
 L -22.8962,102.686 L -23.0255,102.766 L -23.1605,102.838 L -23.3012,102.903 L -23.4476,102.96 L -23.5996,103.009
 L -23.7574,103.051 L -23.9209,103.085 L -24.0901,103.112 L -24.265,103.131 L -24.4456,103.143 L -24.6319,103.146
 L -24.8201,103.143 L -25.002,103.132 L -25.1777,103.113 L -25.3471,103.088 L -25.5103,103.055 L -25.6672,103.015
 L -25.8178,102.967 L -25.9621,102.913 L -26.1002,102.851 L -26.232,102.781 L -26.3576,102.705 L -26.4769,102.621
 L -26.5899,102.529 L -26.6956,102.431 L -26.7928,102.328 L -26.8816,102.218 L -26.9619,102.103 L -27.0338,101.982
 L -27.0972,101.854 L -27.1522,101.722 L -27.1987,101.583 L -27.2367,101.438 L -27.2663,101.288 L -27.2874,101.131
 L -27.3001,100.969 L -27.3044,100.801 L -27.3025,100.694 L -27.2971,100.588 L -27.2879,100.485 L -27.2751,100.384
 L -27.2587,100.286 L -27.2386,100.189 L -27.2149,100.095 L -27.1875,100.004 L -27.1565,99.9142 L -27.1218,99.827
 L -27.0834,99.7421 L -27.0414,99.6594 L -26.9958,99.5791 L -26.9467,99.5015 L -26.8944,99.4273 L -26.8387,99.3564
 L -26.7799,99.2888 L -26.7178,99.2247 L -26.6524,99.1638 L -26.5837,99.1063 L -26.5118,99.0521 L -26.4367,99.0013
 L -26.3582,98.9538 L -26.2766,98.9097 L -26.1916,98.8689 L -26.1034,98.8314 L -26.3882,97.9722 L -26.5121,98.0263
 L -26.6313,98.0849 L -26.7457,98.148 L -26.8554,98.2156 L -26.9602,98.2877 L -27.0603,98.3643 L -27.1556,98.4453
 L -27.2461,98.5309 L -27.3319,98.6209 L -27.4129,98.7155 L -27.4891,98.8145 L -27.5605,98.918 L -27.6271,99.0261
 L -27.6889,99.1384 L -27.7458,99.2549 L -27.7977,99.3756 L -27.8447,99.5004 L -27.8867,99.6294 L -27.9238,99.7625
 L -27.9559,99.8998 L -27.9831,100.041 L -28.0053,100.187 L -28.0226,100.337 L -28.035,100.491 L -28.0424,100.649
 L -28.0449,100.811 L -28.0395,101.042 L -28.0234,101.265 L -27.9966,101.481 L -27.959,101.689 L -27.9108,101.888
 L -27.8518,102.08 L -27.782,102.264 L -27.7015,102.44 L -27.6103,102.609 L -27.5084,102.769 L -27.3958,102.922
 L -27.2724,103.066 L -27.1382,103.203 L -26.9947,103.331 L -26.8429,103.449 L -26.6829,103.556 L -26.5147,103.653
 L -26.3383,103.74 L -26.1537,103.817 L -25.9609,103.883 L -25.7599,103.939 L -25.5507,103.985 L -25.3333,104.021
 L -25.1077,104.047 L -24.8739,104.062 L -24.6319,104.067 L -24.4693,104.065 L -24.3101,104.058 L -24.1543,104.047
 L -24.0018,104.031 L -23.8528,104.01 L -23.7072,103.985 L -23.565,103.955 L -23.4261,103.921 L -23.2907,103.882
 L -23.1587,103.838 L -23.0301,103.79 L -22.9048,103.738 L -22.783,103.68 L -22.665,103.619 L -22.5513,103.553
 L -22.4418,103.483 L -22.3366,103.409 L -22.2357,103.331 L -22.1391,103.248 L -22.0467,103.162 L -21.9586,103.071
 L -21.8747,102.976 L -21.7951,102.877 L -21.7198,102.774 L -21.6488,102.667 L -21.582,102.555 L -21.5199,102.44
 L -21.4627,102.322 L -21.4105,102.2 L -21.3633,102.075 L -21.321,101.947 L -21.2837,101.816 L -21.2514,101.681
 L -21.2241,101.543 L -21.2017,101.402 L -21.1843,101.258 L -21.1719,101.111 L -21.1644,100.96 L -21.1619,100.806
 z
M -14.5108,-103.568 L -14.5265,-103.736 L -14.5526,-103.897 L -14.5892,-104.051 L -14.6362,-104.198 L -14.6936,-104.339
 L -14.7616,-104.473 L -14.8399,-104.601 L -14.9287,-104.722 L -15.028,-104.836 L -15.1377,-104.944 L -15.2579,-105.045
 L -15.3885,-105.139 L -15.529,-105.226 L -15.6789,-105.307 L -15.8382,-105.38 L -16.0069,-105.447 L -16.1849,-105.506
 L -16.3723,-105.558 L -16.5692,-105.604 L -16.7753,-105.642 L -16.9909,-105.674 L -17.2159,-105.698 L -17.4502,-105.716
 L -17.6939,-105.726 L -17.947,-105.73 L -18.2043,-105.726 L -18.4516,-105.716 L -18.6891,-105.7 L -18.9166,-105.677
 L -19.1343,-105.647 L -19.3421,-105.61 L -19.54,-105.567 L -19.728,-105.517 L -19.9062,-105.46 L -20.0744,-105.397
 L -20.2328,-105.327 L -20.3812,-105.25 L -20.5198,-105.167 L -20.6483,-105.077 L -20.7665,-104.98 L -20.8745,-104.875
 L -20.9722,-104.762 L -21.0595,-104.643 L -21.1366,-104.516 L -21.2035,-104.382 L -21.26,-104.24 L -21.3063,-104.092
 L -21.3423,-103.935 L -21.368,-103.772 L -21.3834,-103.601 L -21.3885,-103.423 L -21.3834,-103.24 L -21.3682,-103.064
 L -21.3428,-102.897 L -21.3072,-102.737 L -21.2614,-102.585 L -21.2055,-102.44 L -21.1394,-102.303 L -21.0631,-102.174
 L -20.9767,-102.053 L -20.8801,-101.94 L -20.7734,-101.834 L -20.6564,-101.736 L -20.5293,-101.645 L -20.392,-101.562
 L -20.2445,-101.485 L -20.0868,-101.415 L -19.9188,-101.352 L -19.7406,-101.296 L -19.5522,-101.246 L -19.3536,-101.202
 L -19.1447,-101.166 L -18.9256,-101.136 L -18.6963,-101.113 L -18.4568,-101.096 L -18.207,-101.086 L -17.947,-101.083
 L -17.6926,-101.086 L -17.4476,-101.096 L -17.2122,-101.113 L -16.9864,-101.137 L -16.7701,-101.168 L -16.5634,-101.206
 L -16.3662,-101.251 L -16.1786,-101.302 L -16.0005,-101.36 L -15.832,-101.425 L -15.673,-101.497 L -15.5236,-101.576
 L -15.3837,-101.662 L -15.2538,-101.754 L -15.1343,-101.854 L -15.0252,-101.96 L -14.9265,-102.072 L -14.8381,-102.192
 L -14.7602,-102.319 L -14.6926,-102.452 L -14.6355,-102.592 L -14.5887,-102.739 L -14.5523,-102.893 L -14.5264,-103.053
 L -14.5108,-103.22 L -14.5056,-103.394 z
M -15.2072,-103.289 L -15.2189,-103.18 L -15.2385,-103.075 L -15.2658,-102.975 L -15.3009,-102.88 L -15.3439,-102.79
 L -15.3946,-102.705 L -15.4532,-102.625 L -15.5196,-102.549 L -15.5938,-102.478 L -15.6758,-102.413 L -15.7655,-102.352
 L -15.8631,-102.295 L -15.9692,-102.244 L -16.0843,-102.196 L -16.2084,-102.153 L -16.3416,-102.114 L -16.4838,-102.079
 L -16.635,-102.048 L -16.7953,-102.021 L -16.9647,-101.998 L -17.1431,-101.98 L -17.3305,-101.965 L -17.527,-101.955
 L -17.7325,-101.949 L -17.947,-101.947 L -18.1678,-101.949 L -18.3788,-101.955 L -18.58,-101.965 L -18.7715,-101.979
 L -18.9531,-101.997 L -19.125,-102.02 L -19.2872,-102.046 L -19.4395,-102.077 L -19.5821,-102.111 L -19.7149,-102.15
 L -19.8379,-102.193 L -19.9511,-102.24 L -20.0546,-102.291 L -20.1494,-102.346 L -20.2366,-102.407 L -20.3162,-102.473
 L -20.3883,-102.545 L -20.4528,-102.621 L -20.5096,-102.703 L -20.5589,-102.79 L -20.6006,-102.882 L -20.6348,-102.98
 L -20.6613,-103.083 L -20.6803,-103.191 L -20.6917,-103.304 L -20.6954,-103.423 L -20.6916,-103.539 L -20.6801,-103.649
 L -20.6608,-103.755 L -20.6339,-103.855 L -20.5992,-103.95 L -20.5569,-104.04 L -20.5069,-104.125 L -20.4492,-104.205
 L -20.3838,-104.279 L -20.3107,-104.349 L -20.2298,-104.413 L -20.1413,-104.472 L -20.0452,-104.526 L -19.9404,-104.576
 L -19.8262,-104.622 L -19.7025,-104.663 L -19.5695,-104.701 L -19.4269,-104.734 L -19.275,-104.764 L -19.1136,-104.79
 L -18.9428,-104.812 L -18.7625,-104.829 L -18.5728,-104.843 L -18.3736,-104.853 L -18.1651,-104.859 L -17.947,-104.861
 L -17.7366,-104.859 L -17.5347,-104.853 L -17.3414,-104.842 L -17.1565,-104.828 L -16.9803,-104.809 L -16.8125,-104.786
 L -16.6533,-104.759 L -16.5026,-104.728 L -16.3605,-104.693 L -16.2269,-104.653 L -16.1019,-104.61 L -15.9853,-104.562
 L -15.8774,-104.51 L -15.7776,-104.453 L -15.6859,-104.392 L -15.6022,-104.326 L -15.5264,-104.256 L -15.4586,-104.18
 L -15.3988,-104.1 L -15.3469,-104.015 L -15.303,-103.925 L -15.2671,-103.83 L -15.2392,-103.731 L -15.2193,-103.627
 L -15.2073,-103.518 L -15.2033,-103.404 z
M 89.2695,133.627 L 89.2083,133.625 L 89.149,133.622 L 89.0917,133.616 L 89.0364,133.607 L 88.983,133.596
 L 88.9316,133.582 L 88.8822,133.566 L 88.8347,133.548 L 88.7892,133.527 L 88.7456,133.504 L 88.704,133.478
 L 88.6643,133.45 L 88.6266,133.419 L 88.5913,133.386 L 88.5588,133.352 L 88.5291,133.316 L 88.5023,133.278
 L 88.4783,133.239 L 88.4571,133.198 L 88.4387,133.156 L 88.4232,133.112 L 88.4105,133.066 L 88.4006,133.019
 L 88.3935,132.97 L 88.3893,132.919 L 88.3879,132.867 L 88.3883,132.832 L 88.3896,132.799 L 88.3916,132.766
 L 88.3946,132.735 L 88.3983,132.705 L 88.4029,132.676 L 88.4083,132.648 L 88.4146,132.621 L 88.4217,132.596
 L 88.4296,132.572 L 88.4384,132.549 L 88.448,132.527 L 88.4584,132.506 L 88.4697,132.487 L 88.482,132.468
 L 88.4952,132.45 L 88.5094,132.433 L 88.5245,132.417 L 88.5406,132.402 L 88.5576,132.387 L 88.5755,132.374
 L 88.5944,132.361 L 88.6143,132.349 L 88.6351,132.338 L 88.6568,132.328 L 88.6795,132.319 L 88.7036,132.311
 L 88.7296,132.303 L 88.7574,132.296 L 88.7871,132.29 L 88.8188,132.284 L 88.8522,132.279 L 88.8876,132.274
 L 88.9249,132.271 L 88.964,132.268 L 89.005,132.265 L 89.0479,132.264 L 89.0926,132.263 L 89.1393,132.262
 L 91,132.262 L 91,131.771 L 89.0443,131.771 L 88.9602,131.773 L 88.88,131.777 L 88.8035,131.783
 L 88.7309,131.793 L 88.662,131.805 L 88.597,131.819 L 88.5358,131.837 L 88.4783,131.857 L 88.4247,131.88
 L 88.3749,131.905 L 88.3288,131.933 L 88.2866,131.964 L 88.2482,131.998 L 88.2131,132.034 L 88.1808,132.073
 L 88.1513,132.116 L 88.1246,132.161 L 88.1007,132.209 L 88.0797,132.26 L 88.0614,132.314 L 88.046,132.371
 L 88.0333,132.432 L 88.0235,132.495 L 88.0165,132.561 L 88.0123,132.63 L 88.0108,132.702 L 88.0116,132.753
 L 88.014,132.803 L 88.018,132.852 L 88.0236,132.899 L 88.0307,132.945 L 88.0395,132.989 L 88.0498,133.033
 L 88.0617,133.074 L 88.0752,133.115 L 88.0903,133.153 L 88.107,133.191 L 88.1253,133.227 L 88.1451,133.262
 L 88.1667,133.295 L 88.1901,133.328 L 88.2152,133.36 L 88.2422,133.392 L 88.2711,133.422 L 88.3017,133.452
 L 88.3341,133.481 L 88.3684,133.51 L 88.4045,133.537 L 88.4424,133.564 L 88.482,133.59 L 88.5236,133.616
 L 88.5669,133.64 L 88.5669,133.648 L 88.5618,133.648 L 88.5464,133.647 L 88.524,133.645 L 88.5101,133.644
 L 88.477,133.642 L 88.4142,133.639 L 88.3634,133.636 L 88.3364,133.635 L 88.3094,133.633 L 88.2827,133.632
 L 88.256,133.631 L 88.2294,133.63 L 88.203,133.629 L 88.1767,133.629 L 88.1506,133.628 L 88.1245,133.627
 L 88.0986,133.627 L 88.0728,133.627 L 88.0472,133.627 L 88.0217,133.627 L 86.9747,133.627 L 86.9747,134.115
 L 91,134.115 L 91,133.627 z
M 86.9747,127.603 L 86.9747,128.091 L 91,128.091 L 91,127.603 z
M 90.585,119.925 L 90.585,121.919 L 90.5557,121.906 L 90.5262,121.891 L 90.4966,121.876 L 90.4668,121.859
 L 90.4367,121.841 L 90.4066,121.822 L 90.3762,121.801 L 90.3457,121.78 L 90.3149,121.757 L 90.2841,121.733
 L 90.253,121.707 L 90.2217,121.681 L 90.1903,121.653 L 90.1585,121.624 L 90.1261,121.593 L 90.0931,121.561
 L 90.0596,121.528 L 90.0254,121.492 L 89.9906,121.456 L 89.9552,121.418 L 89.9193,121.378 L 89.8827,121.337
 L 89.8456,121.294 L 89.8078,121.25 L 89.7695,121.204 L 89.7306,121.157 L 89.6611,121.072 L 89.5944,120.991
 L 89.5306,120.915 L 89.4697,120.843 L 89.4116,120.775 L 89.3563,120.711 L 89.304,120.652 L 89.2545,120.598
 L 89.2078,120.547 L 89.164,120.501 L 89.123,120.46 L 89.085,120.422 L 89.0497,120.389 L 89.0159,120.359
 L 88.9821,120.33 L 88.9483,120.302 L 88.9145,120.275 L 88.8807,120.249 L 88.8469,120.225 L 88.8131,120.202
 L 88.7793,120.18 L 88.7455,120.159 L 88.7117,120.139 L 88.6779,120.12 L 88.6441,120.103 L 88.6103,120.087
 L 88.5765,120.072 L 88.5426,120.058 L 88.5087,120.045 L 88.4748,120.034 L 88.4409,120.023 L 88.4069,120.014
 L 88.3729,120.007 L 88.3389,120 L 88.3048,119.995 L 88.2707,119.99 L 88.2365,119.987 L 88.2024,119.986
 L 88.1682,119.985 L 88.0923,119.987 L 88.0192,119.992 L 87.9488,120.001 L 87.881,120.014 L 87.8161,120.031
 L 87.7538,120.051 L 87.6942,120.075 L 87.6373,120.103 L 87.5832,120.134 L 87.5318,120.169 L 87.483,120.207
 L 87.437,120.25 L 87.3937,120.296 L 87.3534,120.345 L 87.3163,120.397 L 87.2824,120.453 L 87.2518,120.512
 L 87.2244,120.574 L 87.2002,120.639 L 87.1792,120.707 L 87.1615,120.779 L 87.1469,120.854 L 87.1357,120.931
 L 87.1276,121.012 L 87.1227,121.097 L 87.1211,121.184 L 87.1227,121.264 L 87.1275,121.341 L 87.1356,121.417
 L 87.1468,121.49 L 87.1613,121.56 L 87.1789,121.629 L 87.1998,121.695 L 87.2239,121.759 L 87.2511,121.821
 L 87.2816,121.88 L 87.3154,121.937 L 87.3523,121.992 L 87.3924,122.045 L 87.4352,122.095 L 87.4803,122.142
 L 87.5276,122.185 L 87.577,122.225 L 87.6287,122.261 L 87.6826,122.294 L 87.7388,122.324 L 87.7971,122.351
 L 87.8577,122.374 L 87.9204,122.394 L 87.9854,122.411 L 88.0526,122.424 L 88.1221,122.434 L 88.1682,121.935
 L 88.1218,121.929 L 88.0771,121.92 L 88.034,121.91 L 87.9925,121.898 L 87.9527,121.883 L 87.9144,121.867
 L 87.8778,121.849 L 87.8428,121.829 L 87.8094,121.806 L 87.7777,121.782 L 87.7475,121.756 L 87.719,121.728
 L 87.6921,121.698 L 87.667,121.666 L 87.644,121.633 L 87.6229,121.599 L 87.6038,121.563 L 87.5868,121.526
 L 87.5717,121.488 L 87.5587,121.448 L 87.5477,121.408 L 87.5386,121.365 L 87.5316,121.322 L 87.5266,121.277
 L 87.5236,121.231 L 87.5226,121.184 L 87.5236,121.134 L 87.5267,121.086 L 87.5318,121.04 L 87.539,120.995
 L 87.5482,120.953 L 87.5596,120.912 L 87.5729,120.872 L 87.5883,120.834 L 87.6058,120.798 L 87.6253,120.764
 L 87.6469,120.731 L 87.6705,120.7 L 87.6962,120.671 L 87.7237,120.644 L 87.7529,120.619 L 87.7838,120.596
 L 87.8164,120.575 L 87.8506,120.557 L 87.8865,120.54 L 87.924,120.526 L 87.9633,120.514 L 88.0042,120.504
 L 88.0467,120.497 L 88.091,120.491 L 88.1369,120.488 L 88.1844,120.487 L 88.22,120.487 L 88.2551,120.489
 L 88.2895,120.492 L 88.3234,120.497 L 88.3566,120.503 L 88.3894,120.51 L 88.4215,120.518 L 88.453,120.527
 L 88.484,120.538 L 88.5144,120.55 L 88.5443,120.563 L 88.5735,120.578 L 88.6022,120.594 L 88.6304,120.611
 L 88.6585,120.628 L 88.6864,120.647 L 88.7141,120.666 L 88.7416,120.686 L 88.769,120.707 L 88.7961,120.729
 L 88.823,120.751 L 88.8498,120.774 L 88.8763,120.798 L 88.9027,120.823 L 88.9288,120.848 L 88.9548,120.875
 L 88.9807,120.902 L 89.0065,120.929 L 89.0324,120.957 L 89.0583,120.985 L 89.0842,121.014 L 89.11,121.044
 L 89.1359,121.074 L 89.1618,121.104 L 89.1876,121.135 L 89.2135,121.167 L 89.2394,121.199 L 89.2653,121.231
 L 89.3172,121.297 L 89.3436,121.33 L 89.3703,121.364 L 89.3973,121.397 L 89.4247,121.43 L 89.4524,121.464
 L 89.4805,121.497 L 89.5089,121.531 L 89.5376,121.564 L 89.5667,121.598 L 89.5961,121.632 L 89.6259,121.665
 L 89.656,121.699 L 89.6865,121.733 L 89.7176,121.766 L 89.7492,121.8 L 89.7813,121.833 L 89.8141,121.865
 L 89.8473,121.898 L 89.8811,121.93 L 89.9155,121.962 L 89.9504,121.994 L 89.9858,122.025 L 90.0218,122.056
 L 90.0583,122.088 L 90.0954,122.118 L 90.1332,122.149 L 90.1719,122.178 L 90.2114,122.207 L 90.2519,122.235
 L 90.2932,122.263 L 90.3354,122.289 L 90.3785,122.315 L 90.4224,122.341 L 90.4673,122.365 L 90.513,122.389
 L 90.5596,122.412 L 90.6071,122.434 L 90.6555,122.456 L 91,122.456 L 91,119.925 z
M 91.052,129.853 L 91.0453,129.759 L 91.0341,129.669 L 91.0185,129.582 L 90.9985,129.499 L 90.9739,129.42
 L 90.9449,129.344 L 90.9115,129.272 L 90.8735,129.203 L 90.8311,129.138 L 90.7843,129.077 L 90.733,129.019
 L 90.6772,128.965 L 90.6169,128.915 L 90.5519,128.869 L 90.4822,128.827 L 90.4079,128.789 L 90.329,128.755
 L 90.2454,128.725 L 90.1571,128.699 L 90.0642,128.677 L 89.9667,128.659 L 89.8644,128.644 L 89.7576,128.634
 L 89.646,128.628 L 89.5298,128.626 L 89.4125,128.628 L 89.3,128.634 L 89.1923,128.643 L 89.0894,128.656
 L 88.9914,128.673 L 88.8982,128.694 L 88.8098,128.718 L 88.7263,128.747 L 88.6476,128.779 L 88.5737,128.814
 L 88.5047,128.854 L 88.4405,128.897 L 88.3811,128.944 L 88.3263,128.995 L 88.2759,129.05 L 88.2299,129.109
 L 88.1883,129.173 L 88.1511,129.241 L 88.1182,129.312 L 88.0897,129.389 L 88.0656,129.469 L 88.0459,129.554
 L 88.0306,129.642 L 88.0196,129.735 L 88.013,129.832 L 88.0108,129.934 L 88.0198,130.128 L 88.0468,130.308
 L 88.0917,130.471 L 88.1547,130.619 L 88.2355,130.751 L 88.3344,130.868 L 88.4513,130.969 L 88.5861,131.055
 L 88.7389,131.125 L 88.9097,131.179 L 89.0984,131.218 L 89.3051,131.242 L 89.5298,131.249 L 89.6417,131.247
 L 89.7494,131.242 L 89.853,131.232 L 89.9525,131.218 L 90.0479,131.201 L 90.1391,131.18 L 90.2262,131.154
 L 90.3092,131.125 L 90.3881,131.092 L 90.4628,131.055 L 90.5334,131.014 L 90.5999,130.97 L 90.6623,130.921
 L 90.7203,130.869 L 90.7736,130.813 L 90.8223,130.753 L 90.8664,130.689 L 90.9058,130.622 L 90.9406,130.551
 L 90.9707,130.477 L 90.9963,130.398 L 91.0171,130.316 L 91.0334,130.23 L 91.045,130.14 L 91.0519,130.047
 L 91.0542,129.95 z
M 90.6918,130.016 L 90.6866,130.075 L 90.678,130.131 L 90.6659,130.184 L 90.6503,130.235 L 90.6314,130.283
 L 90.6089,130.328 L 90.5831,130.371 L 90.5537,130.412 L 90.521,130.45 L 90.4847,130.485 L 90.445,130.518
 L 90.4019,130.548 L 90.3553,130.576 L 90.3053,130.602 L 90.2519,130.625 L 90.1951,130.646 L 90.1349,130.665
 L 90.0712,130.682 L 90.0041,130.697 L 89.9336,130.709 L 89.8597,130.719 L 89.7824,130.727 L 89.7016,130.732
 L 89.6174,130.736 L 89.5298,130.737 L 89.4399,130.736 L 89.3537,130.732 L 89.2713,130.727 L 89.1925,130.719
 L 89.1176,130.708 L 89.0463,130.696 L 88.9788,130.681 L 88.9151,130.664 L 88.855,130.645 L 88.7988,130.624
 L 88.7462,130.6 L 88.6974,130.574 L 88.6524,130.546 L 88.6108,130.515 L 88.5726,130.481 L 88.5377,130.445
 L 88.5062,130.405 L 88.4779,130.363 L 88.453,130.318 L 88.4314,130.271 L 88.4131,130.22 L 88.3982,130.167
 L 88.3866,130.111 L 88.3783,130.052 L 88.3733,129.99 L 88.3716,129.926 L 88.3732,129.862 L 88.3781,129.801
 L 88.3863,129.742 L 88.3977,129.687 L 88.4123,129.634 L 88.4303,129.585 L 88.4514,129.538 L 88.4759,129.495
 L 88.5036,129.454 L 88.5345,129.416 L 88.5687,129.381 L 88.6062,129.349 L 88.6469,129.32 L 88.6913,129.293
 L 88.7395,129.268 L 88.7917,129.246 L 88.8478,129.226 L 88.9079,129.207 L 88.9718,129.191 L 89.0398,129.178
 L 89.1116,129.166 L 89.1874,129.156 L 89.2671,129.149 L 89.3508,129.143 L 89.4383,129.14 L 89.5298,129.139
 L 89.6202,129.14 L 89.7068,129.144 L 89.7896,129.149 L 89.8687,129.157 L 89.944,129.167 L 90.0156,129.179
 L 90.0834,129.194 L 90.1474,129.21 L 90.2077,129.229 L 90.2643,129.251 L 90.3171,129.274 L 90.3661,129.3
 L 90.4114,129.328 L 90.4531,129.358 L 90.4915,129.392 L 90.5266,129.428 L 90.5583,129.467 L 90.5867,129.51
 L 90.6117,129.555 L 90.6334,129.603 L 90.6518,129.655 L 90.6668,129.709 L 90.6785,129.766 L 90.6868,129.826
 L 90.6918,129.889 L 90.6935,129.956 z
M 91.0501,125.553 L 91.0378,125.421 L 91.0173,125.297 L 90.9885,125.181 L 90.9515,125.074 L 90.9063,124.974
 L 90.8529,124.882 L 90.7913,124.798 L 90.7214,124.721 L 90.6434,124.653 L 90.5571,124.593 L 90.4626,124.54
 L 90.3598,124.496 L 90.2378,124.925 L 90.2675,124.936 L 90.2963,124.948 L 90.3243,124.962 L 90.3516,124.978
 L 90.378,124.995 L 90.4036,125.013 L 90.4285,125.033 L 90.4525,125.055 L 90.4757,125.078 L 90.4981,125.102
 L 90.5198,125.128 L 90.5406,125.155 L 90.5606,125.184 L 90.5795,125.214 L 90.5968,125.245 L 90.6127,125.279
 L 90.627,125.313 L 90.6398,125.349 L 90.6511,125.387 L 90.6609,125.426 L 90.6692,125.467 L 90.676,125.509
 L 90.6813,125.552 L 90.6851,125.598 L 90.6873,125.644 L 90.6881,125.692 L 90.6865,125.753 L 90.6816,125.811
 L 90.6735,125.867 L 90.6622,125.921 L 90.6476,125.973 L 90.6297,126.022 L 90.6087,126.069 L 90.5843,126.113
 L 90.5568,126.156 L 90.526,126.196 L 90.4919,126.234 L 90.4547,126.269 L 90.4141,126.303 L 90.3706,126.333
 L 90.3244,126.362 L 90.2754,126.388 L 90.2237,126.411 L 90.1693,126.432 L 90.1121,126.451 L 90.0522,126.467
 L 89.9896,126.481 L 89.9243,126.492 L 89.8562,126.5 L 89.7854,126.506 L 89.7119,126.51 L 89.6356,126.511
 L 89.6356,124.417 L 89.5705,124.417 L 89.3398,124.425 L 89.1275,124.448 L 88.9337,124.486 L 88.7584,124.54
 L 88.6015,124.609 L 88.4631,124.693 L 88.3431,124.792 L 88.2416,124.907 L 88.1585,125.037 L 88.0939,125.183
 L 88.0478,125.344 L 88.0201,125.52 L 88.0108,125.711 L 88.0131,125.807 L 88.02,125.899 L 88.0315,125.987
 L 88.0476,126.073 L 88.0682,126.154 L 88.0935,126.232 L 88.1233,126.307 L 88.1577,126.379 L 88.1968,126.447
 L 88.2404,126.511 L 88.2886,126.572 L 88.3414,126.63 L 88.3987,126.684 L 88.4604,126.734 L 88.5261,126.78
 L 88.5958,126.823 L 88.6695,126.861 L 88.7473,126.895 L 88.829,126.925 L 88.9148,126.952 L 89.0045,126.974
 L 89.0983,126.992 L 89.1961,127.006 L 89.2979,127.016 L 89.4037,127.022 L 89.5136,127.024 L 89.629,127.022
 L 89.74,127.016 L 89.8465,127.006 L 89.9486,126.992 L 90.0462,126.974 L 90.1393,126.952 L 90.228,126.925
 L 90.3122,126.895 L 90.392,126.861 L 90.4673,126.823 L 90.5381,126.78 L 90.6045,126.734 L 90.6664,126.684
 L 90.7237,126.629 L 90.7765,126.572 L 90.8247,126.51 L 90.8683,126.445 L 90.9074,126.376 L 90.9418,126.303
 L 90.9716,126.227 L 90.9969,126.147 L 91.0175,126.063 L 91.0336,125.976 L 91.0451,125.885 L 91.0519,125.791
 L 91.0542,125.692 z
M 89.2613,126.506 L 89.1985,126.502 L 89.1378,126.496 L 89.0792,126.488 L 89.0227,126.478 L 88.9683,126.465
 L 88.9161,126.45 L 88.8659,126.433 L 88.8178,126.414 L 88.7718,126.392 L 88.728,126.368 L 88.6862,126.342
 L 88.6465,126.313 L 88.609,126.282 L 88.5739,126.249 L 88.5415,126.215 L 88.5121,126.179 L 88.4854,126.141
 L 88.4615,126.101 L 88.4404,126.059 L 88.4222,126.016 L 88.4067,125.971 L 88.3941,125.924 L 88.3842,125.875
 L 88.3772,125.825 L 88.373,125.773 L 88.3716,125.719 L 88.3729,125.664 L 88.3766,125.611 L 88.3829,125.559
 L 88.3918,125.51 L 88.4031,125.463 L 88.417,125.418 L 88.4333,125.375 L 88.4522,125.333 L 88.4737,125.294
 L 88.4976,125.257 L 88.524,125.222 L 88.553,125.189 L 88.5845,125.158 L 88.6188,125.129 L 88.656,125.101
 L 88.6962,125.076 L 88.7393,125.052 L 88.7854,125.031 L 88.8345,125.011 L 88.8866,124.992 L 88.9416,124.976
 L 88.9996,124.962 L 89.0606,124.949 L 89.1245,124.938 L 89.1914,124.929 L 89.2613,124.922 z
M -99.9326,-2.05975 L -100.031,-2.04132 L -99.959,-1.25369 L -99.9864,-0.414658 L -100.273,0.158508 L -100.067,0.271439
 L -99.9895,0.321243 L -99.8629,4.18744 L -99.8712,4.19334 L -100.001,4.27327 L -100.135,4.34557 L -100.276,4.41026
 L -100.423,4.46735 L -100.575,4.51683 L -100.732,4.55869 L -100.896,4.59294 L -101.065,4.61958 L -101.24,4.63861
 L -101.421,4.65002 L -101.607,4.65382 L -101.795,4.65018 L -101.977,4.63922 L -102.153,4.62097 L -102.322,4.59541
 L -102.485,4.56255 L -102.642,4.52238 L -102.793,4.47493 L -102.937,4.42015 L -103.075,4.35808 L -103.207,4.28871
 L -103.333,4.21204 L -103.452,4.12807 L -103.565,4.03677 L -103.671,3.93892 L -103.768,3.83521 L -103.857,3.72566
 L -103.937,3.61028 L -104.009,3.48904 L -104.072,3.36197 L -104.127,3.22905 L -104.174,3.09029 L -104.212,2.94568
 L -104.241,2.79523 L -104.262,2.63895 L -104.275,2.47681 L -104.279,2.30884 L -104.278,2.20116 L -104.272,2.09576
 L -104.263,1.99263 L -104.25,1.89178 L -104.234,1.79321 L -104.214,1.69691 L -104.19,1.60289 L -104.163,1.51115
 L -104.131,1.42168 L -104.097,1.33449 L -104.058,1.24957 L -104.016,1.16693 L -103.971,1.08656 L -103.922,1.00899
 L -103.869,0.934769 L -103.814,0.863876 L -103.755,0.796341 L -103.693,0.732147 L -103.627,0.671295 L -103.559,0.61377
 L -103.487,0.559601 L -103.412,0.508774 L -103.333,0.461288 L -103.252,0.417145 L -103.167,0.376343 L -103.078,0.338898
 L -103.363,-0.520279 L -103.487,-0.466171 L -103.606,-0.407578 L -103.721,-0.344482 L -103.83,-0.276901 L -103.935,-0.204834
 L -104.035,-0.12825 L -104.131,-0.0471954 L -104.221,0.0383453 L -104.307,0.128403 L -104.388,0.222946 L -104.464,0.321991
 L -104.535,0.425537 L -104.602,0.533554 L -104.65,0.620544 L -104.65,-2.08005 L -104.628,-2.04564 L -104.559,-1.95346
 L -104.486,-1.86618 L -104.409,-1.78471 L -104.328,-1.70906 L -104.242,-1.63922 L -104.152,-1.5752 L -104.058,-1.51698
 L -103.959,-1.46458 L -103.856,-1.418 L -103.749,-1.37723 L -103.638,-1.34227 L -103.522,-1.31313 L -103.402,-1.28981
 L -103.278,-1.27229 L -103.211,-2.13148 L -103.291,-2.14197 L -103.368,-2.15591 L -103.442,-2.17332 L -103.513,-2.19418
 L -103.582,-2.21849 L -103.647,-2.24626 L -103.71,-2.27748 L -103.77,-2.31215 L -103.827,-2.35028 L -103.882,-2.39186
 L -103.933,-2.4369 L -103.982,-2.4854 L -104.028,-2.53734 L -104.071,-2.59229 L -104.11,-2.6498 L -104.146,-2.70987
 L -104.179,-2.77249 L -104.208,-2.83766 L -104.233,-2.9054 L -104.256,-2.97569 L -104.275,-3.04854 L -104.29,-3.12393
 L -104.302,-3.2019 L -104.311,-3.28241 L -104.316,-3.36549 L -104.317,-3.45111 L -104.316,-3.54497 L -104.31,-3.63519
 L -104.301,-3.7218 L -104.288,-3.80478 L -104.271,-3.88414 L -104.251,-3.95987 L -104.227,-4.03198 L -104.2,-4.10048
 L -104.168,-4.16533 L -104.133,-4.22658 L -104.095,-4.28419 L -104.052,-4.33818 L -104.006,-4.38857 L -103.957,-4.43526
 L -103.905,-4.47823 L -103.851,-4.51746 L -103.794,-4.55295 L -103.734,-4.5847 L -103.671,-4.61272 L -103.606,-4.63701
 L -103.538,-4.65756 L -103.468,-4.67436 L -103.395,-4.68744 L -103.319,-4.69679 L -103.24,-4.70239 L -103.159,-4.70425
 L -103.077,-4.70197 L -102.998,-4.6951 L -102.922,-4.68365 L -102.848,-4.66763 L -102.778,-4.64702 L -102.71,-4.62184
 L -102.644,-4.59209 L -102.582,-4.55774 L -102.522,-4.51883 L -102.466,-4.47533 L -102.412,-4.42725 L -102.36,-4.3746
 L -102.312,-4.31737 L -102.267,-4.25598 L -102.225,-4.19087 L -102.187,-4.12202 L -102.152,-4.04944 L -102.122,-3.97311
 L -102.094,-3.89305 L -102.071,-3.80927 L -102.051,-3.72173 L -102.035,-3.63046 L -102.022,-3.53546 L -102.013,-3.43672
 L -102.007,-3.33424 L -102.006,-3.22803 L -102.006,-2.7628 L -101.265,-2.7628 L -101.265,-3.24699 L -101.263,-3.36676
 L -101.258,-3.4821 L -101.249,-3.59303 L -101.236,-3.69955 L -101.22,-3.80168 L -101.2,-3.89938 L -101.176,-3.99268
 L -101.149,-4.08156 L -101.118,-4.16603 L -101.084,-4.24609 L -101.046,-4.32175 L -101.004,-4.39299 L -100.959,-4.45982
 L -100.91,-4.52196 L -100.859,-4.57913 L -100.805,-4.63133 L -100.748,-4.67856 L -100.688,-4.72081 L -100.625,-4.75809
 L -100.56,-4.79041 L -100.491,-4.81775 L -100.42,-4.84012 L -100.346,-4.85751 L -100.269,-4.86995 L -100.189,-4.8774
 L -100.107,-4.87988 L -100.012,-4.87772 L -99.9214,-4.87119 L -99.8409,-4.86113 z
M 99.4366,6.51741 L 98.7975,13.0069 L 97.7352,19.4408 L 96.2545,25.7913 L 94.3616,32.0314 L 92.0646,38.1344
 L 89.3734,44.0741 L 86.2994,49.825 L 82.8559,55.3626 L 79.0576,60.6631 L 74.9208,65.7038 L 70.4632,70.4632
 L 65.7038,74.9208 L 60.6631,79.0576 L 55.3626,82.8559 L 49.825,86.2994 L 44.0741,89.3734 L 38.1344,92.0646
 L 32.0314,94.3616 L 25.7913,96.2545 L 19.4408,97.7352 L 13.0069,98.7975 L 6.51741,99.4366 L 0,99.65
 L -6.51741,99.4366 L -13.0069,98.7975 L -19.4408,97.7352 L -21.67,97.2155 L -21.2569,97.2155 L -21.2569,92.7866
 L -21.9831,92.7866 L -21.9831,96.2756 L -22.0344,96.2526 L -22.086,96.2275 L -22.1379,96.2002 L -22.1901,96.1709
 L -22.2426,96.1394 L -22.2954,96.1057 L -22.3485,96.0699 L -22.402,96.032 L -22.4557,95.992 L -22.5098,95.9498
 L -22.5641,95.9055 L -22.6188,95.859 L -22.6738,95.8104 L -22.7295,95.7594 L -22.7862,95.7058 L -22.8439,95.6496
 L -22.9027,95.5907 L -22.9625,95.5291 L -23.0233,95.4649 L -23.0852,95.3981 L -23.1481,95.3286 L -23.2121,95.2565
 L -23.2771,95.1818 L -23.3432,95.1044 L -23.4103,95.0244 L -23.4784,94.9417 L -23.6,94.7929 L -23.7167,94.6516
 L -23.8283,94.5179 L -23.935,94.3918 L -24.0366,94.2733 L -24.1333,94.1624 L -24.2249,94.0591 L -24.3116,93.9633
 L -24.3932,93.8752 L -24.4699,93.7946 L -24.5415,93.7216 L -24.6082,93.6562 L -24.6698,93.5983 L -24.729,93.5453
 L -24.7881,93.4944 L -24.8473,93.4454 L -24.9065,93.3986 L -24.9656,93.3538 L -25.0248,93.311 L -25.0839,93.2703
 L -25.1431,93.2316 L -25.2022,93.195 L -25.2614,93.1605 L -25.3205,93.1279 L -25.3797,93.0975 L -25.4389,93.0691
 L -25.498,93.0427 L -25.5573,93.0185 L -25.6166,92.9964 L -25.6759,92.9764 L -25.7353,92.9585 L -25.7948,92.9427
 L -25.8543,92.929 L -25.9139,92.9174 L -25.9735,92.9079 L -26.0332,92.9005 L -26.0929,92.8953 L -26.1527,92.8921
 L -26.2126,92.8911 L -26.3453,92.8943 L -26.4733,92.9039 L -26.5965,92.92 L -26.715,92.9425 L -26.8288,92.9715
 L -26.9378,93.0069 L -27.042,93.0487 L -27.1415,93.0969 L -27.2363,93.1516 L -27.3263,93.2127 L -27.4116,93.2802
 L -27.4921,93.3542 L -27.5678,93.4346 L -27.6384,93.521 L -27.7033,93.6129 L -27.7626,93.7103 L -27.8162,93.8133
 L -27.8642,93.9218 L -27.9066,94.0359 L -27.9433,94.1555 L -27.9743,94.2806 L -27.9997,94.4112 L -28.0195,94.5474
 L -28.0336,94.6891 L -28.0421,94.8364 L -28.0449,94.9892 L -28.0421,95.1289 L -28.0336,95.2646 L -28.0196,95.3964
 L -27.9999,95.5242 L -27.9868,95.5885 L -32.0314,94.3616 L -38.1344,92.0646 L -44.0741,89.3734 L -49.825,86.2994
 L -55.3626,82.8559 L -60.6631,79.0576 L -65.7038,74.9208 L -70.4632,70.4632 L -74.9208,65.7038 L -79.0576,60.6631
 L -82.8559,55.3626 L -86.2994,49.825 L -89.3734,44.0741 L -92.0646,38.1344 L -94.3616,32.0314 L -96.2545,25.7913
 L -97.7352,19.4408 L -98.7975,13.0069 L -99.4366,6.51741 L -99.4852,5.03424 L -99.4168,4.99059 L -99.3116,4.91652
 L -99.2107,4.83829 L -99.1141,4.75591 L -99.0217,4.66937 L -98.9336,4.57867 L -98.8497,4.48381 L -98.7702,4.3848
 L -98.6948,4.28163 L -98.6238,4.1743 L -98.557,4.06282 L -98.4949,3.94765 L -98.4377,3.82924 L -98.3855,3.7076
 L -98.3383,3.58273 L -98.296,3.45464 L -98.2588,3.32332 L -98.2264,3.18875 L -98.1991,3.05096 L -98.1767,2.90996
 L -98.1593,2.7657 L -98.1469,2.61823 L -98.1395,2.46753 L -98.137,2.31358 L -98.1396,2.16312 L -98.1476,2.01547
 L -98.161,1.87065 L -98.1797,1.72868 L -98.2037,1.58955 L -98.233,1.45326 L -98.2677,1.31981 L -98.3077,1.18918
 L -98.3531,1.0614 L -98.4038,0.936447 L -98.4598,0.814346 L -98.5212,0.695068 L -98.5879,0.578644 L -98.6597,0.465591
 L -98.7364,0.356506 L -98.818,0.251389 L -98.9045,0.150223 L -98.9959,0.0530243 L -99.0921,-0.0401917 L -99.1933,-0.129471
 L -99.2993,-0.214783 L -99.4102,-0.296143 L -99.526,-0.373535 L -99.6356,-0.440186 L -99.6099,-1.22418 L -99.5596,-1.23709
 L -99.4397,-1.27498 L -99.3251,-1.31866 L -99.2157,-1.36818 L -99.1114,-1.42351 L -99.0124,-1.48463 L -98.9185,-1.55159
 L -98.8298,-1.62434 L -98.7464,-1.70293 L -98.6681,-1.78731 L -98.595,-1.87752 L -98.5273,-1.97305 L -98.4649,-2.07346
 L -98.408,-2.17871 L -98.3565,-2.28883 L -98.3104,-2.40381 L -98.2698,-2.52365 L -98.2345,-2.64835 L -98.2047,-2.77791
 L -98.1803,-2.91232 L -98.1614,-3.05159 L -98.1478,-3.19572 L -98.1397,-3.34473 L -98.137,-3.49858 L -98.14,-3.66357
 L -98.149,-3.8226 L -98.164,-3.97568 L -98.185,-4.1228 L -98.2121,-4.26398 L -98.2452,-4.39919 L -98.2842,-4.52844
 L -98.3293,-4.65175 L -98.3804,-4.76909 L -98.4375,-4.88048 L -98.5006,-4.98592 L -98.5697,-5.0854 L -98.6449,-5.17892
 L -98.7255,-5.26601 L -98.8111,-5.34612 L -98.9016,-5.41925 L -98.997,-5.48543 L -99.0974,-5.54465 L -99.2027,-5.59689
 L -99.313,-5.64217 L -99.4282,-5.68048 L -99.4637,-5.68974 L -99.4366,-6.51741 L -98.7975,-13.0069 L -97.7352,-19.4408
 L -96.2545,-25.7913 L -94.3616,-32.0314 L -92.0646,-38.1344 L -89.3734,-44.0741 L -86.2994,-49.825 L -82.8559,-55.3626
 L -79.0576,-60.6631 L -74.9208,-65.7038 L -70.4632,-70.4632 L -65.7038,-74.9208 L -60.6631,-79.0576 L -55.3626,-82.8559
 L -49.825,-86.2994 L -44.0741,-89.3734 L -38.1344,-92.0646 L -32.0314,-94.3616 L -25.7913,-96.2545 L -21.3773,-97.2837
 L -21.3671,-97.1418 L -21.3402,-96.9263 L -21.3027,-96.7187 L -21.2544,-96.5189 L -21.1954,-96.327 L -21.1256,-96.143
 L -21.0452,-95.9668 L -20.954,-95.7985 L -20.852,-95.6381 L -20.7394,-95.4855 L -20.616,-95.3408 L -20.4819,-95.2039
 L -20.3383,-95.0762 L -20.1865,-94.9586 L -20.0265,-94.8512 L -19.8583,-94.7541 L -19.6819,-94.6672 L -19.4973,-94.5906
 L -19.3046,-94.5241 L -19.1035,-94.4679 L -18.8943,-94.4219 L -18.6769,-94.3861 L -18.4513,-94.3605 L -18.2175,-94.3452
 L -17.9755,-94.3401 L -17.8129,-94.3424 L -17.6537,-94.3492 L -17.4979,-94.3607 L -17.3455,-94.3767 L -17.1964,-94.3973
 L -17.0508,-94.4225 L -16.9086,-94.4522 L -16.7698,-94.4866 L -16.6343,-94.5255 L -16.5023,-94.569 L -16.3737,-94.617
 L -16.2485,-94.6697 L -16.1266,-94.7269 L -16.0086,-94.7885 L -15.8949,-94.8543 L -15.7854,-94.9242 L -15.6803,-94.9982
 L -15.5793,-95.0765 L -15.4827,-95.1589 L -15.3903,-95.2454 L -15.3022,-95.3361 L -15.2183,-95.431 L -15.1388,-95.53
 L -15.0634,-95.6331 L -14.9924,-95.7405 L -14.9256,-95.8519 L -14.8635,-95.9671 L -14.8063,-96.0855 L -14.7541,-96.2072
 L -14.7069,-96.332 L -14.6646,-96.4601 L -14.6274,-96.5914 L -14.595,-96.726 L -14.5677,-96.8638 L -14.5453,-97.0048
 L -14.5279,-97.1491 L -14.5155,-97.2965 L -14.5081,-97.4472 L -14.5056,-97.6012 L -14.5082,-97.7516 L -14.5162,-97.8993
 L -14.5296,-98.0441 L -14.5483,-98.1861 L -14.5723,-98.3252 L -14.6016,-98.4615 L -14.6198,-98.5312 L -13.0069,-98.7975
 L -6.51741,-99.4366 L 0,-99.65 L 6.51741,-99.4366 L 13.0069,-98.7975 L 19.4408,-97.7352 L 24.4835,-96.5594
 L 20.864,-82.3685 L 16.5827,-83.3667 L 11.0947,-84.2728 L 5.55927,-84.818 L 0,-85 L -5.55927,-84.818
 L -11.0947,-84.2728 L -16.5827,-83.3667 L -21.9996,-82.1037 L -27.3223,-80.4891 L -32.5281,-78.5298 L -37.5945,-76.2342
 L -42.5,-73.6122 L -47.2235,-70.6749 L -51.7447,-67.435 L -56.0444,-63.9064 L -60.1041,-60.1041 L -63.9064,-56.0444
 L -67.435,-51.7447 L -70.6749,-47.2235 L -73.6122,-42.5 L -76.2342,-37.5945 L -78.5298,-32.5281 L -80.4891,-27.3223
 L -82.1037,-21.9996 L -83.3667,-16.5827 L -84.2728,-11.0947 L -84.818,-5.55927 L -85,-0 L -84.818,5.55927
 L -84.2728,11.0947 L -83.3667,16.5827 L -82.1037,21.9996 L -80.4891,27.3223 L -78.5298,32.5281 L -76.2342,37.5945
 L -73.6122,42.5 L -70.6749,47.2235 L -67.435,51.7447 L -63.9064,56.0444 L -60.1041,60.1041 L -56.0444,63.9064
 L -51.7447,67.435 L -47.2235,70.6749 L -42.5,73.6122 L -37.5945,76.2342 L -32.5281,78.5298 L -27.3223,80.4891
 L -21.9996,82.1037 L -16.5827,83.3667 L -11.0947,84.2728 L -5.55927,84.818 L 0,85 L 5.55927,84.818
 L 11.0947,84.2728 L 16.5827,83.3667 L 21.9996,82.1037 L 27.3223,80.4891 L 32.5281,78.5298 L 37.5945,76.2342
 L 42.5,73.6122 L 47.2235,70.6749 L 51.7447,67.435 L 56.0444,63.9064 L 60.1041,60.1041 L 63.9064,56.0444
 L 67.435,51.7447 L 70.6749,47.2235 L 73.6122,42.5 L 76.2342,37.5945 L 78.5298,32.5281 L 80.4891,27.3223
 L 82.1037,21.9996 L 83.3667,16.5827 L 84.2728,11.0947 L 84.818,5.55927 L 85,-0 L 84.818,-5.55927
 L 84.2728,-11.0947 L 83.3667,-16.5827 L 82.1037,-21.9996 L 80.4891,-27.3223 L 79.6025,-29.6779 L 79.645,-29.6939
 L 79.4725,-30.1525 L 79.4299,-30.1365 L 78.5298,-32.5281 L 76.2342,-37.5945 L 73.6122,-42.5 L 70.6749,-47.2235
 L 67.435,-51.7447 L 63.9064,-56.0444 L 63.5542,-56.4204 L 74.4915,-66.1622 L 74.9208,-65.7038 L 79.0576,-60.6631
 L 82.8559,-55.3626 L 86.2994,-49.825 L 89.3734,-44.0741 L 92.0646,-38.1344 L 94.3616,-32.0314 L 96.2545,-25.7913
 L 96.3558,-25.357 L 95.8272,-25.357 L 95.8272,-24.569 L 96.9049,-23.0017 L 97.2073,-21.7051 L 97.1411,-21.6726
 L 97.0266,-21.6095 L 96.917,-21.5419 L 96.8122,-21.4698 L 96.7121,-21.3933 L 96.6168,-21.3122 L 96.5263,-21.2267
 L 96.4405,-21.1366 L 96.3595,-21.0421 L 96.2833,-20.943 L 96.2119,-20.8395 L 96.1453,-20.7315 L 96.0835,-20.6191
 L 96.0266,-20.5026 L 95.9747,-20.3819 L 95.9277,-20.2571 L 95.8857,-20.1282 L 95.8486,-19.995 L 95.8165,-19.8577
 L 95.7893,-19.7163 L 95.767,-19.5707 L 95.7497,-19.4209 L 95.7374,-19.267 L 95.73,-19.1089 L 95.7275,-18.9467
 L 95.7329,-18.7154 L 95.749,-18.4921 L 95.7758,-18.2766 L 95.8133,-18.069 L 95.8616,-17.8692 L 95.9206,-17.6773
 L 95.9904,-17.4933 L 96.0708,-17.3171 L 96.162,-17.1488 L 96.264,-16.9883 L 96.3766,-16.8358 L 96.5,-16.6911
 L 96.6341,-16.5542 L 96.7777,-16.4264 L 96.9295,-16.3088 L 97.0895,-16.2015 L 97.2577,-16.1044 L 97.4341,-16.0175
 L 97.6187,-15.9408 L 97.8115,-15.8744 L 98.0125,-15.8181 L 98.2217,-15.7721 L 98.3443,-15.752 L 98.7975,-13.0069
 L 99.4366,-6.51741 L 99.65,-0 z
M -90.5043,-0.130798 L -90.5171,-0.261047 L -90.5384,-0.390167 L -90.5682,-0.517624 L -90.6061,-0.642868 L -90.6523,-0.765366
 L -90.7063,-0.884567 L -90.768,-1 L -90.8371,-1.11113 L -90.9133,-1.21751 L -90.9963,-1.31868 L -91.0858,-1.4142
 L -91.1813,-1.50368 L -91.2825,-1.5867 L -91.3889,-1.66293 L -91.5,-1.73204 L -91.6154,-1.79373 L -91.7346,-1.84775
 L -91.8571,-1.89386 L -91.9824,-1.93184 L -92.1098,-1.96156 L -92.239,-1.98288 L -92.3692,-1.99571 L -92.5,-2
 L -92.6308,-1.99571 L -92.761,-1.98288 L -92.8902,-1.96156 L -93.0176,-1.93184 L -93.1429,-1.89386 L -93.2654,-1.84775
 L -93.3846,-1.79373 L -93.5,-1.73204 L -93.6111,-1.66293 L -93.7175,-1.5867 L -93.8187,-1.50368 L -93.9142,-1.4142
 L -94.0037,-1.31868 L -94.0867,-1.21751 L -94.1629,-1.11113 L -94.232,-1 L -94.2937,-0.884567 L -94.3477,-0.765366
 L -94.3939,-0.642868 L -94.4318,-0.517624 L -94.4616,-0.390167 L -94.4829,-0.261047 L -94.4957,-0.130798 L -94.5,-0
 L -94.4957,0.130798 L -94.4829,0.261047 L -94.4616,0.390167 L -94.4318,0.517624 L -94.3939,0.642868 L -94.3477,0.765366
 L -94.2937,0.884567 L -94.232,1 L -94.1629,1.11113 L -94.0867,1.21751 L -94.0037,1.31868 L -93.9142,1.4142
 L -93.8187,1.50368 L -93.7175,1.5867 L -93.6111,1.66293 L -93.5,1.73204 L -93.3846,1.79373 L -93.2654,1.84775
 L -93.1429,1.89386 L -93.0176,1.93184 L -92.8902,1.96156 L -92.761,1.98288 L -92.6308,1.99571 L -92.5,2
 L -92.3692,1.99571 L -92.239,1.98288 L -92.1098,1.96156 L -91.9824,1.93184 L -91.8571,1.89386 L -91.7346,1.84775
 L -91.6154,1.79373 L -91.5,1.73204 L -91.3889,1.66293 L -91.2825,1.5867 L -91.1813,1.50368 L -91.0858,1.4142
 L -90.9963,1.31868 L -90.9133,1.21751 L -90.8371,1.11113 L -90.768,1 L -90.7063,0.884567 L -90.6523,0.765366
 L -90.6061,0.642868 L -90.5682,0.517624 L -90.5384,0.390167 L -90.5171,0.261047 L -90.5043,0.130798 L -90.5,-0
 z
M -90.8535,0.10791 L -90.8641,0.215363 L -90.8817,0.321884 L -90.9062,0.427048 L -90.9376,0.530365 L -90.9756,0.631424
 L -91.0202,0.729767 L -91.0711,0.824997 L -91.1281,0.916687 L -91.191,1.00446 L -91.2595,1.08791 L -91.3333,1.16672
 L -91.4121,1.24052 L -91.4955,1.30902 L -91.5833,1.37192 L -91.675,1.42894 L -91.7702,1.47983 L -91.8686,1.5244
 L -91.9696,1.56242 L -92.073,1.59377 L -92.1781,1.61829 L -92.2846,1.63588 L -92.3921,1.64645 L -92.5,1.64999
 L -92.6079,1.64645 L -92.7154,1.63588 L -92.8219,1.61829 L -92.927,1.59377 L -93.0304,1.56242 L -93.1314,1.5244
 L -93.2298,1.47983 L -93.325,1.42894 L -93.4167,1.37192 L -93.5045,1.30902 L -93.5879,1.24052 L -93.6667,1.16672
 L -93.7405,1.08791 L -93.809,1.00446 L -93.8719,0.916687 L -93.9289,0.824997 L -93.9798,0.729767 L -94.0244,0.631424
 L -94.0624,0.530365 L -94.0938,0.427048 L -94.1183,0.321884 L -94.1359,0.215363 L -94.1465,0.10791 L -94.15,-0
 L -94.1465,-0.10791 L -94.1359,-0.215363 L -94.1183,-0.321884 L -94.0938,-0.427048 L -94.0624,-0.530365 L -94.0244,-0.631424
 L -93.9798,-0.729767 L -93.9289,-0.824997 L -93.8719,-0.916687 L -93.809,-1.00446 L -93.7405,-1.08791 L -93.6667,-1.16672
 L -93.5879,-1.24052 L -93.5045,-1.30902 L -93.4167,-1.37192 L -93.325,-1.42894 L -93.2298,-1.47983 L -93.1314,-1.5244
 L -93.0304,-1.56242 L -92.927,-1.59377 L -92.8219,-1.61829 L -92.7154,-1.63588 L -92.6079,-1.64645 L -92.5,-1.64999
 L -92.3921,-1.64645 L -92.2846,-1.63588 L -92.1781,-1.61829 L -92.073,-1.59377 L -91.9696,-1.56242 L -91.8686,-1.5244
 L -91.7702,-1.47983 L -91.675,-1.42894 L -91.5833,-1.37192 L -91.4955,-1.30902 L -91.4121,-1.24052 L -91.3333,-1.16672
 L -91.2595,-1.08791 L -91.191,-1.00446 L -91.1281,-0.916687 L -91.0711,-0.824997 L -91.0202,-0.729767 L -90.9756,-0.631424
 L -90.9376,-0.530365 L -90.9062,-0.427048 L -90.8817,-0.321884 L -90.8641,-0.215363 L -90.8535,-0.10791 L -90.85,-0
 z
M -20.3546,89.6284 L -20.3675,89.4981 L -20.3888,89.369 L -20.4185,89.2415 L -20.4565,89.1163 L -20.5026,88.9938
 L -20.5566,88.8746 L -20.6183,88.7592 L -20.6874,88.648 L -20.7637,88.5417 L -20.8467,88.4405 L -20.9362,88.345
 L -21.0317,88.2555 L -21.1328,88.1725 L -21.2392,88.0962 L -21.3504,88.0271 L -21.4658,87.9654 L -21.585,87.9114
 L -21.7075,87.8653 L -21.8327,87.8273 L -21.9602,87.7976 L -22.0893,87.7763 L -22.2196,87.7635 L -22.3504,87.7592
 L -22.4812,87.7635 L -22.6114,87.7763 L -22.7405,87.7976 L -22.868,87.8273 L -22.9932,87.8653 L -23.1157,87.9114
 L -23.2349,87.9654 L -23.3504,88.0271 L -23.4615,88.0962 L -23.5679,88.1725 L -23.669,88.2555 L -23.7646,88.345
 L -23.854,88.4405 L -23.9371,88.5417 L -24.0133,88.648 L -24.0824,88.7592 L -24.1441,88.8746 L -24.1981,88.9938
 L -24.2442,89.1163 L -24.2822,89.2415 L -24.3119,89.369 L -24.3332,89.4981 L -24.3461,89.6284 L -24.3504,89.7592
 L -24.3461,89.89 L -24.3332,90.0202 L -24.3119,90.1493 L -24.2822,90.2768 L -24.2442,90.402 L -24.1981,90.5245
 L -24.1441,90.6437 L -24.0824,90.7592 L -24.0133,90.8703 L -23.9371,90.9767 L -23.854,91.0779 L -23.7646,91.1734
 L -23.669,91.2628 L -23.5679,91.3459 L -23.4615,91.4221 L -23.3504,91.4912 L -23.2349,91.5529 L -23.1157,91.6069
 L -22.9932,91.653 L -22.868,91.691 L -22.7405,91.7207 L -22.6114,91.7421 L -22.4812,91.7549 L -22.3504,91.7592
 L -22.2196,91.7549 L -22.0893,91.7421 L -21.9602,91.7207 L -21.8327,91.691 L -21.7075,91.653 L -21.585,91.6069
 L -21.4658,91.5529 L -21.3504,91.4912 L -21.2392,91.4221 L -21.1328,91.3459 L -21.0317,91.2628 L -20.9362,91.1734
 L -20.8467,91.0779 L -20.7637,90.9767 L -20.6874,90.8703 L -20.6183,90.7592 L -20.5566,90.6437 L -20.5026,90.5245
 L -20.4565,90.402 L -20.4185,90.2768 L -20.3888,90.1493 L -20.3675,90.0202 L -20.3546,89.89 L -20.3504,89.7592
 z
M -20.7039,89.8671 L -20.7145,89.9745 L -20.7321,90.0811 L -20.7566,90.1862 L -20.7879,90.2895 L -20.826,90.3906
 L -20.8705,90.4889 L -20.9214,90.5842 L -20.9784,90.6759 L -21.0413,90.7636 L -21.1098,90.8471 L -21.1836,90.9259
 L -21.2625,90.9997 L -21.3459,91.0682 L -21.4337,91.1311 L -21.5254,91.1881 L -21.6206,91.239 L -21.7189,91.2836
 L -21.82,91.3216 L -21.9233,91.3529 L -22.0285,91.3775 L -22.135,91.3951 L -22.2424,91.4056 L -22.3504,91.4092
 L -22.4583,91.4056 L -22.5657,91.3951 L -22.6722,91.3775 L -22.7774,91.3529 L -22.8807,91.3216 L -22.9818,91.2836
 L -23.0801,91.239 L -23.1754,91.1881 L -23.267,91.1311 L -23.3548,91.0682 L -23.4383,90.9997 L -23.5171,90.9259
 L -23.5909,90.8471 L -23.6594,90.7636 L -23.7223,90.6759 L -23.7793,90.5842 L -23.8302,90.4889 L -23.8748,90.3906
 L -23.9128,90.2895 L -23.9441,90.1862 L -23.9686,90.0811 L -23.9862,89.9745 L -23.9968,89.8671 L -24.0004,89.7592
 L -23.9968,89.6513 L -23.9862,89.5438 L -23.9686,89.4373 L -23.9441,89.3321 L -23.9128,89.2288 L -23.8748,89.1277
 L -23.8302,89.0294 L -23.7793,88.9342 L -23.7223,88.8425 L -23.6594,88.7547 L -23.5909,88.6713 L -23.5171,88.5925
 L -23.4383,88.5186 L -23.3548,88.4501 L -23.267,88.3873 L -23.1754,88.3302 L -23.0801,88.2793 L -22.9818,88.2348
 L -22.8807,88.1967 L -22.7774,88.1654 L -22.6722,88.1409 L -22.5657,88.1233 L -22.4583,88.1127 L -22.3504,88.1092
 L -22.2424,88.1127 L -22.135,88.1233 L -22.0285,88.1409 L -21.9233,88.1654 L -21.82,88.1967 L -21.7189,88.2348
 L -21.6206,88.2793 L -21.5254,88.3302 L -21.4337,88.3873 L -21.3459,88.4501 L -21.2625,88.5186 L -21.1836,88.5925
 L -21.1098,88.6713 L -21.0413,88.7547 L -20.9784,88.8425 L -20.9214,88.9342 L -20.8705,89.0294 L -20.826,89.1277
 L -20.7879,89.2288 L -20.7566,89.3321 L -20.7321,89.4373 L -20.7145,89.5438 L -20.7039,89.6513 L -20.7004,89.7592
 z
M -14.2885,-91.1861 L -14.3013,-91.3164 L -14.3226,-91.4455 L -14.3524,-91.573 L -14.3903,-91.6982 L -14.4364,-91.8207
 L -14.4905,-91.9399 L -14.5522,-92.0553 L -14.6213,-92.1665 L -14.6975,-92.2728 L -14.7805,-92.374 L -14.87,-92.4695
 L -14.9655,-92.559 L -15.0667,-92.642 L -15.1731,-92.7183 L -15.2842,-92.7874 L -15.3996,-92.8491 L -15.5188,-92.9031
 L -15.6413,-92.9492 L -15.7666,-92.9872 L -15.894,-93.0169 L -16.0231,-93.0382 L -16.1534,-93.051 L -16.2842,-93.0553
 L -16.415,-93.051 L -16.5452,-93.0382 L -16.6744,-93.0169 L -16.8018,-92.9872 L -16.9271,-92.9492 L -17.0496,-92.9031
 L -17.1688,-92.8491 L -17.2842,-92.7874 L -17.3953,-92.7183 L -17.5017,-92.642 L -17.6029,-92.559 L -17.6984,-92.4695
 L -17.7879,-92.374 L -17.8709,-92.2728 L -17.9471,-92.1665 L -18.0162,-92.0553 L -18.0779,-91.9399 L -18.1319,-91.8207
 L -18.1781,-91.6982 L -18.216,-91.573 L -18.2458,-91.4455 L -18.2671,-91.3164 L -18.2799,-91.1861 L -18.2842,-91.0553
 L -18.2799,-90.9245 L -18.2671,-90.7943 L -18.2458,-90.6652 L -18.216,-90.5377 L -18.1781,-90.4125 L -18.1319,-90.29
 L -18.0779,-90.1708 L -18.0162,-90.0553 L -17.9471,-89.9442 L -17.8709,-89.8378 L -17.7879,-89.7366 L -17.6984,-89.6411
 L -17.6029,-89.5517 L -17.5017,-89.4686 L -17.3953,-89.3924 L -17.2842,-89.3233 L -17.1688,-89.2616 L -17.0496,-89.2076
 L -16.9271,-89.1615 L -16.8018,-89.1235 L -16.6744,-89.0938 L -16.5452,-89.0724 L -16.415,-89.0596 L -16.2842,-89.0553
 L -16.1534,-89.0596 L -16.0231,-89.0724 L -15.894,-89.0938 L -15.7666,-89.1235 L -15.6413,-89.1615 L -15.5188,-89.2076
 L -15.3996,-89.2616 L -15.2842,-89.3233 L -15.1731,-89.3924 L -15.0667,-89.4686 L -14.9655,-89.5517 L -14.87,-89.6411
 L -14.7805,-89.7366 L -14.6975,-89.8378 L -14.6213,-89.9442 L -14.5522,-90.0553 L -14.4905,-90.1708 L -14.4364,-90.29
 L -14.3903,-90.4125 L -14.3524,-90.5377 L -14.3226,-90.6652 L -14.3013,-90.7943 L -14.2885,-90.9245 L -14.2842,-91.0553
 z
M -14.6377,-90.9474 L -14.6483,-90.84 L -14.6659,-90.7334 L -14.6904,-90.6283 L -14.7218,-90.525 L -14.7598,-90.4239
 L -14.8044,-90.3256 L -14.8553,-90.2303 L -14.9123,-90.1386 L -14.9752,-90.0509 L -15.0437,-89.9674 L -15.1175,-89.8886
 L -15.1963,-89.8148 L -15.2797,-89.7463 L -15.3675,-89.6834 L -15.4592,-89.6264 L -15.5544,-89.5755 L -15.6528,-89.5309
 L -15.7538,-89.4929 L -15.8571,-89.4616 L -15.9623,-89.437 L -16.0688,-89.4194 L -16.1763,-89.4089 L -16.2842,-89.4053
 L -16.3921,-89.4089 L -16.4996,-89.4194 L -16.6061,-89.437 L -16.7112,-89.4616 L -16.8146,-89.4929 L -16.9156,-89.5309
 L -17.014,-89.5755 L -17.1092,-89.6264 L -17.2009,-89.6834 L -17.2887,-89.7463 L -17.3721,-89.8148 L -17.4509,-89.8886
 L -17.5247,-89.9674 L -17.5932,-90.0509 L -17.6561,-90.1386 L -17.7131,-90.2303 L -17.764,-90.3256 L -17.8086,-90.4239
 L -17.8466,-90.525 L -17.878,-90.6283 L -17.9025,-90.7334 L -17.9201,-90.84 L -17.9306,-90.9474 L -17.9342,-91.0553
 L -17.9306,-91.1632 L -17.9201,-91.2707 L -17.9025,-91.3772 L -17.878,-91.4824 L -17.8466,-91.5857 L -17.8086,-91.6868
 L -17.764,-91.7851 L -17.7131,-91.8803 L -17.6561,-91.972 L -17.5932,-92.0598 L -17.5247,-92.1432 L -17.4509,-92.222
 L -17.3721,-92.2959 L -17.2887,-92.3643 L -17.2009,-92.4272 L -17.1092,-92.4843 L -17.014,-92.5352 L -16.9156,-92.5797
 L -16.8146,-92.6178 L -16.7112,-92.6491 L -16.6061,-92.6736 L -16.4996,-92.6912 L -16.3921,-92.7018 L -16.2842,-92.7053
 L -16.1763,-92.7018 L -16.0688,-92.6912 L -15.9623,-92.6736 L -15.8571,-92.6491 L -15.7538,-92.6178 L -15.6528,-92.5797
 L -15.5544,-92.5352 L -15.4592,-92.4843 L -15.3675,-92.4272 L -15.2797,-92.3643 L -15.1963,-92.2959 L -15.1175,-92.222
 L -15.0437,-92.1432 L -14.9752,-92.0598 L -14.9123,-91.972 L -14.8553,-91.8803 L -14.8044,-91.7851 L -14.7598,-91.6868
 L -14.7218,-91.5857 L -14.6904,-91.4824 L -14.6659,-91.3772 L -14.6483,-91.2707 L -14.6377,-91.1632 L -14.6342,-91.0553
 z
M 92.4429,-19.5103 L 92.43,-19.6405 L 92.4087,-19.7696 L 92.379,-19.8971 L 92.341,-20.0223 L 92.2949,-20.1448
 L 92.2409,-20.264 L 92.1792,-20.3795 L 92.1101,-20.4906 L 92.0338,-20.597 L 91.9508,-20.6981 L 91.8613,-20.7937
 L 91.7658,-20.8831 L 91.6647,-20.9662 L 91.5583,-21.0424 L 91.4471,-21.1115 L 91.3317,-21.1732 L 91.2125,-21.2272
 L 91.09,-21.2733 L 90.9648,-21.3113 L 90.8373,-21.341 L 90.7082,-21.3623 L 90.5779,-21.3752 L 90.4471,-21.3795
 L 90.3163,-21.3752 L 90.1861,-21.3623 L 90.057,-21.341 L 89.9295,-21.3113 L 89.8043,-21.2733 L 89.6818,-21.2272
 L 89.5626,-21.1732 L 89.4471,-21.1115 L 89.336,-21.0424 L 89.2296,-20.9662 L 89.1285,-20.8831 L 89.0329,-20.7937
 L 88.9435,-20.6981 L 88.8604,-20.597 L 88.7842,-20.4906 L 88.7151,-20.3795 L 88.6534,-20.264 L 88.5994,-20.1448
 L 88.5533,-20.0223 L 88.5153,-19.8971 L 88.4856,-19.7696 L 88.4643,-19.6405 L 88.4514,-19.5103 L 88.4471,-19.3795
 L 88.4514,-19.2487 L 88.4643,-19.1184 L 88.4856,-18.9893 L 88.5153,-18.8618 L 88.5533,-18.7366 L 88.5994,-18.6141
 L 88.6534,-18.4949 L 88.7151,-18.3795 L 88.7842,-18.2683 L 88.8604,-18.1619 L 88.9435,-18.0608 L 89.0329,-17.9653
 L 89.1285,-17.8758 L 89.2296,-17.7928 L 89.336,-17.7165 L 89.4471,-17.6474 L 89.5626,-17.5857 L 89.6818,-17.5317
 L 89.8043,-17.4856 L 89.9295,-17.4476 L 90.057,-17.4179 L 90.1861,-17.3966 L 90.3163,-17.3837 L 90.4471,-17.3795
 L 90.5779,-17.3837 L 90.7082,-17.3966 L 90.8373,-17.4179 L 90.9648,-17.4476 L 91.09,-17.4856 L 91.2125,-17.5317
 L 91.3317,-17.5857 L 91.4471,-17.6474 L 91.5583,-17.7165 L 91.6647,-17.7928 L 91.7658,-17.8758 L 91.8613,-17.9653
 L 91.9508,-18.0608 L 92.0338,-18.1619 L 92.1101,-18.2683 L 92.1792,-18.3795 L 92.2409,-18.4949 L 92.2949,-18.6141
 L 92.341,-18.7366 L 92.379,-18.8618 L 92.4087,-18.9893 L 92.43,-19.1184 L 92.4429,-19.2487 L 92.4471,-19.3795
 z
M 92.0936,-19.2715 L 92.083,-19.1641 L 92.0654,-19.0576 L 92.0409,-18.9524 L 92.0096,-18.8491 L 91.9715,-18.748
 L 91.927,-18.6497 L 91.8761,-18.5545 L 91.8191,-18.4628 L 91.7562,-18.375 L 91.6877,-18.2915 L 91.6139,-18.2127
 L 91.535,-18.1389 L 91.4516,-18.0704 L 91.3638,-18.0075 L 91.2721,-17.9505 L 91.1769,-17.8996 L 91.0786,-17.8551
 L 90.9775,-17.817 L 90.8742,-17.7857 L 90.769,-17.7612 L 90.6625,-17.7436 L 90.5551,-17.733 L 90.4471,-17.7295
 L 90.3392,-17.733 L 90.2318,-17.7436 L 90.1253,-17.7612 L 90.0201,-17.7857 L 89.9168,-17.817 L 89.8157,-17.8551
 L 89.7174,-17.8996 L 89.6221,-17.9505 L 89.5305,-18.0075 L 89.4427,-18.0704 L 89.3592,-18.1389 L 89.2804,-18.2127
 L 89.2066,-18.2915 L 89.1381,-18.375 L 89.0752,-18.4628 L 89.0182,-18.5545 L 88.9673,-18.6497 L 88.9227,-18.748
 L 88.8847,-18.8491 L 88.8534,-18.9524 L 88.8289,-19.0576 L 88.8113,-19.1641 L 88.8007,-19.2715 L 88.7971,-19.3795
 L 88.8007,-19.4874 L 88.8113,-19.5948 L 88.8289,-19.7013 L 88.8534,-19.8065 L 88.8847,-19.9098 L 88.9227,-20.0109
 L 88.9673,-20.1092 L 89.0182,-20.2045 L 89.0752,-20.2961 L 89.1381,-20.3839 L 89.2066,-20.4674 L 89.2804,-20.5462
 L 89.3592,-20.62 L 89.4427,-20.6885 L 89.5305,-20.7514 L 89.6221,-20.8084 L 89.7174,-20.8593 L 89.8157,-20.9039
 L 89.9168,-20.9419 L 90.0201,-20.9732 L 90.1253,-20.9977 L 90.2318,-21.0153 L 90.3392,-21.0259 L 90.4471,-21.0294
 L 90.5551,-21.0259 L 90.6625,-21.0153 L 90.769,-20.9977 L 90.8742,-20.9732 L 90.9775,-20.9419 L 91.0786,-20.9039
 L 91.1769,-20.8593 L 91.2721,-20.8084 L 91.3638,-20.7514 L 91.4516,-20.6885 L 91.535,-20.62 L 91.6139,-20.5462
 L 91.6877,-20.4674 L 91.7562,-20.3839 L 91.8191,-20.2961 L 91.8761,-20.2045 L 91.927,-20.1092 L 91.9715,-20.0109
 L 92.0096,-19.9098 L 92.0409,-19.8065 L 92.0654,-19.7013 L 92.083,-19.5948 L 92.0936,-19.4874 L 92.0971,-19.3795
 z
M -98.8866,2.4369 L -98.8999,2.59756 L -98.922,2.75285 L -98.953,2.90277 L -98.9928,3.04733 L -99.0414,3.18652
 L -99.0989,3.32036 L -99.1653,3.44882 L -99.2405,3.57191 L -99.3246,3.68965 L -99.4174,3.80202 L -99.5192,3.90903
 L -99.5219,3.91154 L -99.6308,0.587631 L -99.5488,0.659821 L -99.4089,0.805786 L -99.2854,0.960022 L -99.1785,1.12251
 L -99.0879,1.29326 L -99.0139,1.47227 L -98.9563,1.65955 L -98.9151,1.85507 L -98.8904,2.05885 L -98.8822,2.27089
 z
M -98.8513,-3.30727 L -98.8723,-3.12917 L -98.9074,-2.96426 L -98.9566,-2.81256 L -99.0198,-2.67406 L -99.097,-2.54877
 L -99.1883,-2.43668 L -99.2936,-2.33777 L -99.413,-2.25208 L -99.5464,-2.17958 L -99.5791,-2.16646 L -99.4942,-4.76024
 L -99.4526,-4.74055 L -99.3872,-4.70355 L -99.3255,-4.66219 L -99.2674,-4.61647 L -99.213,-4.56639 L -99.1622,-4.51196
 L -99.1152,-4.45374 L -99.0719,-4.39221 L -99.0324,-4.32741 L -98.9967,-4.25931 L -98.9647,-4.18793 L -98.9364,-4.11327
 L -98.912,-4.03531 L -98.8913,-3.95407 L -98.8743,-3.86954 L -98.8612,-3.78174 L -98.8518,-3.69063 L -98.8461,-3.59625
 L -98.8442,-3.49858 z
M 84.4688,5.53636 L 83.9258,11.049 L 83.0235,16.5144 L 81.7656,21.909 L 80.1576,27.2098 L 78.2064,32.3941
 L 75.9203,37.4397 L 73.309,42.325 L 70.3839,47.029 L 67.1573,51.5316 L 63.6432,55.8136 L 59.8566,59.8566
 L 55.8136,63.6432 L 51.5316,67.1573 L 47.029,70.3839 L 42.325,73.309 L 37.4397,75.9203 L 32.3941,78.2064
 L 27.2098,80.1576 L 21.909,81.7656 L 16.5144,83.0235 L 11.049,83.9258 L 5.53636,84.4688 L 0,84.65
 L -5.53636,84.4688 L -11.049,83.9258 L -16.5144,83.0235 L -21.909,81.7656 L -27.2098,80.1576 L -32.3941,78.2064
 L -37.4397,75.9203 L -42.325,73.309 L -47.029,70.3839 L -51.5316,67.1573 L -55.8136,63.6432 L -59.8566,59.8566
 L -63.6432,55.8136 L -67.1573,51.5316 L -70.3839,47.029 L -73.309,42.325 L -75.9203,37.4397 L -78.2064,32.3941
 L -80.1576,27.2098 L -81.7656,21.909 L -83.0235,16.5144 L -83.9258,11.049 L -84.4688,5.53636 L -84.65,-0
 L -84.4688,-5.53636 L -83.9258,-11.049 L -83.0235,-16.5144 L -81.7656,-21.909 L -80.1576,-27.2098 L -78.2064,-32.3941
 L -75.9203,-37.4397 L -73.309,-42.325 L -70.3839,-47.029 L -67.1573,-51.5316 L -63.6432,-55.8136 L -59.8566,-59.8566
 L -55.8136,-63.6432 L -51.5316,-67.1573 L -47.029,-70.3839 L -42.325,-73.309 L -37.4397,-75.9203 L -32.3941,-78.2064
 L -27.2098,-80.1576 L -21.909,-81.7656 L -16.5144,-83.0235 L -11.049,-83.9258 L -5.53636,-84.4688 L 0,-84.65
 L 5.53636,-84.4688 L 11.049,-83.9258 L 16.5144,-83.0235 L 20.7775,-82.0294 L 0.753067,-3.519 L 0.702316,-3.53082
 L 0.469879,-3.5692 L 0.235443,-3.59229 L 0.174988,-3.59427 L 0.174988,-8 L -0.174988,-8 L -0.174988,-3.59427
 L -0.235443,-3.59229 L -0.469879,-3.5692 L -0.702316,-3.53082 L -0.931747,-3.47733 L -1.15718,-3.40894 L -1.37766,-3.32596
 L -1.59222,-3.22873 L -1.79999,-3.11769 L -2.00005,-2.99329 L -2.19153,-2.85606 L -2.37364,-2.70662 L -2.54558,-2.54558
 L -2.70662,-2.37364 L -2.85606,-2.19153 L -2.99329,-2.00005 L -3.11769,-1.79999 L -3.22873,-1.59222 L -3.32596,-1.37766
 L -3.40894,-1.15718 L -3.47733,-0.931747 L -3.53082,-0.702316 L -3.5692,-0.469879 L -3.59229,-0.235443 L -3.59427,-0.174988
 L -8,-0.174988 L -8,0.174988 L -3.59427,0.174988 L -3.59229,0.235443 L -3.5692,0.469879 L -3.53082,0.702316
 L -3.47733,0.931747 L -3.40894,1.15718 L -3.32596,1.37766 L -3.22873,1.59222 L -3.11769,1.79999 L -2.99329,2.00005
 L -2.85606,2.19153 L -2.70662,2.37364 L -2.54558,2.54558 L -2.37364,2.70662 L -2.19153,2.85606 L -2.00005,2.99329
 L -1.79999,3.11769 L -1.59222,3.22873 L -1.37766,3.32596 L -1.15718,3.40894 L -0.931747,3.47733 L -0.702316,3.53082
 L -0.469879,3.5692 L -0.235443,3.59229 L -0.174988,3.59427 L -0.174988,8 L 0.174988,8 L 0.174988,3.59427
 L 0.235443,3.59229 L 0.469879,3.5692 L 0.702316,3.53082 L 0.931747,3.47733 L 1.15718,3.40894 L 1.37766,3.32596
 L 1.59222,3.22873 L 1.79999,3.11769 L 2.00005,2.99329 L 2.19153,2.85606 L 2.37364,2.70662 L 2.54558,2.54558
 L 2.70662,2.37364 L 2.85606,2.19153 L 2.99329,2.00005 L 3.11769,1.79999 L 3.22873,1.59222 L 3.32596,1.37766
 L 3.40894,1.15718 L 3.47733,0.931747 L 3.53082,0.702316 L 3.5692,0.469879 L 3.59229,0.235443 L 3.59427,0.174988
 L 8,0.174988 L 8,-0.174988 L 3.59427,-0.174988 L 3.59229,-0.235443 L 3.5692,-0.469879 L 3.53082,-0.702316
 L 3.47733,-0.931747 L 3.44618,-1.03441 L 64.6017,-24.0359 L 64.6044,-24.0315 L 64.6463,-23.973 L 64.692,-23.9174
 L 64.7412,-23.8648 L 64.7937,-23.8156 L 64.8494,-23.7699 L 64.9079,-23.728 L 64.969,-23.69 L 65.0325,-23.6561
 L 65.0981,-23.6264 L 65.1654,-23.601 L 65.2343,-23.5801 L 65.3044,-23.5638 L 65.3754,-23.552 L 65.4471,-23.545
 L 65.519,-23.5426 L 65.5909,-23.545 L 65.6626,-23.552 L 65.7336,-23.5638 L 65.8037,-23.5801 L 65.8726,-23.601
 L 65.9399,-23.6264 L 66.0055,-23.6561 L 66.069,-23.69 L 66.1301,-23.728 L 66.1886,-23.7699 L 66.2443,-23.8156
 L 66.2968,-23.8648 L 66.346,-23.9174 L 66.3917,-23.973 L 66.4336,-24.0315 L 66.4716,-24.0926 L 66.5056,-24.1561
 L 66.5353,-24.2217 L 66.5606,-24.289 L 66.5815,-24.3579 L 66.5979,-24.428 L 66.6096,-24.4991 L 66.6166,-24.5707
 L 66.619,-24.6426 L 66.6166,-24.7146 L 66.6096,-24.7862 L 66.6088,-24.7908 L 73.517,-27.3891 L 76.3132,-27.3891
 L 76.3132,-28.0807 L 75.3561,-28.0807 L 79.2751,-29.5547 L 80.1576,-27.2098 L 81.7656,-21.909 L 83.0235,-16.5144
 L 83.9258,-11.049 L 84.4688,-5.53636 L 84.65,-0 z
M -25.7913,96.2545 L -27.061,95.8694 L -27.0895,95.8332 L -27.1299,95.7754 L -27.1668,95.7153 L -27.2001,95.6529
 L -27.23,95.5883 L -27.2563,95.5213 L -27.2792,95.4521 L -27.2985,95.3807 L -27.3143,95.3069 L -27.3266,95.2309
 L -27.3353,95.1526 L -27.3406,95.072 L -27.3424,94.9892 L -27.3406,94.9023 L -27.3352,94.8184 L -27.3262,94.7375
 L -27.3136,94.6595 L -27.2974,94.5846 L -27.2776,94.5126 L -27.2543,94.4436 L -27.2273,94.3775 L -27.1968,94.3145
 L -27.1626,94.2544 L -27.1248,94.1973 L -27.0835,94.1432 L -27.0386,94.0921 L -26.9904,94.0443 L -26.9392,94.0004
 L -26.8852,93.9602 L -26.8282,93.924 L -26.7684,93.8915 L -26.7055,93.8628 L -26.6398,93.838 L -26.5712,93.817
 L -26.4996,93.7998 L -26.4251,93.7864 L -26.3477,93.7769 L -26.2673,93.7711 L -26.1841,93.7692 L -26.1218,93.7703
 L -26.0605,93.7737 L -26.0002,93.7792 L -25.941,93.787 L -25.8827,93.797 L -25.8255,93.8092 L -25.7693,93.8236
 L -25.714,93.8402 L -25.6598,93.8591 L -25.6066,93.8802 L -25.5544,93.9035 L -25.5032,93.929 L -25.4531,93.9567
 L -25.4036,93.9863 L -25.3544,94.0172 L -25.3056,94.0495 L -25.2571,94.0831 L -25.209,94.1182 L -25.1612,94.1546
 L -25.1137,94.1924 L -25.0666,94.2316 L -25.0198,94.2721 L -24.9733,94.314 L -24.9272,94.3573 L -24.8814,94.402
 L -24.836,94.4481 L -24.7907,94.4952 L -24.7454,94.5433 L -24.7001,94.5922 L -24.6548,94.642 L -24.6096,94.6926
 L -24.5643,94.7442 L -24.519,94.7966 L -24.4738,94.8498 L -24.4285,94.904 L -24.3832,94.959 L -24.338,95.0149
 L -24.2927,95.0716 L -24.2474,95.1292 L -24.2018,95.1873 L -24.1557,95.2455 L -24.1089,95.3038 L -24.0616,95.3621
 L -24.0136,95.4206 L -23.9651,95.4791 L -23.916,95.5377 L -23.8663,95.5964 L -23.816,95.6552 L -23.7651,95.714
 L -23.7137,95.773 L -23.6616,95.832 L -23.6089,95.8911 L -23.5555,95.9501 L -23.5011,96.0086 L -23.4458,96.0667
 L -23.3895,96.1243 L -23.3323,96.1816 L -23.2741,96.2384 L -23.2149,96.2948 L -23.1548,96.3508 L -23.0937,96.4064
 L -23.0317,96.4616 L -22.9687,96.5163 L -22.9048,96.5706 L -22.8399,96.6245 L -22.7738,96.6776 L -22.7061,96.7293
 L -22.6369,96.7798 L -22.5661,96.8291 L -22.4938,96.8771 L -22.42,96.9238 L -22.3445,96.9693 L -22.2676,97.0134
 L -22.1891,97.0564 L -22.1091,97.098 L -22.0517,97.1264 z
M -15.2552,-97.4779 L -15.2685,-97.3172 L -15.2906,-97.1619 L -15.3216,-97.012 L -15.3614,-96.8674 L -15.41,-96.7282
 L -15.4675,-96.5944 L -15.5339,-96.4659 L -15.6091,-96.3428 L -15.6932,-96.2251 L -15.7861,-96.1127 L -15.8878,-96.0057
 L -15.9984,-95.9041 L -16.1163,-95.8089 L -16.2399,-95.7214 L -16.3691,-95.6415 L -16.5041,-95.5692 L -16.6448,-95.5045
 L -16.7912,-95.4474 L -16.9433,-95.3979 L -17.1011,-95.3561 L -17.2646,-95.3218 L -17.4337,-95.2952 L -17.6086,-95.2762
 L -17.7892,-95.2647 L -17.9755,-95.2609 L -18.1637,-95.2646 L -18.3457,-95.2755 L -18.5213,-95.2938 L -18.6908,-95.3194
 L -18.8539,-95.3522 L -19.0108,-95.3924 L -19.1614,-95.4398 L -19.3058,-95.4946 L -19.4438,-95.5567 L -19.5757,-95.6261
 L -19.7012,-95.7027 L -19.8205,-95.7867 L -19.9336,-95.878 L -20.0392,-95.9758 L -20.1365,-96.0796 L -20.2253,-96.1891
 L -20.3056,-96.3045 L -20.3774,-96.4257 L -20.4408,-96.5528 L -20.4958,-96.6857 L -20.5423,-96.8245 L -20.5804,-96.9691
 L -20.6099,-97.1195 L -20.6311,-97.2758 L -20.6438,-97.438 L -20.6442,-97.4547 L -19.4408,-97.7352 L -15.3716,-98.4071
 L -15.3249,-98.2552 L -15.2837,-98.0597 L -15.259,-97.8559 L -15.2508,-97.6439 z
M -0.174988,-0.174988 L -3.24426,-0.174988 L -3.24303,-0.212555 L -3.22218,-0.42421 L -3.18755,-0.634033 L -3.13925,-0.841156
 L -3.07751,-1.04468 L -3.00259,-1.24371 L -2.91483,-1.43742 L -2.81458,-1.625 L -2.70227,-1.8056 L -2.57838,-1.97847
 L -2.44347,-2.14287 L -2.2981,-2.2981 L -2.14287,-2.44347 L -1.97847,-2.57838 L -1.8056,-2.70227 L -1.625,-2.81458
 L -1.43742,-2.91483 L -1.24371,-3.00259 L -1.04468,-3.07751 L -0.841156,-3.13925 L -0.634033,-3.18755 L -0.42421,-3.22218
 L -0.212555,-3.24303 L -0.174988,-3.24426 z
M -0.174988,3.24426 L -0.212555,3.24303 L -0.42421,3.22218 L -0.634033,3.18755 L -0.841156,3.13925 L -1.04468,3.07751
 L -1.24371,3.00259 L -1.43742,2.91483 L -1.625,2.81458 L -1.8056,2.70227 L -1.97847,2.57838 L -2.14287,2.44347
 L -2.2981,2.2981 L -2.44347,2.14287 L -2.57838,1.97847 L -2.70227,1.8056 L -2.81458,1.625 L -2.91483,1.43742
 L -3.00259,1.24371 L -3.07751,1.04468 L -3.13925,0.841156 L -3.18755,0.634033 L -3.22218,0.42421 L -3.24303,0.212555
 L -3.24426,0.174988 L -0.174988,0.174988 z
M 3.24303,0.212555 L 3.22218,0.42421 L 3.18755,0.634033 L 3.13925,0.841156 L 3.07751,1.04468 L 3.00259,1.24371
 L 2.91483,1.43742 L 2.81458,1.625 L 2.70227,1.8056 L 2.57838,1.97847 L 2.44347,2.14287 L 2.2981,2.2981
 L 2.14287,2.44347 L 1.97847,2.57838 L 1.8056,2.70227 L 1.625,2.81458 L 1.43742,2.91483 L 1.24371,3.00259
 L 1.04468,3.07751 L 0.841156,3.13925 L 0.634033,3.18755 L 0.42421,3.22218 L 0.212555,3.24303 L 0.174988,3.24426
 L 0.174988,0.195938 L 0.230667,0.174988 L 3.24426,0.174988 z
M 0.174988,-1.25252 L 0.174988,-3.24426 L 0.212555,-3.24303 L 0.42421,-3.22218 L 0.634033,-3.18755 L 0.666595,-3.17996
 z
M 0.24881,-0.409088 L 0.937683,-3.10997 L 1.04468,-3.07751 L 1.24371,-3.00259 L 1.43742,-2.91483 L 1.625,-2.81458
 L 1.8056,-2.70227 L 1.97847,-2.57838 L 2.14287,-2.44347 L 2.2981,-2.2981 L 2.33063,-2.26337 z
M 0.872971,-0.590088 L 2.51645,-2.05394 L 2.57838,-1.97847 L 2.70227,-1.8056 L 2.81458,-1.625 L 2.91483,-1.43742
 L 2.94556,-1.36961 z
M 2.59192,-2.49609 L 2.54558,-2.54558 L 2.37364,-2.70662 L 2.19153,-2.85606 L 2.00005,-2.99329 L 1.79999,-3.11769
 L 1.59222,-3.22873 L 1.37766,-3.32596 L 1.15718,-3.40894 L 1.02423,-3.44926 L 21.0503,-81.9659 L 21.909,-81.7656
 L 27.2098,-80.1576 L 32.3941,-78.2064 L 37.4397,-75.9203 L 42.325,-73.309 L 47.029,-70.3839 L 51.5316,-67.1573
 L 55.8136,-63.6432 L 59.8566,-59.8566 L 63.1015,-56.392 z
M 1.16118,-0.174988 L 3.11806,-0.910995 L 3.13925,-0.841156 L 3.18755,-0.634033 L 3.22218,-0.42421 L 3.24303,-0.212555
 L 3.24426,-0.174988 z
M 73.9642,-28.0807 L 72.5048,-28.0807 L 71.8254,-28.0604 L 71.4307,-28.0401 L 76.3132,-31.1078 L 76.3132,-32.0437
 L 70.5803,-32.0437 L 70.5803,-31.3438 L 74.3399,-31.3438 L 74.3975,-31.3441 L 74.4604,-31.345 L 74.5285,-31.3464
 L 74.6018,-31.3485 L 74.6803,-31.3511 L 74.764,-31.3542 L 74.8528,-31.358 L 74.9469,-31.3623 L 75.0462,-31.3672
 L 75.1507,-31.3727 L 75.2604,-31.3788 L 75.3753,-31.3855 L 75.4954,-31.3927 L 70.5803,-28.2923 L 70.5803,-27.3891
 L 72.1252,-27.3891 L 66.4363,-25.2494 L 66.4336,-25.2537 L 66.3917,-25.3123 L 66.346,-25.3679 L 66.2968,-25.4204
 L 66.2443,-25.4696 L 66.1886,-25.5153 L 66.1301,-25.5572 L 66.069,-25.5952 L 66.0055,-25.6292 L 65.9399,-25.6589
 L 65.8726,-25.6842 L 65.8037,-25.7051 L 65.7336,-25.7215 L 65.6626,-25.7332 L 65.5909,-25.7403 L 65.519,-25.7426
 L 65.4471,-25.7403 L 65.3754,-25.7332 L 65.3044,-25.7215 L 65.2343,-25.7051 L 65.1654,-25.6842 L 65.0981,-25.6589
 L 65.0325,-25.6292 L 64.969,-25.5952 L 64.9079,-25.5572 L 64.8494,-25.5153 L 64.7937,-25.4696 L 64.7412,-25.4204
 L 64.692,-25.3679 L 64.6463,-25.3123 L 64.6044,-25.2537 L 64.5664,-25.1926 L 64.5324,-25.1291 L 64.5027,-25.0636
 L 64.4774,-24.9962 L 64.4565,-24.9273 L 64.4401,-24.8572 L 64.4284,-24.7862 L 64.4214,-24.7146 L 64.419,-24.6426
 L 64.4214,-24.5707 L 64.4284,-24.4991 L 64.4292,-24.4945 L 3.27368,-1.49303 L 3.22873,-1.59222 L 3.11769,-1.79999
 L 2.99329,-2.00005 L 2.85606,-2.19153 L 2.77789,-2.28679 L 63.2929,-56.1876 L 63.6432,-55.8136 L 67.1573,-51.5316
 L 70.3839,-47.029 L 73.309,-42.325 L 75.9203,-37.4397 L 76.2112,-36.7977 L 75.6907,-36.7977 L 75.6907,-33.8072
 L 75.6467,-33.8269 L 75.6025,-33.8484 L 75.558,-33.8717 L 75.5133,-33.8969 L 75.4683,-33.9239 L 75.423,-33.9528
 L 75.3775,-33.9834 L 75.3317,-34.0159 L 75.2856,-34.0503 L 75.2393,-34.0864 L 75.1927,-34.1244 L 75.1458,-34.1642
 L 75.0987,-34.2059 L 75.051,-34.2496 L 75.0024,-34.2955 L 74.9529,-34.3438 L 74.9025,-34.3943 L 74.8512,-34.447
 L 74.7991,-34.502 L 74.746,-34.5593 L 74.6921,-34.6188 L 74.6373,-34.6806 L 74.5815,-34.7447 L 74.5249,-34.811
 L 74.4674,-34.8796 L 74.409,-34.9505 L 74.3048,-35.0781 L 74.2048,-35.1991 L 74.1091,-35.3137 L 74.0177,-35.4218
 L 73.9305,-35.5234 L 73.8477,-35.6185 L 73.7691,-35.707 L 73.6949,-35.7891 L 73.6249,-35.8647 L 73.5592,-35.9337
 L 73.4978,-35.9963 L 73.4406,-36.0524 L 73.3878,-36.102 L 73.3371,-36.1474 L 73.2864,-36.1911 L 73.2357,-36.233
 L 73.185,-36.2732 L 73.1343,-36.3116 L 73.0836,-36.3482 L 73.0329,-36.3831 L 72.9821,-36.4163 L 72.9314,-36.4477
 L 72.8807,-36.4773 L 72.83,-36.5051 L 72.7793,-36.5313 L 72.7286,-36.5556 L 72.6779,-36.5782 L 72.6271,-36.599
 L 72.5763,-36.6179 L 72.5254,-36.6351 L 72.4745,-36.6504 L 72.4236,-36.664 L 72.3725,-36.6757 L 72.3215,-36.6856
 L 72.2704,-36.6937 L 72.2192,-36.7001 L 72.168,-36.7046 L 72.1167,-36.7073 L 72.0654,-36.7082 L 71.9517,-36.7054
 L 71.842,-36.6972 L 71.7363,-36.6834 L 71.6348,-36.6641 L 71.5373,-36.6393 L 71.4438,-36.6089 L 71.3545,-36.5731
 L 71.2692,-36.5318 L 71.188,-36.4849 L 71.1108,-36.4325 L 71.0378,-36.3746 L 70.9687,-36.3112 L 70.9038,-36.2423
 L 70.8433,-36.1683 L 70.7877,-36.0895 L 70.7368,-36.006 L 70.6909,-35.9177 L 70.6497,-35.8247 L 70.6134,-35.7269
 L 70.582,-35.6244 L 70.5554,-35.5172 L 70.5336,-35.4052 L 70.5167,-35.2885 L 70.5046,-35.167 L 70.4973,-35.0408
 L 70.4949,-34.9098 L 70.4973,-34.7901 L 70.5045,-34.6737 L 70.5166,-34.5608 L 70.5334,-34.4512 L 70.5551,-34.345
 L 70.5816,-34.2423 L 70.6129,-34.1429 L 70.649,-34.0469 L 70.6899,-33.9543 L 70.7357,-33.8652 L 70.7862,-33.7794
 L 70.8416,-33.697 L 70.9018,-33.618 L 70.9661,-33.5431 L 71.0336,-33.4733 L 71.1045,-33.4085 L 71.1788,-33.3486
 L 71.2563,-33.2937 L 71.3372,-33.2438 L 71.4214,-33.1989 L 71.5089,-33.159 L 71.5997,-33.124 L 71.6939,-33.0941
 L 71.7914,-33.0691 L 71.8922,-33.0491 L 71.9963,-33.0341 L 72.0654,-33.7828 L 71.9959,-33.7924 L 71.9288,-33.805
 L 71.8642,-33.8205 L 71.802,-33.839 L 71.7422,-33.8605 L 71.6848,-33.8849 L 71.6299,-33.9123 L 71.5774,-33.9426
 L 71.5273,-33.9759 L 71.4797,-34.0122 L 71.4345,-34.0514 L 71.3917,-34.0936 L 71.3514,-34.1387 L 71.3138,-34.1864
 L 71.2792,-34.2359 L 71.2475,-34.2874 L 71.2189,-34.3409 L 71.1934,-34.3963 L 71.1708,-34.4537 L 71.1512,-34.513
 L 71.1347,-34.5742 L 71.1211,-34.6375 L 71.1106,-34.7026 L 71.1031,-34.7697 L 71.0986,-34.8388 L 71.097,-34.9098
 L 71.0986,-34.9843 L 71.1032,-35.0562 L 71.1109,-35.1255 L 71.1217,-35.1924 L 71.1356,-35.2566 L 71.1525,-35.3183
 L 71.1725,-35.3775 L 71.1957,-35.4341 L 71.2219,-35.4881 L 71.2511,-35.5396 L 71.2835,-35.5885 L 71.3189,-35.6349
 L 71.3575,-35.6788 L 71.3988,-35.7197 L 71.4426,-35.7574 L 71.4889,-35.7917 L 71.5377,-35.8229 L 71.5891,-35.8507
 L 71.6429,-35.8753 L 71.6992,-35.8965 L 71.7581,-35.9146 L 71.8194,-35.9293 L 71.8833,-35.9408 L 71.9496,-35.9489
 L 72.0185,-35.9539 L 72.0899,-35.9555 L 72.1433,-35.9545 L 72.1958,-35.9517 L 72.2475,-35.9469 L 72.2982,-35.9403
 L 72.3482,-35.9317 L 72.3972,-35.9212 L 72.4454,-35.9089 L 72.4928,-35.8946 L 72.5392,-35.8784 L 72.5848,-35.8604
 L 72.6296,-35.8404 L 72.6734,-35.8185 L 72.7164,-35.7948 L 72.7589,-35.7694 L 72.801,-35.7429 L 72.8428,-35.7153
 L 72.8844,-35.6864 L 72.9257,-35.6564 L 72.9666,-35.6252 L 73.0073,-35.5928 L 73.0477,-35.5592 L 73.0878,-35.5244
 L 73.1277,-35.4885 L 73.1672,-35.4514 L 73.2065,-35.4131 L 73.2454,-35.3736 L 73.2842,-35.3332 L 73.323,-35.292
 L 73.3618,-35.2501 L 73.4006,-35.2074 L 73.4394,-35.164 L 73.4782,-35.1198 L 73.517,-35.0749 L 73.5558,-35.0292
 L 73.5947,-34.9828 L 73.6335,-34.9357 L 73.6723,-34.8878 L 73.7111,-34.8391 L 73.7889,-34.74 L 73.8285,-34.6901
 L 73.8686,-34.6401 L 73.9091,-34.5901 L 73.9502,-34.54 L 73.9918,-34.4899 L 74.0339,-34.4396 L 74.0765,-34.3893
 L 74.1196,-34.3389 L 74.1633,-34.2885 L 74.2074,-34.238 L 74.252,-34.1874 L 74.2971,-34.1367 L 74.3429,-34.0862
 L 74.3895,-34.036 L 74.437,-33.9863 L 74.4852,-33.9368 L 74.5343,-33.8877 L 74.5842,-33.839 L 74.6349,-33.7907
 L 74.6864,-33.7427 L 74.7387,-33.695 L 74.7919,-33.6478 L 74.8459,-33.6008 L 74.9007,-33.5543 L 74.9563,-33.5081
 L 75.013,-33.4626 L 75.071,-33.4182 L 75.1303,-33.375 L 75.191,-33.3327 L 75.253,-33.2916 L 75.3163,-33.2516
 L 75.3809,-33.2126 L 75.4468,-33.1747 L 75.5141,-33.1379 L 75.5827,-33.1022 L 75.6526,-33.0676 L 75.7239,-33.034
 L 75.7965,-33.0016 L 76.3132,-33.0016 L 76.3132,-36.5725 L 78.2064,-32.3941 L 79.1025,-30.0133 z
M 63.3628,-56.6248 L 60.1041,-60.1041 L 56.0444,-63.9064 L 51.7447,-67.435 L 47.2235,-70.6749 L 42.5,-73.6122
 L 37.5945,-76.2342 L 32.5281,-78.5298 L 27.3223,-80.4891 L 21.9996,-82.1037 L 21.1367,-82.3049 L 24.7562,-96.4958
 L 25.7913,-96.2545 L 32.0314,-94.3616 L 38.1344,-92.0646 L 44.0741,-89.3734 L 49.825,-86.2994 L 55.3626,-82.8559
 L 60.6631,-79.0576 L 65.7038,-74.9208 L 70.4632,-70.4632 L 74.3,-66.3666 z
M 32.3014,-116.104 L 32.2844,-115.932 L 32.2562,-115.76 L 32.2168,-115.592 L 32.1665,-115.426 L 32.1054,-115.263
 L 32.0338,-115.105 L 31.9521,-114.952 L 31.8605,-114.805 L 31.7595,-114.664 L 31.6495,-114.53 L 31.5309,-114.404
 L 31.4044,-114.285 L 31.2703,-114.175 L 31.1294,-114.074 L 30.9821,-113.983 L 30.8292,-113.901 L 30.6712,-113.829
 L 30.5089,-113.768 L 30.343,-113.718 L 30.1741,-113.678 L 30.003,-113.65 L 29.8304,-113.633 L 29.6571,-113.627
 L 29.4838,-113.633 L 29.3112,-113.65 L 29.1401,-113.678 L 29.1388,-113.679 L 29.7928,-116.243 L 29.5215,-116.312
 L 28.8678,-113.749 L 28.8053,-113.768 L 28.643,-113.829 L 28.4851,-113.901 L 28.3321,-113.983 L 28.1849,-114.074
 L 28.0439,-114.175 L 27.9099,-114.285 L 27.7833,-114.404 L 27.6647,-114.53 L 27.5547,-114.664 L 27.4537,-114.805
 L 27.3622,-114.952 L 27.2804,-115.105 L 27.2088,-115.263 L 27.1478,-115.426 L 27.0974,-115.592 L 27.058,-115.76
 L 27.0298,-115.932 L 27.0128,-116.104 L 27.0071,-116.277 L 27.0128,-116.451 L 27.0298,-116.623 L 27.058,-116.794
 L 27.0974,-116.963 L 27.1478,-117.129 L 27.2088,-117.292 L 27.2804,-117.45 L 27.3622,-117.602 L 27.4537,-117.75
 L 27.5547,-117.891 L 27.6647,-118.025 L 27.7833,-118.151 L 27.9099,-118.27 L 28.0439,-118.38 L 28.1849,-118.481
 L 28.3321,-118.572 L 28.4851,-118.654 L 28.643,-118.726 L 28.8053,-118.787 L 28.9713,-118.837 L 29.1401,-118.877
 L 29.3112,-118.905 L 29.4838,-118.922 L 29.6571,-118.927 L 29.8304,-118.922 L 30.003,-118.905 L 30.1741,-118.877
 L 30.343,-118.837 L 30.5089,-118.787 L 30.6712,-118.726 L 30.8292,-118.654 L 30.9821,-118.572 L 31.1294,-118.481
 L 31.2703,-118.38 L 31.4044,-118.27 L 31.5309,-118.151 L 31.6495,-118.025 L 31.7595,-117.891 L 31.8605,-117.75
 L 31.9521,-117.602 L 32.0338,-117.45 L 32.1054,-117.292 L 32.1665,-117.129 L 32.2168,-116.963 L 32.2562,-116.794
 L 32.2844,-116.623 L 32.3014,-116.451 L 32.3071,-116.277 z
M 64.7697,-24.6225 L 64.769,-24.6426 L 64.7706,-24.6917 L 64.7754,-24.7405 L 64.7834,-24.7889 L 64.7946,-24.8367
 L 64.8088,-24.8837 L 64.8261,-24.9296 L 64.8463,-24.9743 L 64.8695,-25.0176 L 64.8954,-25.0593 L 64.924,-25.0992
 L 64.9551,-25.1371 L 64.9887,-25.1729 L 65.0245,-25.2065 L 65.0624,-25.2376 L 65.1023,-25.2662 L 65.144,-25.2921
 L 65.1873,-25.3153 L 65.232,-25.3355 L 65.2779,-25.3528 L 65.3249,-25.3671 L 65.3727,-25.3782 L 65.4211,-25.3862
 L 65.47,-25.391 L 65.519,-25.3926 L 65.568,-25.391 L 65.6169,-25.3862 L 65.6653,-25.3782 L 65.7131,-25.3671
 L 65.7601,-25.3528 L 65.806,-25.3355 L 65.8507,-25.3153 L 65.894,-25.2921 L 65.9357,-25.2662 L 65.9756,-25.2376
 L 66.0135,-25.2065 L 66.0493,-25.1729 L 66.0829,-25.1371 L 66.0958,-25.1213 z
M 66.2674,-24.5936 L 66.2626,-24.5447 L 66.2546,-24.4963 L 66.2434,-24.4485 L 66.2292,-24.4016 L 66.2119,-24.3556
 L 66.1917,-24.3109 L 66.1685,-24.2676 L 66.1426,-24.226 L 66.114,-24.1861 L 66.0829,-24.1481 L 66.0493,-24.1123
 L 66.0135,-24.0788 L 65.9756,-24.0476 L 65.9357,-24.019 L 65.894,-23.9931 L 65.8507,-23.97 L 65.806,-23.9497
 L 65.7601,-23.9324 L 65.7131,-23.9182 L 65.6653,-23.907 L 65.6169,-23.899 L 65.568,-23.8942 L 65.519,-23.8926
 L 65.47,-23.8942 L 65.4211,-23.899 L 65.3727,-23.907 L 65.3249,-23.9182 L 65.2779,-23.9324 L 65.232,-23.9497
 L 65.1873,-23.97 L 65.144,-23.9931 L 65.1023,-24.019 L 65.0624,-24.0476 L 65.0245,-24.0788 L 64.9887,-24.1123
 L 64.9551,-24.1481 L 64.9422,-24.1639 L 66.2683,-24.6627 L 66.269,-24.6426 z
M 92.2527,-79.641 L 92.2357,-79.4685 L 92.2075,-79.2974 L 92.1681,-79.1285 L 92.1178,-78.9625 L 92.0567,-78.8002
 L 91.9851,-78.6423 L 91.9034,-78.4893 L 91.8118,-78.3421 L 91.7108,-78.2011 L 91.6008,-78.0671 L 91.4822,-77.9405
 L 91.3557,-77.822 L 91.2216,-77.712 L 91.0807,-77.611 L 90.9334,-77.5194 L 90.7805,-77.4376 L 90.6225,-77.3661
 L 90.4602,-77.305 L 90.2943,-77.2547 L 90.1254,-77.2153 L 89.9543,-77.187 L 89.7817,-77.17 L 89.6084,-77.1644
 L 89.4351,-77.17 L 89.2625,-77.187 L 89.0914,-77.2153 L 88.9225,-77.2547 L 88.7566,-77.305 L 88.5943,-77.3661
 L 88.4364,-77.4376 L 88.2834,-77.5194 L 88.1362,-77.611 L 87.9952,-77.712 L 87.8612,-77.822 L 87.7346,-77.9405
 L 87.7258,-77.95 L 89.7015,-79.7098 L 89.5153,-79.9189 L 87.5401,-78.1596 L 87.506,-78.2011 L 87.405,-78.3421
 L 87.3135,-78.4893 L 87.2317,-78.6423 L 87.1601,-78.8002 L 87.0991,-78.9625 L 87.0487,-79.1285 L 87.0093,-79.2974
 L 86.9811,-79.4685 L 86.9641,-79.641 L 86.9584,-79.8143 L 86.9641,-79.9877 L 86.9811,-80.1602 L 87.0093,-80.3313
 L 87.0487,-80.5002 L 87.0991,-80.6662 L 87.1601,-80.8284 L 87.2317,-80.9864 L 87.3135,-81.1393 L 87.405,-81.2866
 L 87.506,-81.4276 L 87.616,-81.5616 L 87.7346,-81.6882 L 87.8612,-81.8067 L 87.9952,-81.9167 L 88.1362,-82.0177
 L 88.2834,-82.1093 L 88.4364,-82.1911 L 88.5943,-82.2626 L 88.7566,-82.3237 L 88.9225,-82.374 L 89.0914,-82.4134
 L 89.2625,-82.4417 L 89.4351,-82.4587 L 89.6084,-82.4643 L 89.7817,-82.4587 L 89.9543,-82.4417 L 90.1254,-82.4134
 L 90.2943,-82.374 L 90.4602,-82.3237 L 90.6225,-82.2626 L 90.7805,-82.1911 L 90.9334,-82.1093 L 91.0807,-82.0177
 L 91.2216,-81.9167 L 91.3557,-81.8067 L 91.4822,-81.6882 L 91.6008,-81.5616 L 91.7108,-81.4276 L 91.8118,-81.2866
 L 91.9034,-81.1393 L 91.9851,-80.9864 L 92.0567,-80.8284 L 92.1178,-80.6662 L 92.1681,-80.5002 L 92.2075,-80.3313
 L 92.2357,-80.1602 L 92.2527,-79.9877 L 92.2584,-79.8143 z
M 98.1052,-16.7426 L 97.9546,-16.7901 L 97.8103,-16.8449 L 97.6722,-16.9069 L 97.5403,-16.9763 L 97.4148,-17.053
 L 97.2955,-17.1369 L 97.1824,-17.2282 L 97.0768,-17.3261 L 96.9795,-17.4298 L 96.8908,-17.5394 L 96.8104,-17.6547
 L 96.7386,-17.776 L 96.6752,-17.903 L 96.6202,-18.036 L 96.5737,-18.1747 L 96.5357,-18.3193 L 96.5061,-18.4698
 L 96.4849,-18.6261 L 96.4723,-18.7882 L 96.468,-18.9562 L 96.4698,-19.0639 L 96.4753,-19.1693 L 96.4845,-19.2724
 L 96.4972,-19.3732 L 96.5137,-19.4718 L 96.5338,-19.5681 L 96.5575,-19.6621 L 96.5849,-19.7539 L 96.6159,-19.8433
 L 96.6506,-19.9305 L 96.6889,-20.0154 L 96.7309,-20.0981 L 96.7766,-20.1785 L 96.8257,-20.256 L 96.878,-20.3302
 L 96.9336,-20.4011 L 96.9925,-20.4687 L 97.0546,-20.5329 L 97.12,-20.5937 L 97.1887,-20.6512 L 97.2606,-20.7054
 L 97.3357,-20.7562 L 97.4141,-20.8037 L 97.4171,-20.8053 L 97.7352,-19.4408 L 98.184,-16.7225 z
" stroke="black" fill="lightgray" stroke-width="0.5"/>
</svg>
